<?xml version="1.0" encoding="utf-8" standalone="no"?>
<!DOCTYPE svg PUBLIC "-//W3C//DTD SVG 1.1//EN"
  "http://www.w3.org/Graphics/SVG/1.1/DTD/svg11.dtd">
<svg xmlns:xlink="http://www.w3.org/1999/xlink" width="421.70203pt" height="404.47125pt" viewBox="0 0 421.70203 404.47125" xmlns="http://www.w3.org/2000/svg" version="1.1">
 <metadata>
  <rdf:RDF xmlns:dc="http://purl.org/dc/elements/1.1/" xmlns:cc="http://creativecommons.org/ns#" xmlns:rdf="http://www.w3.org/1999/02/22-rdf-syntax-ns#">
   <cc:Work>
    <dc:type rdf:resource="http://purl.org/dc/dcmitype/StillImage"/>
    <dc:date>2025-04-11T15:04:06.786295</dc:date>
    <dc:format>image/svg+xml</dc:format>
    <dc:creator>
     <cc:Agent>
      <dc:title>Matplotlib v3.9.1, https://matplotlib.org/</dc:title>
     </cc:Agent>
    </dc:creator>
   </cc:Work>
  </rdf:RDF>
 </metadata>
 <defs>
  <style type="text/css">*{stroke-linejoin: round; stroke-linecap: butt}</style>
 </defs>
 <g id="figure_1">
  <g id="patch_1">
   <path d="M 0 404.47125 
L 421.70203 404.47125 
L 421.70203 0 
L 0 0 
z
" style="fill: #ffffff"/>
  </g>
  <g id="axes_1">
   <g id="patch_2">
    <path d="M 50.14375 288.430125 
L 407.26375 288.430125 
L 407.26375 22.318125 
L 50.14375 22.318125 
z
" style="fill: #ffffff"/>
   </g>
   <g id="PolyCollection_1"/>
   <g id="PolyCollection_2"/>
   <g id="PolyCollection_3"/>
   <g id="PolyCollection_4"/>
   <g id="PolyCollection_5"/>
   <g id="PolyCollection_6"/>
   <g id="PolyCollection_7"/>
   <g id="PolyCollection_8"/>
   <g id="PolyCollection_9"/>
   <g id="PolyCollection_10"/>
   <g id="PolyCollection_11"/>
   <g id="PolyCollection_12"/>
   <g id="PolyCollection_13"/>
   <g id="PolyCollection_14"/>
   <g id="PolyCollection_15"/>
   <g id="PolyCollection_16"/>
   <g id="PolyCollection_17"/>
   <g id="PolyCollection_18"/>
   <g id="PolyCollection_19"/>
   <g id="PolyCollection_20"/>
   <g id="PolyCollection_21"/>
   <g id="PolyCollection_22"/>
   <g id="PolyCollection_23"/>
   <g id="PolyCollection_24"/>
   <g id="matplotlib.axis_1">
    <g id="xtick_1">
     <g id="line2d_1">
      <defs>
       <path id="m55d810e5a2" d="M 0 0 
L 0 3.5 
" style="stroke: #000000; stroke-width: 0.8"/>
      </defs>
      <g>
       <use xlink:href="#m55d810e5a2" x="66.376477" y="288.430125" style="stroke: #000000; stroke-width: 0.8"/>
      </g>
     </g>
     <g id="text_1">
      <!-- 0.000 -->
      <g transform="translate(52.062415 303.028562) scale(0.1 -0.1)">
       <defs>
        <path id="DejaVuSans-30" d="M 2034 4250 
Q 1547 4250 1301 3770 
Q 1056 3291 1056 2328 
Q 1056 1369 1301 889 
Q 1547 409 2034 409 
Q 2525 409 2770 889 
Q 3016 1369 3016 2328 
Q 3016 3291 2770 3770 
Q 2525 4250 2034 4250 
z
M 2034 4750 
Q 2819 4750 3233 4129 
Q 3647 3509 3647 2328 
Q 3647 1150 3233 529 
Q 2819 -91 2034 -91 
Q 1250 -91 836 529 
Q 422 1150 422 2328 
Q 422 3509 836 4129 
Q 1250 4750 2034 4750 
z
" transform="scale(0.015625)"/>
        <path id="DejaVuSans-2e" d="M 684 794 
L 1344 794 
L 1344 0 
L 684 0 
L 684 794 
z
" transform="scale(0.015625)"/>
       </defs>
       <use xlink:href="#DejaVuSans-30"/>
       <use xlink:href="#DejaVuSans-2e" x="63.623047"/>
       <use xlink:href="#DejaVuSans-30" x="95.410156"/>
       <use xlink:href="#DejaVuSans-30" x="159.033203"/>
       <use xlink:href="#DejaVuSans-30" x="222.65625"/>
      </g>
     </g>
    </g>
    <g id="xtick_2">
     <g id="line2d_2">
      <g>
       <use xlink:href="#m55d810e5a2" x="114.063833" y="288.430125" style="stroke: #000000; stroke-width: 0.8"/>
      </g>
     </g>
     <g id="text_2">
      <!-- 0.025 -->
      <g transform="translate(99.749771 303.028562) scale(0.1 -0.1)">
       <defs>
        <path id="DejaVuSans-32" d="M 1228 531 
L 3431 531 
L 3431 0 
L 469 0 
L 469 531 
Q 828 903 1448 1529 
Q 2069 2156 2228 2338 
Q 2531 2678 2651 2914 
Q 2772 3150 2772 3378 
Q 2772 3750 2511 3984 
Q 2250 4219 1831 4219 
Q 1534 4219 1204 4116 
Q 875 4013 500 3803 
L 500 4441 
Q 881 4594 1212 4672 
Q 1544 4750 1819 4750 
Q 2544 4750 2975 4387 
Q 3406 4025 3406 3419 
Q 3406 3131 3298 2873 
Q 3191 2616 2906 2266 
Q 2828 2175 2409 1742 
Q 1991 1309 1228 531 
z
" transform="scale(0.015625)"/>
        <path id="DejaVuSans-35" d="M 691 4666 
L 3169 4666 
L 3169 4134 
L 1269 4134 
L 1269 2991 
Q 1406 3038 1543 3061 
Q 1681 3084 1819 3084 
Q 2600 3084 3056 2656 
Q 3513 2228 3513 1497 
Q 3513 744 3044 326 
Q 2575 -91 1722 -91 
Q 1428 -91 1123 -41 
Q 819 9 494 109 
L 494 744 
Q 775 591 1075 516 
Q 1375 441 1709 441 
Q 2250 441 2565 725 
Q 2881 1009 2881 1497 
Q 2881 1984 2565 2268 
Q 2250 2553 1709 2553 
Q 1456 2553 1204 2497 
Q 953 2441 691 2322 
L 691 4666 
z
" transform="scale(0.015625)"/>
       </defs>
       <use xlink:href="#DejaVuSans-30"/>
       <use xlink:href="#DejaVuSans-2e" x="63.623047"/>
       <use xlink:href="#DejaVuSans-30" x="95.410156"/>
       <use xlink:href="#DejaVuSans-32" x="159.033203"/>
       <use xlink:href="#DejaVuSans-35" x="222.65625"/>
      </g>
     </g>
    </g>
    <g id="xtick_3">
     <g id="line2d_3">
      <g>
       <use xlink:href="#m55d810e5a2" x="161.751189" y="288.430125" style="stroke: #000000; stroke-width: 0.8"/>
      </g>
     </g>
     <g id="text_3">
      <!-- 0.050 -->
      <g transform="translate(147.437126 303.028562) scale(0.1 -0.1)">
       <use xlink:href="#DejaVuSans-30"/>
       <use xlink:href="#DejaVuSans-2e" x="63.623047"/>
       <use xlink:href="#DejaVuSans-30" x="95.410156"/>
       <use xlink:href="#DejaVuSans-35" x="159.033203"/>
       <use xlink:href="#DejaVuSans-30" x="222.65625"/>
      </g>
     </g>
    </g>
    <g id="xtick_4">
     <g id="line2d_4">
      <g>
       <use xlink:href="#m55d810e5a2" x="209.438545" y="288.430125" style="stroke: #000000; stroke-width: 0.8"/>
      </g>
     </g>
     <g id="text_4">
      <!-- 0.075 -->
      <g transform="translate(195.124482 303.028562) scale(0.1 -0.1)">
       <defs>
        <path id="DejaVuSans-37" d="M 525 4666 
L 3525 4666 
L 3525 4397 
L 1831 0 
L 1172 0 
L 2766 4134 
L 525 4134 
L 525 4666 
z
" transform="scale(0.015625)"/>
       </defs>
       <use xlink:href="#DejaVuSans-30"/>
       <use xlink:href="#DejaVuSans-2e" x="63.623047"/>
       <use xlink:href="#DejaVuSans-30" x="95.410156"/>
       <use xlink:href="#DejaVuSans-37" x="159.033203"/>
       <use xlink:href="#DejaVuSans-35" x="222.65625"/>
      </g>
     </g>
    </g>
    <g id="xtick_5">
     <g id="line2d_5">
      <g>
       <use xlink:href="#m55d810e5a2" x="257.1259" y="288.430125" style="stroke: #000000; stroke-width: 0.8"/>
      </g>
     </g>
     <g id="text_5">
      <!-- 0.100 -->
      <g transform="translate(242.811838 303.028562) scale(0.1 -0.1)">
       <defs>
        <path id="DejaVuSans-31" d="M 794 531 
L 1825 531 
L 1825 4091 
L 703 3866 
L 703 4441 
L 1819 4666 
L 2450 4666 
L 2450 531 
L 3481 531 
L 3481 0 
L 794 0 
L 794 531 
z
" transform="scale(0.015625)"/>
       </defs>
       <use xlink:href="#DejaVuSans-30"/>
       <use xlink:href="#DejaVuSans-2e" x="63.623047"/>
       <use xlink:href="#DejaVuSans-31" x="95.410156"/>
       <use xlink:href="#DejaVuSans-30" x="159.033203"/>
       <use xlink:href="#DejaVuSans-30" x="222.65625"/>
      </g>
     </g>
    </g>
    <g id="xtick_6">
     <g id="line2d_6">
      <g>
       <use xlink:href="#m55d810e5a2" x="304.813256" y="288.430125" style="stroke: #000000; stroke-width: 0.8"/>
      </g>
     </g>
     <g id="text_6">
      <!-- 0.125 -->
      <g transform="translate(290.499194 303.028562) scale(0.1 -0.1)">
       <use xlink:href="#DejaVuSans-30"/>
       <use xlink:href="#DejaVuSans-2e" x="63.623047"/>
       <use xlink:href="#DejaVuSans-31" x="95.410156"/>
       <use xlink:href="#DejaVuSans-32" x="159.033203"/>
       <use xlink:href="#DejaVuSans-35" x="222.65625"/>
      </g>
     </g>
    </g>
    <g id="xtick_7">
     <g id="line2d_7">
      <g>
       <use xlink:href="#m55d810e5a2" x="352.500612" y="288.430125" style="stroke: #000000; stroke-width: 0.8"/>
      </g>
     </g>
     <g id="text_7">
      <!-- 0.150 -->
      <g transform="translate(338.18655 303.028562) scale(0.1 -0.1)">
       <use xlink:href="#DejaVuSans-30"/>
       <use xlink:href="#DejaVuSans-2e" x="63.623047"/>
       <use xlink:href="#DejaVuSans-31" x="95.410156"/>
       <use xlink:href="#DejaVuSans-35" x="159.033203"/>
       <use xlink:href="#DejaVuSans-30" x="222.65625"/>
      </g>
     </g>
    </g>
    <g id="xtick_8">
     <g id="line2d_8">
      <g>
       <use xlink:href="#m55d810e5a2" x="400.187968" y="288.430125" style="stroke: #000000; stroke-width: 0.8"/>
      </g>
     </g>
     <g id="text_8">
      <!-- 0.175 -->
      <g transform="translate(385.873905 303.028562) scale(0.1 -0.1)">
       <use xlink:href="#DejaVuSans-30"/>
       <use xlink:href="#DejaVuSans-2e" x="63.623047"/>
       <use xlink:href="#DejaVuSans-31" x="95.410156"/>
       <use xlink:href="#DejaVuSans-37" x="159.033203"/>
       <use xlink:href="#DejaVuSans-35" x="222.65625"/>
      </g>
     </g>
    </g>
    <g id="text_9">
     <!-- Absorbance / Film Thickness -->
     <g transform="translate(157.832656 316.706687) scale(0.1 -0.1)">
      <defs>
       <path id="DejaVuSans-41" d="M 2188 4044 
L 1331 1722 
L 3047 1722 
L 2188 4044 
z
M 1831 4666 
L 2547 4666 
L 4325 0 
L 3669 0 
L 3244 1197 
L 1141 1197 
L 716 0 
L 50 0 
L 1831 4666 
z
" transform="scale(0.015625)"/>
       <path id="DejaVuSans-62" d="M 3116 1747 
Q 3116 2381 2855 2742 
Q 2594 3103 2138 3103 
Q 1681 3103 1420 2742 
Q 1159 2381 1159 1747 
Q 1159 1113 1420 752 
Q 1681 391 2138 391 
Q 2594 391 2855 752 
Q 3116 1113 3116 1747 
z
M 1159 2969 
Q 1341 3281 1617 3432 
Q 1894 3584 2278 3584 
Q 2916 3584 3314 3078 
Q 3713 2572 3713 1747 
Q 3713 922 3314 415 
Q 2916 -91 2278 -91 
Q 1894 -91 1617 61 
Q 1341 213 1159 525 
L 1159 0 
L 581 0 
L 581 4863 
L 1159 4863 
L 1159 2969 
z
" transform="scale(0.015625)"/>
       <path id="DejaVuSans-73" d="M 2834 3397 
L 2834 2853 
Q 2591 2978 2328 3040 
Q 2066 3103 1784 3103 
Q 1356 3103 1142 2972 
Q 928 2841 928 2578 
Q 928 2378 1081 2264 
Q 1234 2150 1697 2047 
L 1894 2003 
Q 2506 1872 2764 1633 
Q 3022 1394 3022 966 
Q 3022 478 2636 193 
Q 2250 -91 1575 -91 
Q 1294 -91 989 -36 
Q 684 19 347 128 
L 347 722 
Q 666 556 975 473 
Q 1284 391 1588 391 
Q 1994 391 2212 530 
Q 2431 669 2431 922 
Q 2431 1156 2273 1281 
Q 2116 1406 1581 1522 
L 1381 1569 
Q 847 1681 609 1914 
Q 372 2147 372 2553 
Q 372 3047 722 3315 
Q 1072 3584 1716 3584 
Q 2034 3584 2315 3537 
Q 2597 3491 2834 3397 
z
" transform="scale(0.015625)"/>
       <path id="DejaVuSans-6f" d="M 1959 3097 
Q 1497 3097 1228 2736 
Q 959 2375 959 1747 
Q 959 1119 1226 758 
Q 1494 397 1959 397 
Q 2419 397 2687 759 
Q 2956 1122 2956 1747 
Q 2956 2369 2687 2733 
Q 2419 3097 1959 3097 
z
M 1959 3584 
Q 2709 3584 3137 3096 
Q 3566 2609 3566 1747 
Q 3566 888 3137 398 
Q 2709 -91 1959 -91 
Q 1206 -91 779 398 
Q 353 888 353 1747 
Q 353 2609 779 3096 
Q 1206 3584 1959 3584 
z
" transform="scale(0.015625)"/>
       <path id="DejaVuSans-72" d="M 2631 2963 
Q 2534 3019 2420 3045 
Q 2306 3072 2169 3072 
Q 1681 3072 1420 2755 
Q 1159 2438 1159 1844 
L 1159 0 
L 581 0 
L 581 3500 
L 1159 3500 
L 1159 2956 
Q 1341 3275 1631 3429 
Q 1922 3584 2338 3584 
Q 2397 3584 2469 3576 
Q 2541 3569 2628 3553 
L 2631 2963 
z
" transform="scale(0.015625)"/>
       <path id="DejaVuSans-61" d="M 2194 1759 
Q 1497 1759 1228 1600 
Q 959 1441 959 1056 
Q 959 750 1161 570 
Q 1363 391 1709 391 
Q 2188 391 2477 730 
Q 2766 1069 2766 1631 
L 2766 1759 
L 2194 1759 
z
M 3341 1997 
L 3341 0 
L 2766 0 
L 2766 531 
Q 2569 213 2275 61 
Q 1981 -91 1556 -91 
Q 1019 -91 701 211 
Q 384 513 384 1019 
Q 384 1609 779 1909 
Q 1175 2209 1959 2209 
L 2766 2209 
L 2766 2266 
Q 2766 2663 2505 2880 
Q 2244 3097 1772 3097 
Q 1472 3097 1187 3025 
Q 903 2953 641 2809 
L 641 3341 
Q 956 3463 1253 3523 
Q 1550 3584 1831 3584 
Q 2591 3584 2966 3190 
Q 3341 2797 3341 1997 
z
" transform="scale(0.015625)"/>
       <path id="DejaVuSans-6e" d="M 3513 2113 
L 3513 0 
L 2938 0 
L 2938 2094 
Q 2938 2591 2744 2837 
Q 2550 3084 2163 3084 
Q 1697 3084 1428 2787 
Q 1159 2491 1159 1978 
L 1159 0 
L 581 0 
L 581 3500 
L 1159 3500 
L 1159 2956 
Q 1366 3272 1645 3428 
Q 1925 3584 2291 3584 
Q 2894 3584 3203 3211 
Q 3513 2838 3513 2113 
z
" transform="scale(0.015625)"/>
       <path id="DejaVuSans-63" d="M 3122 3366 
L 3122 2828 
Q 2878 2963 2633 3030 
Q 2388 3097 2138 3097 
Q 1578 3097 1268 2742 
Q 959 2388 959 1747 
Q 959 1106 1268 751 
Q 1578 397 2138 397 
Q 2388 397 2633 464 
Q 2878 531 3122 666 
L 3122 134 
Q 2881 22 2623 -34 
Q 2366 -91 2075 -91 
Q 1284 -91 818 406 
Q 353 903 353 1747 
Q 353 2603 823 3093 
Q 1294 3584 2113 3584 
Q 2378 3584 2631 3529 
Q 2884 3475 3122 3366 
z
" transform="scale(0.015625)"/>
       <path id="DejaVuSans-65" d="M 3597 1894 
L 3597 1613 
L 953 1613 
Q 991 1019 1311 708 
Q 1631 397 2203 397 
Q 2534 397 2845 478 
Q 3156 559 3463 722 
L 3463 178 
Q 3153 47 2828 -22 
Q 2503 -91 2169 -91 
Q 1331 -91 842 396 
Q 353 884 353 1716 
Q 353 2575 817 3079 
Q 1281 3584 2069 3584 
Q 2775 3584 3186 3129 
Q 3597 2675 3597 1894 
z
M 3022 2063 
Q 3016 2534 2758 2815 
Q 2500 3097 2075 3097 
Q 1594 3097 1305 2825 
Q 1016 2553 972 2059 
L 3022 2063 
z
" transform="scale(0.015625)"/>
       <path id="DejaVuSans-20" transform="scale(0.015625)"/>
       <path id="DejaVuSans-2f" d="M 1625 4666 
L 2156 4666 
L 531 -594 
L 0 -594 
L 1625 4666 
z
" transform="scale(0.015625)"/>
       <path id="DejaVuSans-46" d="M 628 4666 
L 3309 4666 
L 3309 4134 
L 1259 4134 
L 1259 2759 
L 3109 2759 
L 3109 2228 
L 1259 2228 
L 1259 0 
L 628 0 
L 628 4666 
z
" transform="scale(0.015625)"/>
       <path id="DejaVuSans-69" d="M 603 3500 
L 1178 3500 
L 1178 0 
L 603 0 
L 603 3500 
z
M 603 4863 
L 1178 4863 
L 1178 4134 
L 603 4134 
L 603 4863 
z
" transform="scale(0.015625)"/>
       <path id="DejaVuSans-6c" d="M 603 4863 
L 1178 4863 
L 1178 0 
L 603 0 
L 603 4863 
z
" transform="scale(0.015625)"/>
       <path id="DejaVuSans-6d" d="M 3328 2828 
Q 3544 3216 3844 3400 
Q 4144 3584 4550 3584 
Q 5097 3584 5394 3201 
Q 5691 2819 5691 2113 
L 5691 0 
L 5113 0 
L 5113 2094 
Q 5113 2597 4934 2840 
Q 4756 3084 4391 3084 
Q 3944 3084 3684 2787 
Q 3425 2491 3425 1978 
L 3425 0 
L 2847 0 
L 2847 2094 
Q 2847 2600 2669 2842 
Q 2491 3084 2119 3084 
Q 1678 3084 1418 2786 
Q 1159 2488 1159 1978 
L 1159 0 
L 581 0 
L 581 3500 
L 1159 3500 
L 1159 2956 
Q 1356 3278 1631 3431 
Q 1906 3584 2284 3584 
Q 2666 3584 2933 3390 
Q 3200 3197 3328 2828 
z
" transform="scale(0.015625)"/>
       <path id="DejaVuSans-54" d="M -19 4666 
L 3928 4666 
L 3928 4134 
L 2272 4134 
L 2272 0 
L 1638 0 
L 1638 4134 
L -19 4134 
L -19 4666 
z
" transform="scale(0.015625)"/>
       <path id="DejaVuSans-68" d="M 3513 2113 
L 3513 0 
L 2938 0 
L 2938 2094 
Q 2938 2591 2744 2837 
Q 2550 3084 2163 3084 
Q 1697 3084 1428 2787 
Q 1159 2491 1159 1978 
L 1159 0 
L 581 0 
L 581 4863 
L 1159 4863 
L 1159 2956 
Q 1366 3272 1645 3428 
Q 1925 3584 2291 3584 
Q 2894 3584 3203 3211 
Q 3513 2838 3513 2113 
z
" transform="scale(0.015625)"/>
       <path id="DejaVuSans-6b" d="M 581 4863 
L 1159 4863 
L 1159 1991 
L 2875 3500 
L 3609 3500 
L 1753 1863 
L 3688 0 
L 2938 0 
L 1159 1709 
L 1159 0 
L 581 0 
L 581 4863 
z
" transform="scale(0.015625)"/>
      </defs>
      <use xlink:href="#DejaVuSans-41"/>
      <use xlink:href="#DejaVuSans-62" x="68.408203"/>
      <use xlink:href="#DejaVuSans-73" x="131.884766"/>
      <use xlink:href="#DejaVuSans-6f" x="183.984375"/>
      <use xlink:href="#DejaVuSans-72" x="245.166016"/>
      <use xlink:href="#DejaVuSans-62" x="286.279297"/>
      <use xlink:href="#DejaVuSans-61" x="349.755859"/>
      <use xlink:href="#DejaVuSans-6e" x="411.035156"/>
      <use xlink:href="#DejaVuSans-63" x="474.414062"/>
      <use xlink:href="#DejaVuSans-65" x="529.394531"/>
      <use xlink:href="#DejaVuSans-20" x="590.917969"/>
      <use xlink:href="#DejaVuSans-2f" x="622.705078"/>
      <use xlink:href="#DejaVuSans-20" x="656.396484"/>
      <use xlink:href="#DejaVuSans-46" x="688.183594"/>
      <use xlink:href="#DejaVuSans-69" x="738.453125"/>
      <use xlink:href="#DejaVuSans-6c" x="766.236328"/>
      <use xlink:href="#DejaVuSans-6d" x="794.019531"/>
      <use xlink:href="#DejaVuSans-20" x="891.431641"/>
      <use xlink:href="#DejaVuSans-54" x="923.21875"/>
      <use xlink:href="#DejaVuSans-68" x="984.302734"/>
      <use xlink:href="#DejaVuSans-69" x="1047.681641"/>
      <use xlink:href="#DejaVuSans-63" x="1075.464844"/>
      <use xlink:href="#DejaVuSans-6b" x="1130.445312"/>
      <use xlink:href="#DejaVuSans-6e" x="1188.355469"/>
      <use xlink:href="#DejaVuSans-65" x="1251.734375"/>
      <use xlink:href="#DejaVuSans-73" x="1313.257812"/>
      <use xlink:href="#DejaVuSans-73" x="1365.357422"/>
     </g>
    </g>
   </g>
   <g id="matplotlib.axis_2">
    <g id="ytick_1">
     <g id="line2d_9">
      <defs>
       <path id="m1907a94d3a" d="M 0 0 
L -3.5 0 
" style="stroke: #000000; stroke-width: 0.8"/>
      </defs>
      <g>
       <use xlink:href="#m1907a94d3a" x="50.14375" y="257.172213" style="stroke: #000000; stroke-width: 0.8"/>
      </g>
     </g>
     <g id="text_10">
      <!-- 7.92 -->
      <g transform="translate(20.878125 260.971431) scale(0.1 -0.1)">
       <defs>
        <path id="DejaVuSans-39" d="M 703 97 
L 703 672 
Q 941 559 1184 500 
Q 1428 441 1663 441 
Q 2288 441 2617 861 
Q 2947 1281 2994 2138 
Q 2813 1869 2534 1725 
Q 2256 1581 1919 1581 
Q 1219 1581 811 2004 
Q 403 2428 403 3163 
Q 403 3881 828 4315 
Q 1253 4750 1959 4750 
Q 2769 4750 3195 4129 
Q 3622 3509 3622 2328 
Q 3622 1225 3098 567 
Q 2575 -91 1691 -91 
Q 1453 -91 1209 -44 
Q 966 3 703 97 
z
M 1959 2075 
Q 2384 2075 2632 2365 
Q 2881 2656 2881 3163 
Q 2881 3666 2632 3958 
Q 2384 4250 1959 4250 
Q 1534 4250 1286 3958 
Q 1038 3666 1038 3163 
Q 1038 2656 1286 2365 
Q 1534 2075 1959 2075 
z
" transform="scale(0.015625)"/>
       </defs>
       <use xlink:href="#DejaVuSans-37"/>
       <use xlink:href="#DejaVuSans-2e" x="63.623047"/>
       <use xlink:href="#DejaVuSans-39" x="95.410156"/>
       <use xlink:href="#DejaVuSans-32" x="159.033203"/>
      </g>
     </g>
    </g>
    <g id="ytick_2">
     <g id="line2d_10">
      <g>
       <use xlink:href="#m1907a94d3a" x="50.14375" y="219.099575" style="stroke: #000000; stroke-width: 0.8"/>
      </g>
     </g>
     <g id="text_11">
      <!-- 7.94 -->
      <g transform="translate(20.878125 222.898794) scale(0.1 -0.1)">
       <defs>
        <path id="DejaVuSans-34" d="M 2419 4116 
L 825 1625 
L 2419 1625 
L 2419 4116 
z
M 2253 4666 
L 3047 4666 
L 3047 1625 
L 3713 1625 
L 3713 1100 
L 3047 1100 
L 3047 0 
L 2419 0 
L 2419 1100 
L 313 1100 
L 313 1709 
L 2253 4666 
z
" transform="scale(0.015625)"/>
       </defs>
       <use xlink:href="#DejaVuSans-37"/>
       <use xlink:href="#DejaVuSans-2e" x="63.623047"/>
       <use xlink:href="#DejaVuSans-39" x="95.410156"/>
       <use xlink:href="#DejaVuSans-34" x="159.033203"/>
      </g>
     </g>
    </g>
    <g id="ytick_3">
     <g id="line2d_11">
      <g>
       <use xlink:href="#m1907a94d3a" x="50.14375" y="181.026938" style="stroke: #000000; stroke-width: 0.8"/>
      </g>
     </g>
     <g id="text_12">
      <!-- 7.96 -->
      <g transform="translate(20.878125 184.826156) scale(0.1 -0.1)">
       <defs>
        <path id="DejaVuSans-36" d="M 2113 2584 
Q 1688 2584 1439 2293 
Q 1191 2003 1191 1497 
Q 1191 994 1439 701 
Q 1688 409 2113 409 
Q 2538 409 2786 701 
Q 3034 994 3034 1497 
Q 3034 2003 2786 2293 
Q 2538 2584 2113 2584 
z
M 3366 4563 
L 3366 3988 
Q 3128 4100 2886 4159 
Q 2644 4219 2406 4219 
Q 1781 4219 1451 3797 
Q 1122 3375 1075 2522 
Q 1259 2794 1537 2939 
Q 1816 3084 2150 3084 
Q 2853 3084 3261 2657 
Q 3669 2231 3669 1497 
Q 3669 778 3244 343 
Q 2819 -91 2113 -91 
Q 1303 -91 875 529 
Q 447 1150 447 2328 
Q 447 3434 972 4092 
Q 1497 4750 2381 4750 
Q 2619 4750 2861 4703 
Q 3103 4656 3366 4563 
z
" transform="scale(0.015625)"/>
       </defs>
       <use xlink:href="#DejaVuSans-37"/>
       <use xlink:href="#DejaVuSans-2e" x="63.623047"/>
       <use xlink:href="#DejaVuSans-39" x="95.410156"/>
       <use xlink:href="#DejaVuSans-36" x="159.033203"/>
      </g>
     </g>
    </g>
    <g id="ytick_4">
     <g id="line2d_12">
      <g>
       <use xlink:href="#m1907a94d3a" x="50.14375" y="142.9543" style="stroke: #000000; stroke-width: 0.8"/>
      </g>
     </g>
     <g id="text_13">
      <!-- 7.98 -->
      <g transform="translate(20.878125 146.753519) scale(0.1 -0.1)">
       <defs>
        <path id="DejaVuSans-38" d="M 2034 2216 
Q 1584 2216 1326 1975 
Q 1069 1734 1069 1313 
Q 1069 891 1326 650 
Q 1584 409 2034 409 
Q 2484 409 2743 651 
Q 3003 894 3003 1313 
Q 3003 1734 2745 1975 
Q 2488 2216 2034 2216 
z
M 1403 2484 
Q 997 2584 770 2862 
Q 544 3141 544 3541 
Q 544 4100 942 4425 
Q 1341 4750 2034 4750 
Q 2731 4750 3128 4425 
Q 3525 4100 3525 3541 
Q 3525 3141 3298 2862 
Q 3072 2584 2669 2484 
Q 3125 2378 3379 2068 
Q 3634 1759 3634 1313 
Q 3634 634 3220 271 
Q 2806 -91 2034 -91 
Q 1263 -91 848 271 
Q 434 634 434 1313 
Q 434 1759 690 2068 
Q 947 2378 1403 2484 
z
M 1172 3481 
Q 1172 3119 1398 2916 
Q 1625 2713 2034 2713 
Q 2441 2713 2670 2916 
Q 2900 3119 2900 3481 
Q 2900 3844 2670 4047 
Q 2441 4250 2034 4250 
Q 1625 4250 1398 4047 
Q 1172 3844 1172 3481 
z
" transform="scale(0.015625)"/>
       </defs>
       <use xlink:href="#DejaVuSans-37"/>
       <use xlink:href="#DejaVuSans-2e" x="63.623047"/>
       <use xlink:href="#DejaVuSans-39" x="95.410156"/>
       <use xlink:href="#DejaVuSans-38" x="159.033203"/>
      </g>
     </g>
    </g>
    <g id="ytick_5">
     <g id="line2d_13">
      <g>
       <use xlink:href="#m1907a94d3a" x="50.14375" y="104.881662" style="stroke: #000000; stroke-width: 0.8"/>
      </g>
     </g>
     <g id="text_14">
      <!-- 8.00 -->
      <g transform="translate(20.878125 108.680881) scale(0.1 -0.1)">
       <use xlink:href="#DejaVuSans-38"/>
       <use xlink:href="#DejaVuSans-2e" x="63.623047"/>
       <use xlink:href="#DejaVuSans-30" x="95.410156"/>
       <use xlink:href="#DejaVuSans-30" x="159.033203"/>
      </g>
     </g>
    </g>
    <g id="ytick_6">
     <g id="line2d_14">
      <g>
       <use xlink:href="#m1907a94d3a" x="50.14375" y="66.809025" style="stroke: #000000; stroke-width: 0.8"/>
      </g>
     </g>
     <g id="text_15">
      <!-- 8.02 -->
      <g transform="translate(20.878125 70.608243) scale(0.1 -0.1)">
       <use xlink:href="#DejaVuSans-38"/>
       <use xlink:href="#DejaVuSans-2e" x="63.623047"/>
       <use xlink:href="#DejaVuSans-30" x="95.410156"/>
       <use xlink:href="#DejaVuSans-32" x="159.033203"/>
      </g>
     </g>
    </g>
    <g id="ytick_7">
     <g id="line2d_15">
      <g>
       <use xlink:href="#m1907a94d3a" x="50.14375" y="28.736387" style="stroke: #000000; stroke-width: 0.8"/>
      </g>
     </g>
     <g id="text_16">
      <!-- 8.04 -->
      <g transform="translate(20.878125 32.535606) scale(0.1 -0.1)">
       <use xlink:href="#DejaVuSans-38"/>
       <use xlink:href="#DejaVuSans-2e" x="63.623047"/>
       <use xlink:href="#DejaVuSans-30" x="95.410156"/>
       <use xlink:href="#DejaVuSans-34" x="159.033203"/>
      </g>
     </g>
    </g>
    <g id="text_17">
     <!-- Wavelength -->
     <g transform="translate(14.798438 185.036625) rotate(-90) scale(0.1 -0.1)">
      <defs>
       <path id="DejaVuSans-57" d="M 213 4666 
L 850 4666 
L 1831 722 
L 2809 4666 
L 3519 4666 
L 4500 722 
L 5478 4666 
L 6119 4666 
L 4947 0 
L 4153 0 
L 3169 4050 
L 2175 0 
L 1381 0 
L 213 4666 
z
" transform="scale(0.015625)"/>
       <path id="DejaVuSans-76" d="M 191 3500 
L 800 3500 
L 1894 563 
L 2988 3500 
L 3597 3500 
L 2284 0 
L 1503 0 
L 191 3500 
z
" transform="scale(0.015625)"/>
       <path id="DejaVuSans-67" d="M 2906 1791 
Q 2906 2416 2648 2759 
Q 2391 3103 1925 3103 
Q 1463 3103 1205 2759 
Q 947 2416 947 1791 
Q 947 1169 1205 825 
Q 1463 481 1925 481 
Q 2391 481 2648 825 
Q 2906 1169 2906 1791 
z
M 3481 434 
Q 3481 -459 3084 -895 
Q 2688 -1331 1869 -1331 
Q 1566 -1331 1297 -1286 
Q 1028 -1241 775 -1147 
L 775 -588 
Q 1028 -725 1275 -790 
Q 1522 -856 1778 -856 
Q 2344 -856 2625 -561 
Q 2906 -266 2906 331 
L 2906 616 
Q 2728 306 2450 153 
Q 2172 0 1784 0 
Q 1141 0 747 490 
Q 353 981 353 1791 
Q 353 2603 747 3093 
Q 1141 3584 1784 3584 
Q 2172 3584 2450 3431 
Q 2728 3278 2906 2969 
L 2906 3500 
L 3481 3500 
L 3481 434 
z
" transform="scale(0.015625)"/>
       <path id="DejaVuSans-74" d="M 1172 4494 
L 1172 3500 
L 2356 3500 
L 2356 3053 
L 1172 3053 
L 1172 1153 
Q 1172 725 1289 603 
Q 1406 481 1766 481 
L 2356 481 
L 2356 0 
L 1766 0 
Q 1100 0 847 248 
Q 594 497 594 1153 
L 594 3053 
L 172 3053 
L 172 3500 
L 594 3500 
L 594 4494 
L 1172 4494 
z
" transform="scale(0.015625)"/>
      </defs>
      <use xlink:href="#DejaVuSans-57"/>
      <use xlink:href="#DejaVuSans-61" x="92.501953"/>
      <use xlink:href="#DejaVuSans-76" x="153.78125"/>
      <use xlink:href="#DejaVuSans-65" x="212.960938"/>
      <use xlink:href="#DejaVuSans-6c" x="274.484375"/>
      <use xlink:href="#DejaVuSans-65" x="302.267578"/>
      <use xlink:href="#DejaVuSans-6e" x="363.791016"/>
      <use xlink:href="#DejaVuSans-67" x="427.169922"/>
      <use xlink:href="#DejaVuSans-74" x="490.646484"/>
      <use xlink:href="#DejaVuSans-68" x="529.855469"/>
     </g>
    </g>
   </g>
   <g id="line2d_16">
    <path d="M 66.376477 155.987365 
L 77.549951 150.503178 
L 88.723425 145.271634 
L 99.896899 140.292732 
L 111.070372 135.566472 
L 122.243846 131.092854 
L 133.41732 126.871879 
L 144.590793 122.903546 
L 155.019369 119.427707 
L 165.447944 116.171949 
L 175.87652 113.136269 
L 186.305095 110.320669 
L 196.733671 107.725149 
L 207.162246 105.349708 
L 217.590822 103.194346 
L 228.019397 101.259064 
L 238.447973 99.543861 
L 248.876548 98.048738 
L 259.305124 96.773694 
L 269.733699 95.718729 
L 280.162275 94.883844 
L 290.59085 94.269039 
L 301.019426 93.874313 
L 311.448001 93.699666 
L 321.876577 93.745099 
L 332.305152 94.010611 
L 342.733728 94.496202 
L 353.162303 95.201874 
L 363.590879 96.127624 
L 363.590879 96.127624 
" clip-path="url(#p470cbea7ad)" style="fill: none; stroke: #66c2a5; stroke-width: 1.5; stroke-linecap: square"/>
   </g>
   <g id="line2d_17">
    <path d="M 66.376477 188.24691 
L 76.088489 180.89928 
L 85.800501 173.84651 
L 95.512513 167.088597 
L 104.41519 161.15287 
L 113.317867 155.464906 
L 122.220545 150.024704 
L 131.123222 144.832267 
L 140.0259 139.887592 
L 148.928577 135.190681 
L 157.831255 130.741532 
L 166.733932 126.540148 
L 175.63661 122.586526 
L 184.539287 118.880668 
L 193.441964 115.422572 
L 202.344642 112.21224 
L 211.247319 109.249672 
L 220.149997 106.534866 
L 229.052674 104.067824 
L 237.955352 101.848545 
L 246.858029 99.877029 
L 255.760707 98.153277 
L 264.663384 96.677288 
L 272.756727 95.550481 
L 280.85007 94.628436 
L 288.943413 93.911155 
L 297.036757 93.398637 
L 305.1301 93.090882 
L 313.223443 92.98789 
L 321.316786 93.08966 
L 329.410129 93.396194 
L 337.503472 93.907491 
L 345.596815 94.623551 
L 353.690158 95.544374 
L 361.783502 96.66996 
L 369.876845 98.000309 
L 378.779522 99.700194 
L 387.6822 101.647842 
L 389.300868 102.028579 
L 389.300868 102.028579 
" clip-path="url(#p470cbea7ad)" style="fill: none; stroke: #fc8d62; stroke-width: 1.5; stroke-linecap: square"/>
   </g>
   <g id="line2d_18">
    <path d="M 66.376477 217.37042 
L 72.985007 208.201337 
L 79.593536 199.416092 
L 86.202065 191.014687 
L 92.302246 183.600228 
L 98.402427 176.512827 
L 104.502608 169.752484 
L 110.602789 163.319198 
L 116.70297 157.21297 
L 122.803151 151.4338 
L 128.903331 145.981688 
L 134.495164 141.27123 
L 140.086996 136.835591 
L 145.678829 132.674771 
L 151.270661 128.788771 
L 156.862494 125.17759 
L 162.454326 121.841229 
L 168.046159 118.779687 
L 173.637991 115.992964 
L 178.721475 113.69806 
L 183.80496 111.630278 
L 188.888444 109.789621 
L 193.971928 108.176086 
L 199.055412 106.789675 
L 204.138896 105.630388 
L 209.22238 104.698224 
L 214.305864 103.993184 
L 219.389348 103.515266 
L 224.472832 103.264473 
L 229.556316 103.240803 
L 234.6398 103.444256 
L 239.723284 103.874833 
L 244.806768 104.532533 
L 249.890253 105.417356 
L 254.973737 106.529304 
L 260.057221 107.868374 
L 265.140705 109.434568 
L 269.207492 110.851052 
L 269.207492 110.851052 
" clip-path="url(#p470cbea7ad)" style="fill: none; stroke: #8da0cb; stroke-width: 1.5; stroke-linecap: square"/>
   </g>
   <g id="line2d_19">
    <path d="M 66.376477 164.618892 
L 78.989014 159.718728 
L 91.601551 155.067181 
L 104.214088 150.664249 
L 116.125928 146.734207 
L 128.037769 143.025924 
L 139.949609 139.5394 
L 151.861449 136.274636 
L 163.77329 133.231631 
L 175.68513 130.410386 
L 187.596971 127.8109 
L 199.508811 125.433174 
L 211.420651 123.277207 
L 223.332492 121.342999 
L 235.244332 119.630551 
L 247.156172 118.139863 
L 259.068013 116.870933 
L 270.979853 115.823764 
L 282.891694 114.998353 
L 294.803534 114.394702 
L 306.715374 114.012811 
L 318.627215 113.852679 
L 330.539055 113.914306 
L 342.450896 114.197693 
L 345.954378 114.323245 
L 345.954378 114.323245 
" clip-path="url(#p470cbea7ad)" style="fill: none; stroke: #e78ac3; stroke-width: 1.5; stroke-linecap: square"/>
   </g>
   <g id="line2d_20">
    <path d="M 66.376477 34.414125 
L 73.566551 41.799647 
L 80.756625 48.882039 
L 87.946698 55.661299 
L 95.136772 62.137429 
L 102.326845 68.310427 
L 109.516919 74.180295 
L 116.706993 79.747031 
L 123.897066 85.010637 
L 130.433497 89.532685 
L 136.969927 93.804212 
L 143.506358 97.825218 
L 150.042788 101.595702 
L 156.579219 105.115664 
L 163.11565 108.385105 
L 169.65208 111.404025 
L 176.188511 114.172423 
L 182.724941 116.690299 
L 189.261372 118.957654 
L 195.797802 120.974488 
L 202.334233 122.7408 
L 208.870664 124.256591 
L 215.407094 125.52186 
L 221.943525 126.536608 
L 227.826312 127.235685 
L 233.7091 127.73184 
L 239.591887 128.025072 
L 245.474675 128.115382 
L 251.357462 128.00277 
L 257.24025 127.687235 
L 263.123037 127.168778 
L 269.005825 126.447398 
L 274.888612 125.523096 
L 281.425043 124.258099 
L 287.961473 122.742579 
L 294.497904 120.976539 
L 301.034335 118.959977 
L 307.570765 116.692893 
L 314.107196 114.175288 
L 320.643626 111.407162 
L 327.180057 108.388514 
L 327.180057 108.388514 
" clip-path="url(#p470cbea7ad)" style="fill: none; stroke: #a6d854; stroke-width: 1.5; stroke-linecap: square"/>
   </g>
   <g id="line2d_21">
    <path d="M 66.376477 201.463652 
L 75.536629 194.882233 
L 84.696781 188.561409 
L 93.856933 182.50118 
L 103.017086 176.701546 
L 112.177238 171.162507 
L 121.33739 165.884062 
L 130.497542 160.866213 
L 139.657694 156.108959 
L 148.817846 151.612299 
L 157.977998 147.376235 
L 167.13815 143.400765 
L 175.644006 139.942597 
L 184.149861 136.709125 
L 192.655716 133.70035 
L 201.161572 130.916271 
L 209.667427 128.356889 
L 218.173283 126.022204 
L 226.679138 123.912215 
L 235.184994 122.026923 
L 243.690849 120.366328 
L 252.196705 118.930429 
L 260.70256 117.719227 
L 269.208416 116.732722 
L 277.714271 115.970913 
L 286.220127 115.433801 
L 294.725982 115.121386 
L 303.231838 115.033667 
L 311.737693 115.170645 
L 320.243549 115.53232 
L 327.440811 116.013855 
L 327.440811 116.013855 
" clip-path="url(#p470cbea7ad)" style="fill: none; stroke: #ffd92f; stroke-width: 1.5; stroke-linecap: square"/>
   </g>
   <g id="line2d_22">
    <path d="M 66.376477 219.293237 
L 75.16742 211.728629 
L 83.958363 204.442352 
L 92.749306 197.434409 
L 101.540248 190.704798 
L 110.331191 184.253519 
L 119.122134 178.080573 
L 127.913076 172.18596 
L 136.704019 166.569679 
L 145.494962 161.231731 
L 154.285905 156.172115 
L 162.344269 151.778641 
L 170.402633 147.619044 
L 178.460997 143.693324 
L 186.519361 140.00148 
L 194.577726 136.543513 
L 202.63609 133.319422 
L 210.694454 130.329209 
L 218.752818 127.572871 
L 226.811182 125.050411 
L 234.869547 122.761827 
L 242.927911 120.70712 
L 250.986275 118.886289 
L 259.044639 117.299335 
L 267.103003 115.946258 
L 275.161367 114.827058 
L 283.219732 113.941734 
L 291.278096 113.290286 
L 299.33646 112.872716 
L 307.394824 112.689022 
L 315.453188 112.739205 
L 323.511553 113.023264 
L 331.569917 113.5412 
L 339.628281 114.293013 
L 347.686645 115.278702 
L 355.745009 116.498268 
L 358.675323 116.999732 
L 358.675323 116.999732 
" clip-path="url(#p470cbea7ad)" style="fill: none; stroke: #e5c494; stroke-width: 1.5; stroke-linecap: square"/>
   </g>
   <g id="line2d_23">
    <path d="M 66.376477 197.764497 
L 76.140524 191.264804 
L 85.90457 185.014993 
L 95.668617 179.015065 
L 105.432663 173.26502 
L 115.19671 167.764857 
L 124.960756 162.514577 
L 134.724803 157.51418 
L 144.488849 152.763665 
L 154.252896 148.263034 
L 164.016942 144.012284 
L 173.780989 140.011418 
L 183.545035 136.260434 
L 193.309082 132.759333 
L 203.073128 129.508114 
L 212.837174 126.506778 
L 222.601221 123.755325 
L 232.365267 121.253754 
L 241.315643 119.180163 
L 250.266019 117.316542 
L 259.216395 115.662893 
L 268.166771 114.219214 
L 277.117147 112.985506 
L 286.067523 111.961769 
L 295.017899 111.148003 
L 303.968275 110.544207 
L 312.918651 110.150383 
L 321.869027 109.966529 
L 330.819403 109.992647 
L 339.769779 110.228735 
L 348.720155 110.674794 
L 357.670531 111.330823 
L 366.620907 112.196824 
L 375.571282 113.272795 
L 384.521658 114.558738 
L 391.031023 115.625851 
L 391.031023 115.625851 
" clip-path="url(#p470cbea7ad)" style="fill: none; stroke: #b3b3b3; stroke-width: 1.5; stroke-linecap: square"/>
   </g>
   <g id="line2d_24">
    <path d="M 66.376477 191.981183 
L 74.141931 185.325941 
L 81.907385 178.974312 
L 89.672839 172.926297 
L 96.883617 167.582141 
L 104.094396 162.499774 
L 111.305175 157.679196 
L 118.515953 153.120407 
L 125.726732 148.823407 
L 132.93751 144.788196 
L 140.148289 141.014775 
L 147.359068 137.503142 
L 154.569846 134.253298 
L 161.780625 131.265244 
L 168.436728 128.739397 
L 175.092831 126.436613 
L 181.748935 124.356892 
L 188.405038 122.500233 
L 195.061141 120.866638 
L 201.717245 119.456105 
L 208.373348 118.268636 
L 215.029451 117.304229 
L 221.685554 116.562885 
L 228.341658 116.044604 
L 234.997761 115.749386 
L 241.653864 115.67723 
L 248.309968 115.828138 
L 254.966071 116.202108 
L 261.622174 116.799142 
L 268.278278 117.619238 
L 274.934381 118.662397 
L 281.590484 119.928619 
L 287.691912 121.285277 
L 287.691912 121.285277 
" clip-path="url(#p470cbea7ad)" style="fill: none; stroke: #66c2a5; stroke-width: 1.5; stroke-linecap: square"/>
   </g>
   <g id="line2d_25">
    <path d="M 66.376477 273.853734 
L 73.053962 262.229843 
L 79.731447 251.063425 
L 86.408932 240.35448 
L 92.52996 230.939825 
L 98.650988 221.909575 
L 104.772016 213.26373 
L 110.893044 205.00229 
L 117.014072 197.125254 
L 123.1351 189.632623 
L 128.699671 183.154715 
L 134.264242 176.994496 
L 139.828813 171.151968 
L 145.393383 165.627129 
L 150.957954 160.419981 
L 156.522525 155.530522 
L 162.087096 150.958753 
L 167.09521 147.115786 
L 172.103324 143.530148 
L 177.111437 140.201838 
L 182.119551 137.130858 
L 187.127665 134.317206 
L 192.135779 131.760883 
L 197.143892 129.461889 
L 202.152006 127.420223 
L 207.16012 125.635887 
L 212.168234 124.108879 
L 217.176348 122.8392 
L 221.628004 121.926626 
L 226.079661 121.217373 
L 230.531318 120.711442 
L 234.982974 120.408832 
L 239.434631 120.309544 
L 243.886288 120.413578 
L 248.337944 120.720933 
L 252.789601 121.231609 
L 257.241258 121.945607 
L 261.692914 122.862927 
L 266.144571 123.983568 
L 271.152685 125.487322 
L 276.160799 127.248404 
L 281.168912 129.266816 
L 286.177026 131.542557 
L 288.402854 132.636596 
L 288.402854 132.636596 
" clip-path="url(#p470cbea7ad)" style="fill: none; stroke: #fc8d62; stroke-width: 1.5; stroke-linecap: square"/>
   </g>
   <g id="line2d_26">
    <path d="M 66.376477 276.334125 
L 73.035583 264.59025 
L 79.182449 254.18564 
L 85.329316 244.199484 
L 91.476183 234.631781 
L 97.623049 225.482532 
L 103.769916 216.751737 
L 109.404543 209.116108 
L 115.039171 201.832097 
L 120.673799 194.899703 
L 126.308427 188.318926 
L 131.943054 182.089767 
L 137.577682 176.212225 
L 142.700071 171.174128 
L 147.82246 166.426624 
L 152.944849 161.969712 
L 158.067237 157.803394 
L 163.189626 153.927668 
L 168.312015 150.342535 
L 173.434404 147.047995 
L 178.044554 144.331366 
L 182.654704 141.850117 
L 187.264854 139.604249 
L 191.875004 137.593761 
L 196.485154 135.818653 
L 201.095304 134.278925 
L 205.705454 132.974577 
L 210.315604 131.90561 
L 214.925753 131.072023 
L 219.535903 130.473816 
L 224.146053 130.11099 
L 228.756203 129.983544 
L 233.366353 130.091478 
L 237.976503 130.434792 
L 242.586653 131.013486 
L 247.196803 131.827561 
L 251.806953 132.877016 
L 256.417103 134.161851 
L 261.027253 135.682067 
L 265.637403 137.437662 
L 270.247553 139.428638 
L 270.759792 139.664388 
L 270.759792 139.664388 
" clip-path="url(#p470cbea7ad)" style="fill: none; stroke: #8da0cb; stroke-width: 1.5; stroke-linecap: square"/>
   </g>
   <g id="line2d_27">
    <path d="M 66.376477 170.569256 
L 81.528372 168.376075 
L 96.680267 166.403282 
L 111.832162 164.650877 
L 126.984057 163.118858 
L 142.135952 161.807228 
L 157.287847 160.715985 
L 172.439742 159.845129 
L 187.591637 159.194661 
L 202.743532 158.764581 
L 217.895428 158.554888 
L 233.047323 158.565582 
L 248.199218 158.796664 
L 263.351113 159.248134 
L 278.503008 159.919991 
L 293.654903 160.812236 
L 308.806798 161.924868 
L 318.276732 162.732179 
L 318.276732 162.732179 
" clip-path="url(#p470cbea7ad)" style="fill: none; stroke: #e78ac3; stroke-width: 1.5; stroke-linecap: square"/>
   </g>
   <g id="line2d_28"/>
   <g id="line2d_29"/>
   <g id="line2d_30"/>
   <g id="line2d_31"/>
   <g id="line2d_32"/>
   <g id="line2d_33"/>
   <g id="line2d_34"/>
   <g id="line2d_35"/>
   <g id="line2d_36"/>
   <g id="line2d_37"/>
   <g id="line2d_38"/>
   <g id="line2d_39"/>
   <g id="line2d_40">
    <path d="M 149.549978 120.559441 
L 220.893811 104.532194 
L 293.450523 92.147203 
L 363.590879 96.808474 
" clip-path="url(#p470cbea7ad)" style="fill: none; stroke: #66c2a5; stroke-width: 1.5; stroke-linecap: square"/>
    <defs>
     <path id="m0214867be2" d="M 0 3 
C 0.795609 3 1.55874 2.683901 2.12132 2.12132 
C 2.683901 1.55874 3 0.795609 3 0 
C 3 -0.795609 2.683901 -1.55874 2.12132 -2.12132 
C 1.55874 -2.683901 0.795609 -3 0 -3 
C -0.795609 -3 -1.55874 -2.683901 -2.12132 -2.12132 
C -2.683901 -1.55874 -3 -0.795609 -3 0 
C -3 0.795609 -2.683901 1.55874 -2.12132 2.12132 
C -1.55874 2.683901 -0.795609 3 0 3 
z
" style="stroke: #ffffff; stroke-width: 0.75"/>
    </defs>
    <g clip-path="url(#p470cbea7ad)">
     <use xlink:href="#m0214867be2" x="149.549978" y="120.559441" style="fill: #66c2a5; stroke: #ffffff; stroke-width: 0.75"/>
     <use xlink:href="#m0214867be2" x="220.893811" y="104.532194" style="fill: #66c2a5; stroke: #ffffff; stroke-width: 0.75"/>
     <use xlink:href="#m0214867be2" x="293.450523" y="92.147203" style="fill: #66c2a5; stroke: #ffffff; stroke-width: 0.75"/>
     <use xlink:href="#m0214867be2" x="363.590879" y="96.808474" style="fill: #66c2a5; stroke: #ffffff; stroke-width: 0.75"/>
    </g>
   </g>
   <g id="line2d_41">
    <path d="M 131.959944 149.523924 
L 195.731062 100.649356 
L 268.185361 109.077267 
L 339.423099 90.076165 
L 389.300868 101.852889 
" clip-path="url(#p470cbea7ad)" style="fill: none; stroke: #fc8d62; stroke-width: 1.5; stroke-linecap: square"/>
    <defs>
     <path id="md2bcc8beb0" d="M 0 3 
C 0.795609 3 1.55874 2.683901 2.12132 2.12132 
C 2.683901 1.55874 3 0.795609 3 0 
C 3 -0.795609 2.683901 -1.55874 2.12132 -2.12132 
C 1.55874 -2.683901 0.795609 -3 0 -3 
C -0.795609 -3 -1.55874 -2.683901 -2.12132 -2.12132 
C -2.683901 -1.55874 -3 -0.795609 -3 0 
C -3 0.795609 -2.683901 1.55874 -2.12132 2.12132 
C -1.55874 2.683901 -0.795609 3 0 3 
z
" style="stroke: #ffffff; stroke-width: 0.75"/>
    </defs>
    <g clip-path="url(#p470cbea7ad)">
     <use xlink:href="#md2bcc8beb0" x="131.959944" y="149.523924" style="fill: #fc8d62; stroke: #ffffff; stroke-width: 0.75"/>
     <use xlink:href="#md2bcc8beb0" x="195.731062" y="100.649356" style="fill: #fc8d62; stroke: #ffffff; stroke-width: 0.75"/>
     <use xlink:href="#md2bcc8beb0" x="268.185361" y="109.077267" style="fill: #fc8d62; stroke: #ffffff; stroke-width: 0.75"/>
     <use xlink:href="#md2bcc8beb0" x="339.423099" y="90.076165" style="fill: #fc8d62; stroke: #ffffff; stroke-width: 0.75"/>
     <use xlink:href="#md2bcc8beb0" x="389.300868" y="101.852889" style="fill: #fc8d62; stroke: #ffffff; stroke-width: 0.75"/>
    </g>
   </g>
   <g id="line2d_42">
    <path d="M 148.197927 130.890128 
L 212.292919 104.245202 
L 269.207492 110.851052 
" clip-path="url(#p470cbea7ad)" style="fill: none; stroke: #8da0cb; stroke-width: 1.5; stroke-linecap: square"/>
    <defs>
     <path id="mdcc648e39b" d="M 0 3 
C 0.795609 3 1.55874 2.683901 2.12132 2.12132 
C 2.683901 1.55874 3 0.795609 3 0 
C 3 -0.795609 2.683901 -1.55874 2.12132 -2.12132 
C 1.55874 -2.683901 0.795609 -3 0 -3 
C -0.795609 -3 -1.55874 -2.683901 -2.12132 -2.12132 
C -2.683901 -1.55874 -3 -0.795609 -3 0 
C -3 0.795609 -2.683901 1.55874 -2.12132 2.12132 
C -1.55874 2.683901 -0.795609 3 0 3 
z
" style="stroke: #ffffff; stroke-width: 0.75"/>
    </defs>
    <g clip-path="url(#p470cbea7ad)">
     <use xlink:href="#mdcc648e39b" x="148.197927" y="130.890128" style="fill: #8da0cb; stroke: #ffffff; stroke-width: 0.75"/>
     <use xlink:href="#mdcc648e39b" x="212.292919" y="104.245202" style="fill: #8da0cb; stroke: #ffffff; stroke-width: 0.75"/>
     <use xlink:href="#mdcc648e39b" x="269.207492" y="110.851052" style="fill: #8da0cb; stroke: #ffffff; stroke-width: 0.75"/>
    </g>
   </g>
   <g id="line2d_43">
    <path d="M 149.965965 140.073343 
L 214.441177 113.142073 
L 281.67291 124.733687 
L 345.271018 112.865209 
L 345.954378 112.423871 
" clip-path="url(#p470cbea7ad)" style="fill: none; stroke: #e78ac3; stroke-width: 1.5; stroke-linecap: square"/>
    <defs>
     <path id="m9590709e60" d="M 0 3 
C 0.795609 3 1.55874 2.683901 2.12132 2.12132 
C 2.683901 1.55874 3 0.795609 3 0 
C 3 -0.795609 2.683901 -1.55874 2.12132 -2.12132 
C 1.55874 -2.683901 0.795609 -3 0 -3 
C -0.795609 -3 -1.55874 -2.683901 -2.12132 -2.12132 
C -2.683901 -1.55874 -3 -0.795609 -3 0 
C -3 0.795609 -2.683901 1.55874 -2.12132 2.12132 
C -1.55874 2.683901 -0.795609 3 0 3 
z
" style="stroke: #ffffff; stroke-width: 0.75"/>
    </defs>
    <g clip-path="url(#p470cbea7ad)">
     <use xlink:href="#m9590709e60" x="149.965965" y="140.073343" style="fill: #e78ac3; stroke: #ffffff; stroke-width: 0.75"/>
     <use xlink:href="#m9590709e60" x="214.441177" y="113.142073" style="fill: #e78ac3; stroke: #ffffff; stroke-width: 0.75"/>
     <use xlink:href="#m9590709e60" x="281.67291" y="124.733687" style="fill: #e78ac3; stroke: #ffffff; stroke-width: 0.75"/>
     <use xlink:href="#m9590709e60" x="345.271018" y="112.865209" style="fill: #e78ac3; stroke: #ffffff; stroke-width: 0.75"/>
     <use xlink:href="#m9590709e60" x="345.954378" y="112.423871" style="fill: #e78ac3; stroke: #ffffff; stroke-width: 0.75"/>
    </g>
   </g>
   <g id="line2d_44">
    <path d="M 189.817468 119.138989 
L 265.592161 126.890712 
L 327.180057 108.388514 
" clip-path="url(#p470cbea7ad)" style="fill: none; stroke: #a6d854; stroke-width: 1.5; stroke-linecap: square"/>
    <defs>
     <path id="m56d1200a19" d="M 0 3 
C 0.795609 3 1.55874 2.683901 2.12132 2.12132 
C 2.683901 1.55874 3 0.795609 3 0 
C 3 -0.795609 2.683901 -1.55874 2.12132 -2.12132 
C 1.55874 -2.683901 0.795609 -3 0 -3 
C -0.795609 -3 -1.55874 -2.683901 -2.12132 -2.12132 
C -2.683901 -1.55874 -3 -0.795609 -3 0 
C -3 0.795609 -2.683901 1.55874 -2.12132 2.12132 
C -1.55874 2.683901 -0.795609 3 0 3 
z
" style="stroke: #ffffff; stroke-width: 0.75"/>
    </defs>
    <g clip-path="url(#p470cbea7ad)">
     <use xlink:href="#m56d1200a19" x="189.817468" y="119.138989" style="fill: #a6d854; stroke: #ffffff; stroke-width: 0.75"/>
     <use xlink:href="#m56d1200a19" x="265.592161" y="126.890712" style="fill: #a6d854; stroke: #ffffff; stroke-width: 0.75"/>
     <use xlink:href="#m56d1200a19" x="327.180057" y="108.388514" style="fill: #a6d854; stroke: #ffffff; stroke-width: 0.75"/>
    </g>
   </g>
   <g id="line2d_45">
    <path d="M 138.969165 161.449188 
L 193.509461 121.449142 
L 271.107795 128.281201 
L 327.440811 111.245694 
" clip-path="url(#p470cbea7ad)" style="fill: none; stroke: #ffd92f; stroke-width: 1.5; stroke-linecap: square"/>
    <defs>
     <path id="m60327f0c26" d="M 0 3 
C 0.795609 3 1.55874 2.683901 2.12132 2.12132 
C 2.683901 1.55874 3 0.795609 3 0 
C 3 -0.795609 2.683901 -1.55874 2.12132 -2.12132 
C 1.55874 -2.683901 0.795609 -3 0 -3 
C -0.795609 -3 -1.55874 -2.683901 -2.12132 -2.12132 
C -2.683901 -1.55874 -3 -0.795609 -3 0 
C -3 0.795609 -2.683901 1.55874 -2.12132 2.12132 
C -1.55874 2.683901 -0.795609 3 0 3 
z
" style="stroke: #ffffff; stroke-width: 0.75"/>
    </defs>
    <g clip-path="url(#p470cbea7ad)">
     <use xlink:href="#m60327f0c26" x="138.969165" y="161.449188" style="fill: #ffd92f; stroke: #ffffff; stroke-width: 0.75"/>
     <use xlink:href="#m60327f0c26" x="193.509461" y="121.449142" style="fill: #ffd92f; stroke: #ffffff; stroke-width: 0.75"/>
     <use xlink:href="#m60327f0c26" x="271.107795" y="128.281201" style="fill: #ffd92f; stroke: #ffffff; stroke-width: 0.75"/>
     <use xlink:href="#m60327f0c26" x="327.440811" y="111.245694" style="fill: #ffd92f; stroke: #ffffff; stroke-width: 0.75"/>
    </g>
   </g>
   <g id="line2d_46">
    <path d="M 124.862578 180.359334 
L 186.090758 125.431978 
L 251.455397 126.126651 
L 300.81017 118.356616 
L 358.675323 112.72613 
" clip-path="url(#p470cbea7ad)" style="fill: none; stroke: #e5c494; stroke-width: 1.5; stroke-linecap: square"/>
    <defs>
     <path id="m4a3ab20cf5" d="M 0 3 
C 0.795609 3 1.55874 2.683901 2.12132 2.12132 
C 2.683901 1.55874 3 0.795609 3 0 
C 3 -0.795609 2.683901 -1.55874 2.12132 -2.12132 
C 1.55874 -2.683901 0.795609 -3 0 -3 
C -0.795609 -3 -1.55874 -2.683901 -2.12132 -2.12132 
C -2.683901 -1.55874 -3 -0.795609 -3 0 
C -3 0.795609 -2.683901 1.55874 -2.12132 2.12132 
C -1.55874 2.683901 -0.795609 3 0 3 
z
" style="stroke: #ffffff; stroke-width: 0.75"/>
    </defs>
    <g clip-path="url(#p470cbea7ad)">
     <use xlink:href="#m4a3ab20cf5" x="124.862578" y="180.359334" style="fill: #e5c494; stroke: #ffffff; stroke-width: 0.75"/>
     <use xlink:href="#m4a3ab20cf5" x="186.090758" y="125.431978" style="fill: #e5c494; stroke: #ffffff; stroke-width: 0.75"/>
     <use xlink:href="#m4a3ab20cf5" x="251.455397" y="126.126651" style="fill: #e5c494; stroke: #ffffff; stroke-width: 0.75"/>
     <use xlink:href="#m4a3ab20cf5" x="300.81017" y="118.356616" style="fill: #e5c494; stroke: #ffffff; stroke-width: 0.75"/>
     <use xlink:href="#m4a3ab20cf5" x="358.675323" y="112.72613" style="fill: #e5c494; stroke: #ffffff; stroke-width: 0.75"/>
    </g>
   </g>
   <g id="line2d_47">
    <path d="M 146.196813 156.369993 
L 203.32659 118.083635 
L 268.762626 123.67445 
L 327.675853 108.09979 
L 391.031023 114.873502 
" clip-path="url(#p470cbea7ad)" style="fill: none; stroke: #b3b3b3; stroke-width: 1.5; stroke-linecap: square"/>
    <defs>
     <path id="m9baedc02ff" d="M 0 3 
C 0.795609 3 1.55874 2.683901 2.12132 2.12132 
C 2.683901 1.55874 3 0.795609 3 0 
C 3 -0.795609 2.683901 -1.55874 2.12132 -2.12132 
C 1.55874 -2.683901 0.795609 -3 0 -3 
C -0.795609 -3 -1.55874 -2.683901 -2.12132 -2.12132 
C -2.683901 -1.55874 -3 -0.795609 -3 0 
C -3 0.795609 -2.683901 1.55874 -2.12132 2.12132 
C -1.55874 2.683901 -0.795609 3 0 3 
z
" style="stroke: #ffffff; stroke-width: 0.75"/>
    </defs>
    <g clip-path="url(#p470cbea7ad)">
     <use xlink:href="#m9baedc02ff" x="146.196813" y="156.369993" style="fill: #b3b3b3; stroke: #ffffff; stroke-width: 0.75"/>
     <use xlink:href="#m9baedc02ff" x="203.32659" y="118.083635" style="fill: #b3b3b3; stroke: #ffffff; stroke-width: 0.75"/>
     <use xlink:href="#m9baedc02ff" x="268.762626" y="123.67445" style="fill: #b3b3b3; stroke: #ffffff; stroke-width: 0.75"/>
     <use xlink:href="#m9baedc02ff" x="327.675853" y="108.09979" style="fill: #b3b3b3; stroke: #ffffff; stroke-width: 0.75"/>
     <use xlink:href="#m9baedc02ff" x="391.031023" y="114.873502" style="fill: #b3b3b3; stroke: #ffffff; stroke-width: 0.75"/>
    </g>
   </g>
   <g id="line2d_48">
    <path d="M 155.80469 133.723018 
L 216.552964 117.114858 
L 287.691912 121.285277 
" clip-path="url(#p470cbea7ad)" style="fill: none; stroke: #66c2a5; stroke-width: 1.5; stroke-linecap: square"/>
    <g clip-path="url(#p470cbea7ad)">
     <use xlink:href="#m0214867be2" x="155.80469" y="133.723018" style="fill: #66c2a5; stroke: #ffffff; stroke-width: 0.75"/>
     <use xlink:href="#m0214867be2" x="216.552964" y="117.114858" style="fill: #66c2a5; stroke: #ffffff; stroke-width: 0.75"/>
     <use xlink:href="#m0214867be2" x="287.691912" y="121.285277" style="fill: #66c2a5; stroke: #ffffff; stroke-width: 0.75"/>
    </g>
   </g>
   <g id="line2d_49">
    <path d="M 148.767848 162.4315 
L 214.527835 123.478604 
L 288.402854 132.636596 
" clip-path="url(#p470cbea7ad)" style="fill: none; stroke: #fc8d62; stroke-width: 1.5; stroke-linecap: square"/>
    <g clip-path="url(#p470cbea7ad)">
     <use xlink:href="#md2bcc8beb0" x="148.767848" y="162.4315" style="fill: #fc8d62; stroke: #ffffff; stroke-width: 0.75"/>
     <use xlink:href="#md2bcc8beb0" x="214.527835" y="123.478604" style="fill: #fc8d62; stroke: #ffffff; stroke-width: 0.75"/>
     <use xlink:href="#md2bcc8beb0" x="288.402854" y="132.636596" style="fill: #fc8d62; stroke: #ffffff; stroke-width: 0.75"/>
    </g>
   </g>
   <g id="line2d_50">
    <path d="M 118.837395 197.910972 
L 166.392046 149.365884 
L 214.578116 133.236354 
L 270.759792 139.05056 
" clip-path="url(#p470cbea7ad)" style="fill: none; stroke: #8da0cb; stroke-width: 1.5; stroke-linecap: square"/>
    <g clip-path="url(#p470cbea7ad)">
     <use xlink:href="#mdcc648e39b" x="118.837395" y="197.910972" style="fill: #8da0cb; stroke: #ffffff; stroke-width: 0.75"/>
     <use xlink:href="#mdcc648e39b" x="166.392046" y="149.365884" style="fill: #8da0cb; stroke: #ffffff; stroke-width: 0.75"/>
     <use xlink:href="#mdcc648e39b" x="214.578116" y="133.236354" style="fill: #8da0cb; stroke: #ffffff; stroke-width: 0.75"/>
     <use xlink:href="#mdcc648e39b" x="270.759792" y="139.05056" style="fill: #8da0cb; stroke: #ffffff; stroke-width: 0.75"/>
    </g>
   </g>
   <g id="line2d_51">
    <path d="M 118.634132 163.935864 
L 184.463093 159.310914 
L 318.276732 162.732179 
" clip-path="url(#p470cbea7ad)" style="fill: none; stroke: #e78ac3; stroke-width: 1.5; stroke-linecap: square"/>
    <g clip-path="url(#p470cbea7ad)">
     <use xlink:href="#m9590709e60" x="118.634132" y="163.935864" style="fill: #e78ac3; stroke: #ffffff; stroke-width: 0.75"/>
     <use xlink:href="#m9590709e60" x="184.463093" y="159.310914" style="fill: #e78ac3; stroke: #ffffff; stroke-width: 0.75"/>
     <use xlink:href="#m9590709e60" x="318.276732" y="162.732179" style="fill: #e78ac3; stroke: #ffffff; stroke-width: 0.75"/>
    </g>
   </g>
   <g id="line2d_52"/>
   <g id="line2d_53"/>
   <g id="line2d_54"/>
   <g id="line2d_55"/>
   <g id="line2d_56"/>
   <g id="line2d_57"/>
   <g id="line2d_58"/>
   <g id="line2d_59"/>
   <g id="line2d_60"/>
   <g id="line2d_61"/>
   <g id="line2d_62"/>
   <g id="line2d_63"/>
   <g id="patch_3">
    <path d="M 50.14375 288.430125 
L 50.14375 22.318125 
" style="fill: none; stroke: #000000; stroke-width: 0.8; stroke-linejoin: miter; stroke-linecap: square"/>
   </g>
   <g id="patch_4">
    <path d="M 407.26375 288.430125 
L 407.26375 22.318125 
" style="fill: none; stroke: #000000; stroke-width: 0.8; stroke-linejoin: miter; stroke-linecap: square"/>
   </g>
   <g id="patch_5">
    <path d="M 50.14375 288.430125 
L 407.26375 288.430125 
" style="fill: none; stroke: #000000; stroke-width: 0.8; stroke-linejoin: miter; stroke-linecap: square"/>
   </g>
   <g id="patch_6">
    <path d="M 50.14375 22.318125 
L 407.26375 22.318125 
" style="fill: none; stroke: #000000; stroke-width: 0.8; stroke-linejoin: miter; stroke-linecap: square"/>
   </g>
   <g id="text_18">
    <!-- Low Energy Peak - red triangles in Figure 1 -->
    <g transform="translate(100.52125 16.318125) scale(0.12 -0.12)">
     <defs>
      <path id="DejaVuSans-4c" d="M 628 4666 
L 1259 4666 
L 1259 531 
L 3531 531 
L 3531 0 
L 628 0 
L 628 4666 
z
" transform="scale(0.015625)"/>
      <path id="DejaVuSans-77" d="M 269 3500 
L 844 3500 
L 1563 769 
L 2278 3500 
L 2956 3500 
L 3675 769 
L 4391 3500 
L 4966 3500 
L 4050 0 
L 3372 0 
L 2619 2869 
L 1863 0 
L 1184 0 
L 269 3500 
z
" transform="scale(0.015625)"/>
      <path id="DejaVuSans-45" d="M 628 4666 
L 3578 4666 
L 3578 4134 
L 1259 4134 
L 1259 2753 
L 3481 2753 
L 3481 2222 
L 1259 2222 
L 1259 531 
L 3634 531 
L 3634 0 
L 628 0 
L 628 4666 
z
" transform="scale(0.015625)"/>
      <path id="DejaVuSans-79" d="M 2059 -325 
Q 1816 -950 1584 -1140 
Q 1353 -1331 966 -1331 
L 506 -1331 
L 506 -850 
L 844 -850 
Q 1081 -850 1212 -737 
Q 1344 -625 1503 -206 
L 1606 56 
L 191 3500 
L 800 3500 
L 1894 763 
L 2988 3500 
L 3597 3500 
L 2059 -325 
z
" transform="scale(0.015625)"/>
      <path id="DejaVuSans-50" d="M 1259 4147 
L 1259 2394 
L 2053 2394 
Q 2494 2394 2734 2622 
Q 2975 2850 2975 3272 
Q 2975 3691 2734 3919 
Q 2494 4147 2053 4147 
L 1259 4147 
z
M 628 4666 
L 2053 4666 
Q 2838 4666 3239 4311 
Q 3641 3956 3641 3272 
Q 3641 2581 3239 2228 
Q 2838 1875 2053 1875 
L 1259 1875 
L 1259 0 
L 628 0 
L 628 4666 
z
" transform="scale(0.015625)"/>
      <path id="DejaVuSans-2d" d="M 313 2009 
L 1997 2009 
L 1997 1497 
L 313 1497 
L 313 2009 
z
" transform="scale(0.015625)"/>
      <path id="DejaVuSans-64" d="M 2906 2969 
L 2906 4863 
L 3481 4863 
L 3481 0 
L 2906 0 
L 2906 525 
Q 2725 213 2448 61 
Q 2172 -91 1784 -91 
Q 1150 -91 751 415 
Q 353 922 353 1747 
Q 353 2572 751 3078 
Q 1150 3584 1784 3584 
Q 2172 3584 2448 3432 
Q 2725 3281 2906 2969 
z
M 947 1747 
Q 947 1113 1208 752 
Q 1469 391 1925 391 
Q 2381 391 2643 752 
Q 2906 1113 2906 1747 
Q 2906 2381 2643 2742 
Q 2381 3103 1925 3103 
Q 1469 3103 1208 2742 
Q 947 2381 947 1747 
z
" transform="scale(0.015625)"/>
      <path id="DejaVuSans-75" d="M 544 1381 
L 544 3500 
L 1119 3500 
L 1119 1403 
Q 1119 906 1312 657 
Q 1506 409 1894 409 
Q 2359 409 2629 706 
Q 2900 1003 2900 1516 
L 2900 3500 
L 3475 3500 
L 3475 0 
L 2900 0 
L 2900 538 
Q 2691 219 2414 64 
Q 2138 -91 1772 -91 
Q 1169 -91 856 284 
Q 544 659 544 1381 
z
M 1991 3584 
L 1991 3584 
z
" transform="scale(0.015625)"/>
     </defs>
     <use xlink:href="#DejaVuSans-4c"/>
     <use xlink:href="#DejaVuSans-6f" x="53.962891"/>
     <use xlink:href="#DejaVuSans-77" x="115.144531"/>
     <use xlink:href="#DejaVuSans-20" x="196.931641"/>
     <use xlink:href="#DejaVuSans-45" x="228.71875"/>
     <use xlink:href="#DejaVuSans-6e" x="291.902344"/>
     <use xlink:href="#DejaVuSans-65" x="355.28125"/>
     <use xlink:href="#DejaVuSans-72" x="416.804688"/>
     <use xlink:href="#DejaVuSans-67" x="456.167969"/>
     <use xlink:href="#DejaVuSans-79" x="519.644531"/>
     <use xlink:href="#DejaVuSans-20" x="578.824219"/>
     <use xlink:href="#DejaVuSans-50" x="610.611328"/>
     <use xlink:href="#DejaVuSans-65" x="667.289062"/>
     <use xlink:href="#DejaVuSans-61" x="728.8125"/>
     <use xlink:href="#DejaVuSans-6b" x="790.091797"/>
     <use xlink:href="#DejaVuSans-20" x="848.001953"/>
     <use xlink:href="#DejaVuSans-2d" x="879.789062"/>
     <use xlink:href="#DejaVuSans-20" x="915.873047"/>
     <use xlink:href="#DejaVuSans-72" x="947.660156"/>
     <use xlink:href="#DejaVuSans-65" x="986.523438"/>
     <use xlink:href="#DejaVuSans-64" x="1048.046875"/>
     <use xlink:href="#DejaVuSans-20" x="1111.523438"/>
     <use xlink:href="#DejaVuSans-74" x="1143.310547"/>
     <use xlink:href="#DejaVuSans-72" x="1182.519531"/>
     <use xlink:href="#DejaVuSans-69" x="1223.632812"/>
     <use xlink:href="#DejaVuSans-61" x="1251.416016"/>
     <use xlink:href="#DejaVuSans-6e" x="1312.695312"/>
     <use xlink:href="#DejaVuSans-67" x="1376.074219"/>
     <use xlink:href="#DejaVuSans-6c" x="1439.550781"/>
     <use xlink:href="#DejaVuSans-65" x="1467.333984"/>
     <use xlink:href="#DejaVuSans-73" x="1528.857422"/>
     <use xlink:href="#DejaVuSans-20" x="1580.957031"/>
     <use xlink:href="#DejaVuSans-69" x="1612.744141"/>
     <use xlink:href="#DejaVuSans-6e" x="1640.527344"/>
     <use xlink:href="#DejaVuSans-20" x="1703.90625"/>
     <use xlink:href="#DejaVuSans-46" x="1735.693359"/>
     <use xlink:href="#DejaVuSans-69" x="1785.962891"/>
     <use xlink:href="#DejaVuSans-67" x="1813.746094"/>
     <use xlink:href="#DejaVuSans-75" x="1877.222656"/>
     <use xlink:href="#DejaVuSans-72" x="1940.601562"/>
     <use xlink:href="#DejaVuSans-65" x="1979.464844"/>
     <use xlink:href="#DejaVuSans-20" x="2040.988281"/>
     <use xlink:href="#DejaVuSans-31" x="2072.775391"/>
    </g>
   </g>
   <g id="legend_1">
    <g id="patch_7">
     <path d="M 339.635625 397.27125 
L 400.26375 397.27125 
Q 402.26375 397.27125 402.26375 395.27125 
L 402.26375 29.318125 
Q 402.26375 27.318125 400.26375 27.318125 
L 339.635625 27.318125 
Q 337.635625 27.318125 337.635625 29.318125 
L 337.635625 395.27125 
Q 337.635625 397.27125 339.635625 397.27125 
z
" style="fill: #ffffff; opacity: 0.8; stroke: #cccccc; stroke-linejoin: miter"/>
    </g>
    <g id="text_19">
     <!-- temp -->
     <g transform="translate(356.868438 38.916562) scale(0.1 -0.1)">
      <defs>
       <path id="DejaVuSans-70" d="M 1159 525 
L 1159 -1331 
L 581 -1331 
L 581 3500 
L 1159 3500 
L 1159 2969 
Q 1341 3281 1617 3432 
Q 1894 3584 2278 3584 
Q 2916 3584 3314 3078 
Q 3713 2572 3713 1747 
Q 3713 922 3314 415 
Q 2916 -91 2278 -91 
Q 1894 -91 1617 61 
Q 1341 213 1159 525 
z
M 3116 1747 
Q 3116 2381 2855 2742 
Q 2594 3103 2138 3103 
Q 1681 3103 1420 2742 
Q 1159 2381 1159 1747 
Q 1159 1113 1420 752 
Q 1681 391 2138 391 
Q 2594 391 2855 752 
Q 3116 1113 3116 1747 
z
" transform="scale(0.015625)"/>
      </defs>
      <use xlink:href="#DejaVuSans-74"/>
      <use xlink:href="#DejaVuSans-65" x="39.208984"/>
      <use xlink:href="#DejaVuSans-6d" x="100.732422"/>
      <use xlink:href="#DejaVuSans-70" x="198.144531"/>
     </g>
    </g>
    <g id="line2d_64">
     <path d="M 341.635625 50.094687 
L 351.635625 50.094687 
L 361.635625 50.094687 
" style="fill: none; stroke: #66c2a5; stroke-width: 1.5; stroke-linecap: square"/>
    </g>
    <g id="text_20">
     <!-- 20.0 -->
     <g transform="translate(369.635625 53.594687) scale(0.1 -0.1)">
      <use xlink:href="#DejaVuSans-32"/>
      <use xlink:href="#DejaVuSans-30" x="63.623047"/>
      <use xlink:href="#DejaVuSans-2e" x="127.246094"/>
      <use xlink:href="#DejaVuSans-30" x="159.033203"/>
     </g>
    </g>
    <g id="line2d_65">
     <path d="M 341.635625 64.772812 
L 351.635625 64.772812 
L 361.635625 64.772812 
" style="fill: none; stroke: #fc8d62; stroke-width: 1.5; stroke-linecap: square"/>
    </g>
    <g id="text_21">
     <!-- 30.0 -->
     <g transform="translate(369.635625 68.272812) scale(0.1 -0.1)">
      <defs>
       <path id="DejaVuSans-33" d="M 2597 2516 
Q 3050 2419 3304 2112 
Q 3559 1806 3559 1356 
Q 3559 666 3084 287 
Q 2609 -91 1734 -91 
Q 1441 -91 1130 -33 
Q 819 25 488 141 
L 488 750 
Q 750 597 1062 519 
Q 1375 441 1716 441 
Q 2309 441 2620 675 
Q 2931 909 2931 1356 
Q 2931 1769 2642 2001 
Q 2353 2234 1838 2234 
L 1294 2234 
L 1294 2753 
L 1863 2753 
Q 2328 2753 2575 2939 
Q 2822 3125 2822 3475 
Q 2822 3834 2567 4026 
Q 2313 4219 1838 4219 
Q 1578 4219 1281 4162 
Q 984 4106 628 3988 
L 628 4550 
Q 988 4650 1302 4700 
Q 1616 4750 1894 4750 
Q 2613 4750 3031 4423 
Q 3450 4097 3450 3541 
Q 3450 3153 3228 2886 
Q 3006 2619 2597 2516 
z
" transform="scale(0.015625)"/>
      </defs>
      <use xlink:href="#DejaVuSans-33"/>
      <use xlink:href="#DejaVuSans-30" x="63.623047"/>
      <use xlink:href="#DejaVuSans-2e" x="127.246094"/>
      <use xlink:href="#DejaVuSans-30" x="159.033203"/>
     </g>
    </g>
    <g id="line2d_66">
     <path d="M 341.635625 79.450937 
L 351.635625 79.450937 
L 361.635625 79.450937 
" style="fill: none; stroke: #8da0cb; stroke-width: 1.5; stroke-linecap: square"/>
    </g>
    <g id="text_22">
     <!-- 40.0 -->
     <g transform="translate(369.635625 82.950937) scale(0.1 -0.1)">
      <use xlink:href="#DejaVuSans-34"/>
      <use xlink:href="#DejaVuSans-30" x="63.623047"/>
      <use xlink:href="#DejaVuSans-2e" x="127.246094"/>
      <use xlink:href="#DejaVuSans-30" x="159.033203"/>
     </g>
    </g>
    <g id="line2d_67">
     <path d="M 341.635625 94.129062 
L 351.635625 94.129062 
L 361.635625 94.129062 
" style="fill: none; stroke: #e78ac3; stroke-width: 1.5; stroke-linecap: square"/>
    </g>
    <g id="text_23">
     <!-- 50.0 -->
     <g transform="translate(369.635625 97.629062) scale(0.1 -0.1)">
      <use xlink:href="#DejaVuSans-35"/>
      <use xlink:href="#DejaVuSans-30" x="63.623047"/>
      <use xlink:href="#DejaVuSans-2e" x="127.246094"/>
      <use xlink:href="#DejaVuSans-30" x="159.033203"/>
     </g>
    </g>
    <g id="line2d_68">
     <path d="M 341.635625 108.807187 
L 351.635625 108.807187 
L 361.635625 108.807187 
" style="fill: none; stroke: #a6d854; stroke-width: 1.5; stroke-linecap: square"/>
    </g>
    <g id="text_24">
     <!-- 60.0 -->
     <g transform="translate(369.635625 112.307187) scale(0.1 -0.1)">
      <use xlink:href="#DejaVuSans-36"/>
      <use xlink:href="#DejaVuSans-30" x="63.623047"/>
      <use xlink:href="#DejaVuSans-2e" x="127.246094"/>
      <use xlink:href="#DejaVuSans-30" x="159.033203"/>
     </g>
    </g>
    <g id="line2d_69">
     <path d="M 341.635625 123.485312 
L 351.635625 123.485312 
L 361.635625 123.485312 
" style="fill: none; stroke: #ffd92f; stroke-width: 1.5; stroke-linecap: square"/>
    </g>
    <g id="text_25">
     <!-- 70.0 -->
     <g transform="translate(369.635625 126.985312) scale(0.1 -0.1)">
      <use xlink:href="#DejaVuSans-37"/>
      <use xlink:href="#DejaVuSans-30" x="63.623047"/>
      <use xlink:href="#DejaVuSans-2e" x="127.246094"/>
      <use xlink:href="#DejaVuSans-30" x="159.033203"/>
     </g>
    </g>
    <g id="line2d_70">
     <path d="M 341.635625 138.163437 
L 351.635625 138.163437 
L 361.635625 138.163437 
" style="fill: none; stroke: #e5c494; stroke-width: 1.5; stroke-linecap: square"/>
    </g>
    <g id="text_26">
     <!-- 80.0 -->
     <g transform="translate(369.635625 141.663437) scale(0.1 -0.1)">
      <use xlink:href="#DejaVuSans-38"/>
      <use xlink:href="#DejaVuSans-30" x="63.623047"/>
      <use xlink:href="#DejaVuSans-2e" x="127.246094"/>
      <use xlink:href="#DejaVuSans-30" x="159.033203"/>
     </g>
    </g>
    <g id="line2d_71">
     <path d="M 341.635625 152.841562 
L 351.635625 152.841562 
L 361.635625 152.841562 
" style="fill: none; stroke: #b3b3b3; stroke-width: 1.5; stroke-linecap: square"/>
    </g>
    <g id="text_27">
     <!-- 90.0 -->
     <g transform="translate(369.635625 156.341562) scale(0.1 -0.1)">
      <use xlink:href="#DejaVuSans-39"/>
      <use xlink:href="#DejaVuSans-30" x="63.623047"/>
      <use xlink:href="#DejaVuSans-2e" x="127.246094"/>
      <use xlink:href="#DejaVuSans-30" x="159.033203"/>
     </g>
    </g>
    <g id="line2d_72">
     <path d="M 341.635625 167.519687 
L 351.635625 167.519687 
L 361.635625 167.519687 
" style="fill: none; stroke: #66c2a5; stroke-width: 1.5; stroke-linecap: square"/>
    </g>
    <g id="text_28">
     <!-- 100.0 -->
     <g transform="translate(369.635625 171.019687) scale(0.1 -0.1)">
      <use xlink:href="#DejaVuSans-31"/>
      <use xlink:href="#DejaVuSans-30" x="63.623047"/>
      <use xlink:href="#DejaVuSans-30" x="127.246094"/>
      <use xlink:href="#DejaVuSans-2e" x="190.869141"/>
      <use xlink:href="#DejaVuSans-30" x="222.65625"/>
     </g>
    </g>
    <g id="line2d_73">
     <path d="M 341.635625 182.197812 
L 351.635625 182.197812 
L 361.635625 182.197812 
" style="fill: none; stroke: #fc8d62; stroke-width: 1.5; stroke-linecap: square"/>
    </g>
    <g id="text_29">
     <!-- 110.0 -->
     <g transform="translate(369.635625 185.697812) scale(0.1 -0.1)">
      <use xlink:href="#DejaVuSans-31"/>
      <use xlink:href="#DejaVuSans-31" x="63.623047"/>
      <use xlink:href="#DejaVuSans-30" x="127.246094"/>
      <use xlink:href="#DejaVuSans-2e" x="190.869141"/>
      <use xlink:href="#DejaVuSans-30" x="222.65625"/>
     </g>
    </g>
    <g id="line2d_74">
     <path d="M 341.635625 196.875937 
L 351.635625 196.875937 
L 361.635625 196.875937 
" style="fill: none; stroke: #8da0cb; stroke-width: 1.5; stroke-linecap: square"/>
    </g>
    <g id="text_30">
     <!-- 120.0 -->
     <g transform="translate(369.635625 200.375937) scale(0.1 -0.1)">
      <use xlink:href="#DejaVuSans-31"/>
      <use xlink:href="#DejaVuSans-32" x="63.623047"/>
      <use xlink:href="#DejaVuSans-30" x="127.246094"/>
      <use xlink:href="#DejaVuSans-2e" x="190.869141"/>
      <use xlink:href="#DejaVuSans-30" x="222.65625"/>
     </g>
    </g>
    <g id="line2d_75">
     <path d="M 341.635625 211.554062 
L 351.635625 211.554062 
L 361.635625 211.554062 
" style="fill: none; stroke: #e78ac3; stroke-width: 1.5; stroke-linecap: square"/>
    </g>
    <g id="text_31">
     <!-- 125.0 -->
     <g transform="translate(369.635625 215.054062) scale(0.1 -0.1)">
      <use xlink:href="#DejaVuSans-31"/>
      <use xlink:href="#DejaVuSans-32" x="63.623047"/>
      <use xlink:href="#DejaVuSans-35" x="127.246094"/>
      <use xlink:href="#DejaVuSans-2e" x="190.869141"/>
      <use xlink:href="#DejaVuSans-30" x="222.65625"/>
     </g>
    </g>
    <g id="line2d_76">
     <path d="M 341.635625 226.232187 
L 351.635625 226.232187 
L 361.635625 226.232187 
" style="fill: none; stroke: #66c2a5; stroke-width: 1.5; stroke-linecap: square"/>
     <g>
      <use xlink:href="#m0214867be2" x="351.635625" y="226.232187" style="fill: #66c2a5; stroke: #ffffff; stroke-width: 0.75"/>
     </g>
    </g>
    <g id="text_32">
     <!-- 20.0 -->
     <g transform="translate(369.635625 229.732187) scale(0.1 -0.1)">
      <use xlink:href="#DejaVuSans-32"/>
      <use xlink:href="#DejaVuSans-30" x="63.623047"/>
      <use xlink:href="#DejaVuSans-2e" x="127.246094"/>
      <use xlink:href="#DejaVuSans-30" x="159.033203"/>
     </g>
    </g>
    <g id="line2d_77">
     <path d="M 341.635625 240.910312 
L 351.635625 240.910312 
L 361.635625 240.910312 
" style="fill: none; stroke: #fc8d62; stroke-width: 1.5; stroke-linecap: square"/>
     <g>
      <use xlink:href="#md2bcc8beb0" x="351.635625" y="240.910312" style="fill: #fc8d62; stroke: #ffffff; stroke-width: 0.75"/>
     </g>
    </g>
    <g id="text_33">
     <!-- 30.0 -->
     <g transform="translate(369.635625 244.410312) scale(0.1 -0.1)">
      <use xlink:href="#DejaVuSans-33"/>
      <use xlink:href="#DejaVuSans-30" x="63.623047"/>
      <use xlink:href="#DejaVuSans-2e" x="127.246094"/>
      <use xlink:href="#DejaVuSans-30" x="159.033203"/>
     </g>
    </g>
    <g id="line2d_78">
     <path d="M 341.635625 255.588437 
L 351.635625 255.588437 
L 361.635625 255.588437 
" style="fill: none; stroke: #8da0cb; stroke-width: 1.5; stroke-linecap: square"/>
     <g>
      <use xlink:href="#mdcc648e39b" x="351.635625" y="255.588437" style="fill: #8da0cb; stroke: #ffffff; stroke-width: 0.75"/>
     </g>
    </g>
    <g id="text_34">
     <!-- 40.0 -->
     <g transform="translate(369.635625 259.088437) scale(0.1 -0.1)">
      <use xlink:href="#DejaVuSans-34"/>
      <use xlink:href="#DejaVuSans-30" x="63.623047"/>
      <use xlink:href="#DejaVuSans-2e" x="127.246094"/>
      <use xlink:href="#DejaVuSans-30" x="159.033203"/>
     </g>
    </g>
    <g id="line2d_79">
     <path d="M 341.635625 270.266562 
L 351.635625 270.266562 
L 361.635625 270.266562 
" style="fill: none; stroke: #e78ac3; stroke-width: 1.5; stroke-linecap: square"/>
     <g>
      <use xlink:href="#m9590709e60" x="351.635625" y="270.266562" style="fill: #e78ac3; stroke: #ffffff; stroke-width: 0.75"/>
     </g>
    </g>
    <g id="text_35">
     <!-- 50.0 -->
     <g transform="translate(369.635625 273.766562) scale(0.1 -0.1)">
      <use xlink:href="#DejaVuSans-35"/>
      <use xlink:href="#DejaVuSans-30" x="63.623047"/>
      <use xlink:href="#DejaVuSans-2e" x="127.246094"/>
      <use xlink:href="#DejaVuSans-30" x="159.033203"/>
     </g>
    </g>
    <g id="line2d_80">
     <path d="M 341.635625 284.944687 
L 351.635625 284.944687 
L 361.635625 284.944687 
" style="fill: none; stroke: #a6d854; stroke-width: 1.5; stroke-linecap: square"/>
     <g>
      <use xlink:href="#m56d1200a19" x="351.635625" y="284.944687" style="fill: #a6d854; stroke: #ffffff; stroke-width: 0.75"/>
     </g>
    </g>
    <g id="text_36">
     <!-- 60.0 -->
     <g transform="translate(369.635625 288.444687) scale(0.1 -0.1)">
      <use xlink:href="#DejaVuSans-36"/>
      <use xlink:href="#DejaVuSans-30" x="63.623047"/>
      <use xlink:href="#DejaVuSans-2e" x="127.246094"/>
      <use xlink:href="#DejaVuSans-30" x="159.033203"/>
     </g>
    </g>
    <g id="line2d_81">
     <path d="M 341.635625 299.622812 
L 351.635625 299.622812 
L 361.635625 299.622812 
" style="fill: none; stroke: #ffd92f; stroke-width: 1.5; stroke-linecap: square"/>
     <g>
      <use xlink:href="#m60327f0c26" x="351.635625" y="299.622812" style="fill: #ffd92f; stroke: #ffffff; stroke-width: 0.75"/>
     </g>
    </g>
    <g id="text_37">
     <!-- 70.0 -->
     <g transform="translate(369.635625 303.122812) scale(0.1 -0.1)">
      <use xlink:href="#DejaVuSans-37"/>
      <use xlink:href="#DejaVuSans-30" x="63.623047"/>
      <use xlink:href="#DejaVuSans-2e" x="127.246094"/>
      <use xlink:href="#DejaVuSans-30" x="159.033203"/>
     </g>
    </g>
    <g id="line2d_82">
     <path d="M 341.635625 314.300937 
L 351.635625 314.300937 
L 361.635625 314.300937 
" style="fill: none; stroke: #e5c494; stroke-width: 1.5; stroke-linecap: square"/>
     <g>
      <use xlink:href="#m4a3ab20cf5" x="351.635625" y="314.300937" style="fill: #e5c494; stroke: #ffffff; stroke-width: 0.75"/>
     </g>
    </g>
    <g id="text_38">
     <!-- 80.0 -->
     <g transform="translate(369.635625 317.800937) scale(0.1 -0.1)">
      <use xlink:href="#DejaVuSans-38"/>
      <use xlink:href="#DejaVuSans-30" x="63.623047"/>
      <use xlink:href="#DejaVuSans-2e" x="127.246094"/>
      <use xlink:href="#DejaVuSans-30" x="159.033203"/>
     </g>
    </g>
    <g id="line2d_83">
     <path d="M 341.635625 328.979062 
L 351.635625 328.979062 
L 361.635625 328.979062 
" style="fill: none; stroke: #b3b3b3; stroke-width: 1.5; stroke-linecap: square"/>
     <g>
      <use xlink:href="#m9baedc02ff" x="351.635625" y="328.979062" style="fill: #b3b3b3; stroke: #ffffff; stroke-width: 0.75"/>
     </g>
    </g>
    <g id="text_39">
     <!-- 90.0 -->
     <g transform="translate(369.635625 332.479062) scale(0.1 -0.1)">
      <use xlink:href="#DejaVuSans-39"/>
      <use xlink:href="#DejaVuSans-30" x="63.623047"/>
      <use xlink:href="#DejaVuSans-2e" x="127.246094"/>
      <use xlink:href="#DejaVuSans-30" x="159.033203"/>
     </g>
    </g>
    <g id="line2d_84">
     <path d="M 341.635625 343.657187 
L 351.635625 343.657187 
L 361.635625 343.657187 
" style="fill: none; stroke: #66c2a5; stroke-width: 1.5; stroke-linecap: square"/>
     <g>
      <use xlink:href="#m0214867be2" x="351.635625" y="343.657187" style="fill: #66c2a5; stroke: #ffffff; stroke-width: 0.75"/>
     </g>
    </g>
    <g id="text_40">
     <!-- 100.0 -->
     <g transform="translate(369.635625 347.157187) scale(0.1 -0.1)">
      <use xlink:href="#DejaVuSans-31"/>
      <use xlink:href="#DejaVuSans-30" x="63.623047"/>
      <use xlink:href="#DejaVuSans-30" x="127.246094"/>
      <use xlink:href="#DejaVuSans-2e" x="190.869141"/>
      <use xlink:href="#DejaVuSans-30" x="222.65625"/>
     </g>
    </g>
    <g id="line2d_85">
     <path d="M 341.635625 358.335312 
L 351.635625 358.335312 
L 361.635625 358.335312 
" style="fill: none; stroke: #fc8d62; stroke-width: 1.5; stroke-linecap: square"/>
     <g>
      <use xlink:href="#md2bcc8beb0" x="351.635625" y="358.335312" style="fill: #fc8d62; stroke: #ffffff; stroke-width: 0.75"/>
     </g>
    </g>
    <g id="text_41">
     <!-- 110.0 -->
     <g transform="translate(369.635625 361.835312) scale(0.1 -0.1)">
      <use xlink:href="#DejaVuSans-31"/>
      <use xlink:href="#DejaVuSans-31" x="63.623047"/>
      <use xlink:href="#DejaVuSans-30" x="127.246094"/>
      <use xlink:href="#DejaVuSans-2e" x="190.869141"/>
      <use xlink:href="#DejaVuSans-30" x="222.65625"/>
     </g>
    </g>
    <g id="line2d_86">
     <path d="M 341.635625 373.013438 
L 351.635625 373.013438 
L 361.635625 373.013438 
" style="fill: none; stroke: #8da0cb; stroke-width: 1.5; stroke-linecap: square"/>
     <g>
      <use xlink:href="#mdcc648e39b" x="351.635625" y="373.013438" style="fill: #8da0cb; stroke: #ffffff; stroke-width: 0.75"/>
     </g>
    </g>
    <g id="text_42">
     <!-- 120.0 -->
     <g transform="translate(369.635625 376.513438) scale(0.1 -0.1)">
      <use xlink:href="#DejaVuSans-31"/>
      <use xlink:href="#DejaVuSans-32" x="63.623047"/>
      <use xlink:href="#DejaVuSans-30" x="127.246094"/>
      <use xlink:href="#DejaVuSans-2e" x="190.869141"/>
      <use xlink:href="#DejaVuSans-30" x="222.65625"/>
     </g>
    </g>
    <g id="line2d_87">
     <path d="M 341.635625 387.691563 
L 351.635625 387.691563 
L 361.635625 387.691563 
" style="fill: none; stroke: #e78ac3; stroke-width: 1.5; stroke-linecap: square"/>
     <g>
      <use xlink:href="#m9590709e60" x="351.635625" y="387.691563" style="fill: #e78ac3; stroke: #ffffff; stroke-width: 0.75"/>
     </g>
    </g>
    <g id="text_43">
     <!-- 125.0 -->
     <g transform="translate(369.635625 391.191563) scale(0.1 -0.1)">
      <use xlink:href="#DejaVuSans-31"/>
      <use xlink:href="#DejaVuSans-32" x="63.623047"/>
      <use xlink:href="#DejaVuSans-35" x="127.246094"/>
      <use xlink:href="#DejaVuSans-2e" x="190.869141"/>
      <use xlink:href="#DejaVuSans-30" x="222.65625"/>
     </g>
    </g>
   </g>
  </g>
 </g>
 <defs>
  <clipPath id="p470cbea7ad">
   <rect x="50.14375" y="22.318125" width="357.12" height="266.112"/>
  </clipPath>
 </defs>
</svg>
