<?xml version="1.0" encoding="utf-8" standalone="no"?>
<!DOCTYPE svg PUBLIC "-//W3C//DTD SVG 1.1//EN"
  "http://www.w3.org/Graphics/SVG/1.1/DTD/svg11.dtd">
<svg xmlns:xlink="http://www.w3.org/1999/xlink" width="384.835312pt" height="275.75875pt" viewBox="0 0 384.835312 275.75875" xmlns="http://www.w3.org/2000/svg" version="1.1">
 <metadata>
  <rdf:RDF xmlns:dc="http://purl.org/dc/elements/1.1/" xmlns:cc="http://creativecommons.org/ns#" xmlns:rdf="http://www.w3.org/1999/02/22-rdf-syntax-ns#">
   <cc:Work>
    <dc:type rdf:resource="http://purl.org/dc/dcmitype/StillImage"/>
    <dc:date>2025-04-11T13:30:13.708578</dc:date>
    <dc:format>image/svg+xml</dc:format>
    <dc:creator>
     <cc:Agent>
      <dc:title>Matplotlib v3.9.1, https://matplotlib.org/</dc:title>
     </cc:Agent>
    </dc:creator>
   </cc:Work>
  </rdf:RDF>
 </metadata>
 <defs>
  <style type="text/css">*{stroke-linejoin: round; stroke-linecap: butt}</style>
 </defs>
 <g id="figure_1">
  <g id="patch_1">
   <path d="M 0 275.75875 
L 384.835312 275.75875 
L 384.835312 0 
L 0 0 
z
" style="fill: #ffffff"/>
  </g>
  <g id="axes_1">
   <g id="patch_2">
    <path d="M 27.249375 231.46 
L 362.049375 231.46 
L 362.049375 9.7 
L 27.249375 9.7 
z
" style="fill: #ffffff"/>
   </g>
   <g id="matplotlib.axis_1">
    <g id="xtick_1">
     <g id="line2d_1">
      <defs>
       <path id="maad968aa10" d="M 0 2.5 
L 0 -2.5 
" style="stroke: #000000; stroke-width: 0.8"/>
      </defs>
      <g>
       <use xlink:href="#maad968aa10" x="27.249375" y="231.46" style="stroke: #000000; stroke-width: 0.8"/>
      </g>
     </g>
     <g id="line2d_2">
      <g>
       <use xlink:href="#maad968aa10" x="27.249375" y="9.7" style="stroke: #000000; stroke-width: 0.8"/>
      </g>
     </g>
     <g id="text_1">
      <!-- 7.0 -->
      <g transform="translate(16.117187 248.097812) scale(0.14 -0.14)">
       <defs>
        <path id="DejaVuSans-37" d="M 525 4666 
L 3525 4666 
L 3525 4397 
L 1831 0 
L 1172 0 
L 2766 4134 
L 525 4134 
L 525 4666 
z
" transform="scale(0.015625)"/>
        <path id="DejaVuSans-2e" d="M 684 794 
L 1344 794 
L 1344 0 
L 684 0 
L 684 794 
z
" transform="scale(0.015625)"/>
        <path id="DejaVuSans-30" d="M 2034 4250 
Q 1547 4250 1301 3770 
Q 1056 3291 1056 2328 
Q 1056 1369 1301 889 
Q 1547 409 2034 409 
Q 2525 409 2770 889 
Q 3016 1369 3016 2328 
Q 3016 3291 2770 3770 
Q 2525 4250 2034 4250 
z
M 2034 4750 
Q 2819 4750 3233 4129 
Q 3647 3509 3647 2328 
Q 3647 1150 3233 529 
Q 2819 -91 2034 -91 
Q 1250 -91 836 529 
Q 422 1150 422 2328 
Q 422 3509 836 4129 
Q 1250 4750 2034 4750 
z
" transform="scale(0.015625)"/>
       </defs>
       <use xlink:href="#DejaVuSans-37"/>
       <use xlink:href="#DejaVuSans-2e" x="63.623047"/>
       <use xlink:href="#DejaVuSans-30" x="95.410156"/>
      </g>
     </g>
    </g>
    <g id="xtick_2">
     <g id="line2d_3">
      <g>
       <use xlink:href="#maad968aa10" x="75.077946" y="231.46" style="stroke: #000000; stroke-width: 0.8"/>
      </g>
     </g>
     <g id="line2d_4">
      <g>
       <use xlink:href="#maad968aa10" x="75.077946" y="9.7" style="stroke: #000000; stroke-width: 0.8"/>
      </g>
     </g>
     <g id="text_2">
      <!-- 7.5 -->
      <g transform="translate(63.945759 248.097812) scale(0.14 -0.14)">
       <defs>
        <path id="DejaVuSans-35" d="M 691 4666 
L 3169 4666 
L 3169 4134 
L 1269 4134 
L 1269 2991 
Q 1406 3038 1543 3061 
Q 1681 3084 1819 3084 
Q 2600 3084 3056 2656 
Q 3513 2228 3513 1497 
Q 3513 744 3044 326 
Q 2575 -91 1722 -91 
Q 1428 -91 1123 -41 
Q 819 9 494 109 
L 494 744 
Q 775 591 1075 516 
Q 1375 441 1709 441 
Q 2250 441 2565 725 
Q 2881 1009 2881 1497 
Q 2881 1984 2565 2268 
Q 2250 2553 1709 2553 
Q 1456 2553 1204 2497 
Q 953 2441 691 2322 
L 691 4666 
z
" transform="scale(0.015625)"/>
       </defs>
       <use xlink:href="#DejaVuSans-37"/>
       <use xlink:href="#DejaVuSans-2e" x="63.623047"/>
       <use xlink:href="#DejaVuSans-35" x="95.410156"/>
      </g>
     </g>
    </g>
    <g id="xtick_3">
     <g id="line2d_5">
      <g>
       <use xlink:href="#maad968aa10" x="122.906518" y="231.46" style="stroke: #000000; stroke-width: 0.8"/>
      </g>
     </g>
     <g id="line2d_6">
      <g>
       <use xlink:href="#maad968aa10" x="122.906518" y="9.7" style="stroke: #000000; stroke-width: 0.8"/>
      </g>
     </g>
     <g id="text_3">
      <!-- 8.0 -->
      <g transform="translate(111.77433 248.097812) scale(0.14 -0.14)">
       <defs>
        <path id="DejaVuSans-38" d="M 2034 2216 
Q 1584 2216 1326 1975 
Q 1069 1734 1069 1313 
Q 1069 891 1326 650 
Q 1584 409 2034 409 
Q 2484 409 2743 651 
Q 3003 894 3003 1313 
Q 3003 1734 2745 1975 
Q 2488 2216 2034 2216 
z
M 1403 2484 
Q 997 2584 770 2862 
Q 544 3141 544 3541 
Q 544 4100 942 4425 
Q 1341 4750 2034 4750 
Q 2731 4750 3128 4425 
Q 3525 4100 3525 3541 
Q 3525 3141 3298 2862 
Q 3072 2584 2669 2484 
Q 3125 2378 3379 2068 
Q 3634 1759 3634 1313 
Q 3634 634 3220 271 
Q 2806 -91 2034 -91 
Q 1263 -91 848 271 
Q 434 634 434 1313 
Q 434 1759 690 2068 
Q 947 2378 1403 2484 
z
M 1172 3481 
Q 1172 3119 1398 2916 
Q 1625 2713 2034 2713 
Q 2441 2713 2670 2916 
Q 2900 3119 2900 3481 
Q 2900 3844 2670 4047 
Q 2441 4250 2034 4250 
Q 1625 4250 1398 4047 
Q 1172 3844 1172 3481 
z
" transform="scale(0.015625)"/>
       </defs>
       <use xlink:href="#DejaVuSans-38"/>
       <use xlink:href="#DejaVuSans-2e" x="63.623047"/>
       <use xlink:href="#DejaVuSans-30" x="95.410156"/>
      </g>
     </g>
    </g>
    <g id="xtick_4">
     <g id="line2d_7">
      <g>
       <use xlink:href="#maad968aa10" x="170.735089" y="231.46" style="stroke: #000000; stroke-width: 0.8"/>
      </g>
     </g>
     <g id="line2d_8">
      <g>
       <use xlink:href="#maad968aa10" x="170.735089" y="9.7" style="stroke: #000000; stroke-width: 0.8"/>
      </g>
     </g>
     <g id="text_4">
      <!-- 8.5 -->
      <g transform="translate(159.602902 248.097812) scale(0.14 -0.14)">
       <use xlink:href="#DejaVuSans-38"/>
       <use xlink:href="#DejaVuSans-2e" x="63.623047"/>
       <use xlink:href="#DejaVuSans-35" x="95.410156"/>
      </g>
     </g>
    </g>
    <g id="xtick_5">
     <g id="line2d_9">
      <g>
       <use xlink:href="#maad968aa10" x="218.563661" y="231.46" style="stroke: #000000; stroke-width: 0.8"/>
      </g>
     </g>
     <g id="line2d_10">
      <g>
       <use xlink:href="#maad968aa10" x="218.563661" y="9.7" style="stroke: #000000; stroke-width: 0.8"/>
      </g>
     </g>
     <g id="text_5">
      <!-- 9.0 -->
      <g transform="translate(207.431473 248.097812) scale(0.14 -0.14)">
       <defs>
        <path id="DejaVuSans-39" d="M 703 97 
L 703 672 
Q 941 559 1184 500 
Q 1428 441 1663 441 
Q 2288 441 2617 861 
Q 2947 1281 2994 2138 
Q 2813 1869 2534 1725 
Q 2256 1581 1919 1581 
Q 1219 1581 811 2004 
Q 403 2428 403 3163 
Q 403 3881 828 4315 
Q 1253 4750 1959 4750 
Q 2769 4750 3195 4129 
Q 3622 3509 3622 2328 
Q 3622 1225 3098 567 
Q 2575 -91 1691 -91 
Q 1453 -91 1209 -44 
Q 966 3 703 97 
z
M 1959 2075 
Q 2384 2075 2632 2365 
Q 2881 2656 2881 3163 
Q 2881 3666 2632 3958 
Q 2384 4250 1959 4250 
Q 1534 4250 1286 3958 
Q 1038 3666 1038 3163 
Q 1038 2656 1286 2365 
Q 1534 2075 1959 2075 
z
" transform="scale(0.015625)"/>
       </defs>
       <use xlink:href="#DejaVuSans-39"/>
       <use xlink:href="#DejaVuSans-2e" x="63.623047"/>
       <use xlink:href="#DejaVuSans-30" x="95.410156"/>
      </g>
     </g>
    </g>
    <g id="xtick_6">
     <g id="line2d_11">
      <g>
       <use xlink:href="#maad968aa10" x="266.392232" y="231.46" style="stroke: #000000; stroke-width: 0.8"/>
      </g>
     </g>
     <g id="line2d_12">
      <g>
       <use xlink:href="#maad968aa10" x="266.392232" y="9.7" style="stroke: #000000; stroke-width: 0.8"/>
      </g>
     </g>
     <g id="text_6">
      <!-- 9.5 -->
      <g transform="translate(255.260045 248.097812) scale(0.14 -0.14)">
       <use xlink:href="#DejaVuSans-39"/>
       <use xlink:href="#DejaVuSans-2e" x="63.623047"/>
       <use xlink:href="#DejaVuSans-35" x="95.410156"/>
      </g>
     </g>
    </g>
    <g id="xtick_7">
     <g id="line2d_13">
      <g>
       <use xlink:href="#maad968aa10" x="314.220804" y="231.46" style="stroke: #000000; stroke-width: 0.8"/>
      </g>
     </g>
     <g id="line2d_14">
      <g>
       <use xlink:href="#maad968aa10" x="314.220804" y="9.7" style="stroke: #000000; stroke-width: 0.8"/>
      </g>
     </g>
     <g id="text_7">
      <!-- 10.0 -->
      <g transform="translate(298.634866 248.097812) scale(0.14 -0.14)">
       <defs>
        <path id="DejaVuSans-31" d="M 794 531 
L 1825 531 
L 1825 4091 
L 703 3866 
L 703 4441 
L 1819 4666 
L 2450 4666 
L 2450 531 
L 3481 531 
L 3481 0 
L 794 0 
L 794 531 
z
" transform="scale(0.015625)"/>
       </defs>
       <use xlink:href="#DejaVuSans-31"/>
       <use xlink:href="#DejaVuSans-30" x="63.623047"/>
       <use xlink:href="#DejaVuSans-2e" x="127.246094"/>
       <use xlink:href="#DejaVuSans-30" x="159.033203"/>
      </g>
     </g>
    </g>
    <g id="xtick_8">
     <g id="line2d_15">
      <g>
       <use xlink:href="#maad968aa10" x="362.049375" y="231.46" style="stroke: #000000; stroke-width: 0.8"/>
      </g>
     </g>
     <g id="line2d_16">
      <g>
       <use xlink:href="#maad968aa10" x="362.049375" y="9.7" style="stroke: #000000; stroke-width: 0.8"/>
      </g>
     </g>
     <g id="text_8">
      <!-- 10.5 -->
      <g transform="translate(346.463437 248.097812) scale(0.14 -0.14)">
       <use xlink:href="#DejaVuSans-31"/>
       <use xlink:href="#DejaVuSans-30" x="63.623047"/>
       <use xlink:href="#DejaVuSans-2e" x="127.246094"/>
       <use xlink:href="#DejaVuSans-35" x="159.033203"/>
      </g>
     </g>
    </g>
    <g id="xtick_9">
     <g id="line2d_17">
      <defs>
       <path id="md635321b3b" d="M 0 0 
L 0 2 
" style="stroke: #000000; stroke-width: 0.6"/>
      </defs>
      <g>
       <use xlink:href="#md635321b3b" x="36.815089" y="231.46" style="stroke: #000000; stroke-width: 0.6"/>
      </g>
     </g>
     <g id="line2d_18">
      <defs>
       <path id="m4267c1b9a4" d="M 0 0 
L 0 -2 
" style="stroke: #000000; stroke-width: 0.6"/>
      </defs>
      <g>
       <use xlink:href="#m4267c1b9a4" x="36.815089" y="9.7" style="stroke: #000000; stroke-width: 0.6"/>
      </g>
     </g>
    </g>
    <g id="xtick_10">
     <g id="line2d_19">
      <g>
       <use xlink:href="#md635321b3b" x="46.380804" y="231.46" style="stroke: #000000; stroke-width: 0.6"/>
      </g>
     </g>
     <g id="line2d_20">
      <g>
       <use xlink:href="#m4267c1b9a4" x="46.380804" y="9.7" style="stroke: #000000; stroke-width: 0.6"/>
      </g>
     </g>
    </g>
    <g id="xtick_11">
     <g id="line2d_21">
      <g>
       <use xlink:href="#md635321b3b" x="55.946518" y="231.46" style="stroke: #000000; stroke-width: 0.6"/>
      </g>
     </g>
     <g id="line2d_22">
      <g>
       <use xlink:href="#m4267c1b9a4" x="55.946518" y="9.7" style="stroke: #000000; stroke-width: 0.6"/>
      </g>
     </g>
    </g>
    <g id="xtick_12">
     <g id="line2d_23">
      <g>
       <use xlink:href="#md635321b3b" x="65.512232" y="231.46" style="stroke: #000000; stroke-width: 0.6"/>
      </g>
     </g>
     <g id="line2d_24">
      <g>
       <use xlink:href="#m4267c1b9a4" x="65.512232" y="9.7" style="stroke: #000000; stroke-width: 0.6"/>
      </g>
     </g>
    </g>
    <g id="xtick_13">
     <g id="line2d_25">
      <g>
       <use xlink:href="#md635321b3b" x="84.643661" y="231.46" style="stroke: #000000; stroke-width: 0.6"/>
      </g>
     </g>
     <g id="line2d_26">
      <g>
       <use xlink:href="#m4267c1b9a4" x="84.643661" y="9.7" style="stroke: #000000; stroke-width: 0.6"/>
      </g>
     </g>
    </g>
    <g id="xtick_14">
     <g id="line2d_27">
      <g>
       <use xlink:href="#md635321b3b" x="94.209375" y="231.46" style="stroke: #000000; stroke-width: 0.6"/>
      </g>
     </g>
     <g id="line2d_28">
      <g>
       <use xlink:href="#m4267c1b9a4" x="94.209375" y="9.7" style="stroke: #000000; stroke-width: 0.6"/>
      </g>
     </g>
    </g>
    <g id="xtick_15">
     <g id="line2d_29">
      <g>
       <use xlink:href="#md635321b3b" x="103.775089" y="231.46" style="stroke: #000000; stroke-width: 0.6"/>
      </g>
     </g>
     <g id="line2d_30">
      <g>
       <use xlink:href="#m4267c1b9a4" x="103.775089" y="9.7" style="stroke: #000000; stroke-width: 0.6"/>
      </g>
     </g>
    </g>
    <g id="xtick_16">
     <g id="line2d_31">
      <g>
       <use xlink:href="#md635321b3b" x="113.340804" y="231.46" style="stroke: #000000; stroke-width: 0.6"/>
      </g>
     </g>
     <g id="line2d_32">
      <g>
       <use xlink:href="#m4267c1b9a4" x="113.340804" y="9.7" style="stroke: #000000; stroke-width: 0.6"/>
      </g>
     </g>
    </g>
    <g id="xtick_17">
     <g id="line2d_33">
      <g>
       <use xlink:href="#md635321b3b" x="132.472232" y="231.46" style="stroke: #000000; stroke-width: 0.6"/>
      </g>
     </g>
     <g id="line2d_34">
      <g>
       <use xlink:href="#m4267c1b9a4" x="132.472232" y="9.7" style="stroke: #000000; stroke-width: 0.6"/>
      </g>
     </g>
    </g>
    <g id="xtick_18">
     <g id="line2d_35">
      <g>
       <use xlink:href="#md635321b3b" x="142.037946" y="231.46" style="stroke: #000000; stroke-width: 0.6"/>
      </g>
     </g>
     <g id="line2d_36">
      <g>
       <use xlink:href="#m4267c1b9a4" x="142.037946" y="9.7" style="stroke: #000000; stroke-width: 0.6"/>
      </g>
     </g>
    </g>
    <g id="xtick_19">
     <g id="line2d_37">
      <g>
       <use xlink:href="#md635321b3b" x="151.603661" y="231.46" style="stroke: #000000; stroke-width: 0.6"/>
      </g>
     </g>
     <g id="line2d_38">
      <g>
       <use xlink:href="#m4267c1b9a4" x="151.603661" y="9.7" style="stroke: #000000; stroke-width: 0.6"/>
      </g>
     </g>
    </g>
    <g id="xtick_20">
     <g id="line2d_39">
      <g>
       <use xlink:href="#md635321b3b" x="161.169375" y="231.46" style="stroke: #000000; stroke-width: 0.6"/>
      </g>
     </g>
     <g id="line2d_40">
      <g>
       <use xlink:href="#m4267c1b9a4" x="161.169375" y="9.7" style="stroke: #000000; stroke-width: 0.6"/>
      </g>
     </g>
    </g>
    <g id="xtick_21">
     <g id="line2d_41">
      <g>
       <use xlink:href="#md635321b3b" x="180.300804" y="231.46" style="stroke: #000000; stroke-width: 0.6"/>
      </g>
     </g>
     <g id="line2d_42">
      <g>
       <use xlink:href="#m4267c1b9a4" x="180.300804" y="9.7" style="stroke: #000000; stroke-width: 0.6"/>
      </g>
     </g>
    </g>
    <g id="xtick_22">
     <g id="line2d_43">
      <g>
       <use xlink:href="#md635321b3b" x="189.866518" y="231.46" style="stroke: #000000; stroke-width: 0.6"/>
      </g>
     </g>
     <g id="line2d_44">
      <g>
       <use xlink:href="#m4267c1b9a4" x="189.866518" y="9.7" style="stroke: #000000; stroke-width: 0.6"/>
      </g>
     </g>
    </g>
    <g id="xtick_23">
     <g id="line2d_45">
      <g>
       <use xlink:href="#md635321b3b" x="199.432232" y="231.46" style="stroke: #000000; stroke-width: 0.6"/>
      </g>
     </g>
     <g id="line2d_46">
      <g>
       <use xlink:href="#m4267c1b9a4" x="199.432232" y="9.7" style="stroke: #000000; stroke-width: 0.6"/>
      </g>
     </g>
    </g>
    <g id="xtick_24">
     <g id="line2d_47">
      <g>
       <use xlink:href="#md635321b3b" x="208.997946" y="231.46" style="stroke: #000000; stroke-width: 0.6"/>
      </g>
     </g>
     <g id="line2d_48">
      <g>
       <use xlink:href="#m4267c1b9a4" x="208.997946" y="9.7" style="stroke: #000000; stroke-width: 0.6"/>
      </g>
     </g>
    </g>
    <g id="xtick_25">
     <g id="line2d_49">
      <g>
       <use xlink:href="#md635321b3b" x="228.129375" y="231.46" style="stroke: #000000; stroke-width: 0.6"/>
      </g>
     </g>
     <g id="line2d_50">
      <g>
       <use xlink:href="#m4267c1b9a4" x="228.129375" y="9.7" style="stroke: #000000; stroke-width: 0.6"/>
      </g>
     </g>
    </g>
    <g id="xtick_26">
     <g id="line2d_51">
      <g>
       <use xlink:href="#md635321b3b" x="237.695089" y="231.46" style="stroke: #000000; stroke-width: 0.6"/>
      </g>
     </g>
     <g id="line2d_52">
      <g>
       <use xlink:href="#m4267c1b9a4" x="237.695089" y="9.7" style="stroke: #000000; stroke-width: 0.6"/>
      </g>
     </g>
    </g>
    <g id="xtick_27">
     <g id="line2d_53">
      <g>
       <use xlink:href="#md635321b3b" x="247.260804" y="231.46" style="stroke: #000000; stroke-width: 0.6"/>
      </g>
     </g>
     <g id="line2d_54">
      <g>
       <use xlink:href="#m4267c1b9a4" x="247.260804" y="9.7" style="stroke: #000000; stroke-width: 0.6"/>
      </g>
     </g>
    </g>
    <g id="xtick_28">
     <g id="line2d_55">
      <g>
       <use xlink:href="#md635321b3b" x="256.826518" y="231.46" style="stroke: #000000; stroke-width: 0.6"/>
      </g>
     </g>
     <g id="line2d_56">
      <g>
       <use xlink:href="#m4267c1b9a4" x="256.826518" y="9.7" style="stroke: #000000; stroke-width: 0.6"/>
      </g>
     </g>
    </g>
    <g id="xtick_29">
     <g id="line2d_57">
      <g>
       <use xlink:href="#md635321b3b" x="275.957946" y="231.46" style="stroke: #000000; stroke-width: 0.6"/>
      </g>
     </g>
     <g id="line2d_58">
      <g>
       <use xlink:href="#m4267c1b9a4" x="275.957946" y="9.7" style="stroke: #000000; stroke-width: 0.6"/>
      </g>
     </g>
    </g>
    <g id="xtick_30">
     <g id="line2d_59">
      <g>
       <use xlink:href="#md635321b3b" x="285.523661" y="231.46" style="stroke: #000000; stroke-width: 0.6"/>
      </g>
     </g>
     <g id="line2d_60">
      <g>
       <use xlink:href="#m4267c1b9a4" x="285.523661" y="9.7" style="stroke: #000000; stroke-width: 0.6"/>
      </g>
     </g>
    </g>
    <g id="xtick_31">
     <g id="line2d_61">
      <g>
       <use xlink:href="#md635321b3b" x="295.089375" y="231.46" style="stroke: #000000; stroke-width: 0.6"/>
      </g>
     </g>
     <g id="line2d_62">
      <g>
       <use xlink:href="#m4267c1b9a4" x="295.089375" y="9.7" style="stroke: #000000; stroke-width: 0.6"/>
      </g>
     </g>
    </g>
    <g id="xtick_32">
     <g id="line2d_63">
      <g>
       <use xlink:href="#md635321b3b" x="304.655089" y="231.46" style="stroke: #000000; stroke-width: 0.6"/>
      </g>
     </g>
     <g id="line2d_64">
      <g>
       <use xlink:href="#m4267c1b9a4" x="304.655089" y="9.7" style="stroke: #000000; stroke-width: 0.6"/>
      </g>
     </g>
    </g>
    <g id="xtick_33">
     <g id="line2d_65">
      <g>
       <use xlink:href="#md635321b3b" x="323.786518" y="231.46" style="stroke: #000000; stroke-width: 0.6"/>
      </g>
     </g>
     <g id="line2d_66">
      <g>
       <use xlink:href="#m4267c1b9a4" x="323.786518" y="9.7" style="stroke: #000000; stroke-width: 0.6"/>
      </g>
     </g>
    </g>
    <g id="xtick_34">
     <g id="line2d_67">
      <g>
       <use xlink:href="#md635321b3b" x="333.352232" y="231.46" style="stroke: #000000; stroke-width: 0.6"/>
      </g>
     </g>
     <g id="line2d_68">
      <g>
       <use xlink:href="#m4267c1b9a4" x="333.352232" y="9.7" style="stroke: #000000; stroke-width: 0.6"/>
      </g>
     </g>
    </g>
    <g id="xtick_35">
     <g id="line2d_69">
      <g>
       <use xlink:href="#md635321b3b" x="342.917946" y="231.46" style="stroke: #000000; stroke-width: 0.6"/>
      </g>
     </g>
     <g id="line2d_70">
      <g>
       <use xlink:href="#m4267c1b9a4" x="342.917946" y="9.7" style="stroke: #000000; stroke-width: 0.6"/>
      </g>
     </g>
    </g>
    <g id="xtick_36">
     <g id="line2d_71">
      <g>
       <use xlink:href="#md635321b3b" x="352.483661" y="231.46" style="stroke: #000000; stroke-width: 0.6"/>
      </g>
     </g>
     <g id="line2d_72">
      <g>
       <use xlink:href="#m4267c1b9a4" x="352.483661" y="9.7" style="stroke: #000000; stroke-width: 0.6"/>
      </g>
     </g>
    </g>
    <g id="text_9">
     <!-- photon energy (eV) -->
     <g transform="translate(126.6225 265.647187) scale(0.14 -0.14)">
      <defs>
       <path id="DejaVuSans-70" d="M 1159 525 
L 1159 -1331 
L 581 -1331 
L 581 3500 
L 1159 3500 
L 1159 2969 
Q 1341 3281 1617 3432 
Q 1894 3584 2278 3584 
Q 2916 3584 3314 3078 
Q 3713 2572 3713 1747 
Q 3713 922 3314 415 
Q 2916 -91 2278 -91 
Q 1894 -91 1617 61 
Q 1341 213 1159 525 
z
M 3116 1747 
Q 3116 2381 2855 2742 
Q 2594 3103 2138 3103 
Q 1681 3103 1420 2742 
Q 1159 2381 1159 1747 
Q 1159 1113 1420 752 
Q 1681 391 2138 391 
Q 2594 391 2855 752 
Q 3116 1113 3116 1747 
z
" transform="scale(0.015625)"/>
       <path id="DejaVuSans-68" d="M 3513 2113 
L 3513 0 
L 2938 0 
L 2938 2094 
Q 2938 2591 2744 2837 
Q 2550 3084 2163 3084 
Q 1697 3084 1428 2787 
Q 1159 2491 1159 1978 
L 1159 0 
L 581 0 
L 581 4863 
L 1159 4863 
L 1159 2956 
Q 1366 3272 1645 3428 
Q 1925 3584 2291 3584 
Q 2894 3584 3203 3211 
Q 3513 2838 3513 2113 
z
" transform="scale(0.015625)"/>
       <path id="DejaVuSans-6f" d="M 1959 3097 
Q 1497 3097 1228 2736 
Q 959 2375 959 1747 
Q 959 1119 1226 758 
Q 1494 397 1959 397 
Q 2419 397 2687 759 
Q 2956 1122 2956 1747 
Q 2956 2369 2687 2733 
Q 2419 3097 1959 3097 
z
M 1959 3584 
Q 2709 3584 3137 3096 
Q 3566 2609 3566 1747 
Q 3566 888 3137 398 
Q 2709 -91 1959 -91 
Q 1206 -91 779 398 
Q 353 888 353 1747 
Q 353 2609 779 3096 
Q 1206 3584 1959 3584 
z
" transform="scale(0.015625)"/>
       <path id="DejaVuSans-74" d="M 1172 4494 
L 1172 3500 
L 2356 3500 
L 2356 3053 
L 1172 3053 
L 1172 1153 
Q 1172 725 1289 603 
Q 1406 481 1766 481 
L 2356 481 
L 2356 0 
L 1766 0 
Q 1100 0 847 248 
Q 594 497 594 1153 
L 594 3053 
L 172 3053 
L 172 3500 
L 594 3500 
L 594 4494 
L 1172 4494 
z
" transform="scale(0.015625)"/>
       <path id="DejaVuSans-6e" d="M 3513 2113 
L 3513 0 
L 2938 0 
L 2938 2094 
Q 2938 2591 2744 2837 
Q 2550 3084 2163 3084 
Q 1697 3084 1428 2787 
Q 1159 2491 1159 1978 
L 1159 0 
L 581 0 
L 581 3500 
L 1159 3500 
L 1159 2956 
Q 1366 3272 1645 3428 
Q 1925 3584 2291 3584 
Q 2894 3584 3203 3211 
Q 3513 2838 3513 2113 
z
" transform="scale(0.015625)"/>
       <path id="DejaVuSans-20" transform="scale(0.015625)"/>
       <path id="DejaVuSans-65" d="M 3597 1894 
L 3597 1613 
L 953 1613 
Q 991 1019 1311 708 
Q 1631 397 2203 397 
Q 2534 397 2845 478 
Q 3156 559 3463 722 
L 3463 178 
Q 3153 47 2828 -22 
Q 2503 -91 2169 -91 
Q 1331 -91 842 396 
Q 353 884 353 1716 
Q 353 2575 817 3079 
Q 1281 3584 2069 3584 
Q 2775 3584 3186 3129 
Q 3597 2675 3597 1894 
z
M 3022 2063 
Q 3016 2534 2758 2815 
Q 2500 3097 2075 3097 
Q 1594 3097 1305 2825 
Q 1016 2553 972 2059 
L 3022 2063 
z
" transform="scale(0.015625)"/>
       <path id="DejaVuSans-72" d="M 2631 2963 
Q 2534 3019 2420 3045 
Q 2306 3072 2169 3072 
Q 1681 3072 1420 2755 
Q 1159 2438 1159 1844 
L 1159 0 
L 581 0 
L 581 3500 
L 1159 3500 
L 1159 2956 
Q 1341 3275 1631 3429 
Q 1922 3584 2338 3584 
Q 2397 3584 2469 3576 
Q 2541 3569 2628 3553 
L 2631 2963 
z
" transform="scale(0.015625)"/>
       <path id="DejaVuSans-67" d="M 2906 1791 
Q 2906 2416 2648 2759 
Q 2391 3103 1925 3103 
Q 1463 3103 1205 2759 
Q 947 2416 947 1791 
Q 947 1169 1205 825 
Q 1463 481 1925 481 
Q 2391 481 2648 825 
Q 2906 1169 2906 1791 
z
M 3481 434 
Q 3481 -459 3084 -895 
Q 2688 -1331 1869 -1331 
Q 1566 -1331 1297 -1286 
Q 1028 -1241 775 -1147 
L 775 -588 
Q 1028 -725 1275 -790 
Q 1522 -856 1778 -856 
Q 2344 -856 2625 -561 
Q 2906 -266 2906 331 
L 2906 616 
Q 2728 306 2450 153 
Q 2172 0 1784 0 
Q 1141 0 747 490 
Q 353 981 353 1791 
Q 353 2603 747 3093 
Q 1141 3584 1784 3584 
Q 2172 3584 2450 3431 
Q 2728 3278 2906 2969 
L 2906 3500 
L 3481 3500 
L 3481 434 
z
" transform="scale(0.015625)"/>
       <path id="DejaVuSans-79" d="M 2059 -325 
Q 1816 -950 1584 -1140 
Q 1353 -1331 966 -1331 
L 506 -1331 
L 506 -850 
L 844 -850 
Q 1081 -850 1212 -737 
Q 1344 -625 1503 -206 
L 1606 56 
L 191 3500 
L 800 3500 
L 1894 763 
L 2988 3500 
L 3597 3500 
L 2059 -325 
z
" transform="scale(0.015625)"/>
       <path id="DejaVuSans-28" d="M 1984 4856 
Q 1566 4138 1362 3434 
Q 1159 2731 1159 2009 
Q 1159 1288 1364 580 
Q 1569 -128 1984 -844 
L 1484 -844 
Q 1016 -109 783 600 
Q 550 1309 550 2009 
Q 550 2706 781 3412 
Q 1013 4119 1484 4856 
L 1984 4856 
z
" transform="scale(0.015625)"/>
       <path id="DejaVuSans-56" d="M 1831 0 
L 50 4666 
L 709 4666 
L 2188 738 
L 3669 4666 
L 4325 4666 
L 2547 0 
L 1831 0 
z
" transform="scale(0.015625)"/>
       <path id="DejaVuSans-29" d="M 513 4856 
L 1013 4856 
Q 1481 4119 1714 3412 
Q 1947 2706 1947 2009 
Q 1947 1309 1714 600 
Q 1481 -109 1013 -844 
L 513 -844 
Q 928 -128 1133 580 
Q 1338 1288 1338 2009 
Q 1338 2731 1133 3434 
Q 928 4138 513 4856 
z
" transform="scale(0.015625)"/>
      </defs>
      <use xlink:href="#DejaVuSans-70"/>
      <use xlink:href="#DejaVuSans-68" x="63.476562"/>
      <use xlink:href="#DejaVuSans-6f" x="126.855469"/>
      <use xlink:href="#DejaVuSans-74" x="188.037109"/>
      <use xlink:href="#DejaVuSans-6f" x="227.246094"/>
      <use xlink:href="#DejaVuSans-6e" x="288.427734"/>
      <use xlink:href="#DejaVuSans-20" x="351.806641"/>
      <use xlink:href="#DejaVuSans-65" x="383.59375"/>
      <use xlink:href="#DejaVuSans-6e" x="445.117188"/>
      <use xlink:href="#DejaVuSans-65" x="508.496094"/>
      <use xlink:href="#DejaVuSans-72" x="570.019531"/>
      <use xlink:href="#DejaVuSans-67" x="609.382812"/>
      <use xlink:href="#DejaVuSans-79" x="672.859375"/>
      <use xlink:href="#DejaVuSans-20" x="732.039062"/>
      <use xlink:href="#DejaVuSans-28" x="763.826172"/>
      <use xlink:href="#DejaVuSans-65" x="802.839844"/>
      <use xlink:href="#DejaVuSans-56" x="864.363281"/>
      <use xlink:href="#DejaVuSans-29" x="932.771484"/>
     </g>
    </g>
   </g>
   <g id="matplotlib.axis_2">
    <g id="ytick_1">
     <g id="line2d_73">
      <defs>
       <path id="mda0861a811" d="M 2.5 0 
L -2.5 -0 
" style="stroke: #000000; stroke-width: 0.8"/>
      </defs>
      <g>
       <use xlink:href="#mda0861a811" x="27.249375" y="226.073191" style="stroke: #000000; stroke-width: 0.8"/>
      </g>
     </g>
    </g>
    <g id="ytick_2">
     <g id="line2d_74">
      <g>
       <use xlink:href="#mda0861a811" x="27.249375" y="118.579867" style="stroke: #000000; stroke-width: 0.8"/>
      </g>
     </g>
    </g>
    <g id="ytick_3">
     <g id="line2d_75">
      <g>
       <use xlink:href="#mda0861a811" x="27.249375" y="11.086543" style="stroke: #000000; stroke-width: 0.8"/>
      </g>
     </g>
    </g>
    <g id="ytick_4">
     <g id="line2d_76">
      <defs>
       <path id="m61777b6db9" d="M 0 0 
L -2 0 
" style="stroke: #000000; stroke-width: 0.6"/>
      </defs>
      <g>
       <use xlink:href="#m61777b6db9" x="27.249375" y="204.574527" style="stroke: #000000; stroke-width: 0.6"/>
      </g>
     </g>
    </g>
    <g id="ytick_5">
     <g id="line2d_77">
      <g>
       <use xlink:href="#m61777b6db9" x="27.249375" y="183.075862" style="stroke: #000000; stroke-width: 0.6"/>
      </g>
     </g>
    </g>
    <g id="ytick_6">
     <g id="line2d_78">
      <g>
       <use xlink:href="#m61777b6db9" x="27.249375" y="161.577197" style="stroke: #000000; stroke-width: 0.6"/>
      </g>
     </g>
    </g>
    <g id="ytick_7">
     <g id="line2d_79">
      <g>
       <use xlink:href="#m61777b6db9" x="27.249375" y="140.078532" style="stroke: #000000; stroke-width: 0.6"/>
      </g>
     </g>
    </g>
    <g id="ytick_8">
     <g id="line2d_80">
      <g>
       <use xlink:href="#m61777b6db9" x="27.249375" y="97.081202" style="stroke: #000000; stroke-width: 0.6"/>
      </g>
     </g>
    </g>
    <g id="ytick_9">
     <g id="line2d_81">
      <g>
       <use xlink:href="#m61777b6db9" x="27.249375" y="75.582537" style="stroke: #000000; stroke-width: 0.6"/>
      </g>
     </g>
    </g>
    <g id="ytick_10">
     <g id="line2d_82">
      <g>
       <use xlink:href="#m61777b6db9" x="27.249375" y="54.083873" style="stroke: #000000; stroke-width: 0.6"/>
      </g>
     </g>
    </g>
    <g id="ytick_11">
     <g id="line2d_83">
      <g>
       <use xlink:href="#m61777b6db9" x="27.249375" y="32.585208" style="stroke: #000000; stroke-width: 0.6"/>
      </g>
     </g>
    </g>
    <g id="text_10">
     <!-- absorbance -->
     <g transform="translate(17.837813 161.446875) rotate(-90) scale(0.14 -0.14)">
      <defs>
       <path id="DejaVuSans-61" d="M 2194 1759 
Q 1497 1759 1228 1600 
Q 959 1441 959 1056 
Q 959 750 1161 570 
Q 1363 391 1709 391 
Q 2188 391 2477 730 
Q 2766 1069 2766 1631 
L 2766 1759 
L 2194 1759 
z
M 3341 1997 
L 3341 0 
L 2766 0 
L 2766 531 
Q 2569 213 2275 61 
Q 1981 -91 1556 -91 
Q 1019 -91 701 211 
Q 384 513 384 1019 
Q 384 1609 779 1909 
Q 1175 2209 1959 2209 
L 2766 2209 
L 2766 2266 
Q 2766 2663 2505 2880 
Q 2244 3097 1772 3097 
Q 1472 3097 1187 3025 
Q 903 2953 641 2809 
L 641 3341 
Q 956 3463 1253 3523 
Q 1550 3584 1831 3584 
Q 2591 3584 2966 3190 
Q 3341 2797 3341 1997 
z
" transform="scale(0.015625)"/>
       <path id="DejaVuSans-62" d="M 3116 1747 
Q 3116 2381 2855 2742 
Q 2594 3103 2138 3103 
Q 1681 3103 1420 2742 
Q 1159 2381 1159 1747 
Q 1159 1113 1420 752 
Q 1681 391 2138 391 
Q 2594 391 2855 752 
Q 3116 1113 3116 1747 
z
M 1159 2969 
Q 1341 3281 1617 3432 
Q 1894 3584 2278 3584 
Q 2916 3584 3314 3078 
Q 3713 2572 3713 1747 
Q 3713 922 3314 415 
Q 2916 -91 2278 -91 
Q 1894 -91 1617 61 
Q 1341 213 1159 525 
L 1159 0 
L 581 0 
L 581 4863 
L 1159 4863 
L 1159 2969 
z
" transform="scale(0.015625)"/>
       <path id="DejaVuSans-73" d="M 2834 3397 
L 2834 2853 
Q 2591 2978 2328 3040 
Q 2066 3103 1784 3103 
Q 1356 3103 1142 2972 
Q 928 2841 928 2578 
Q 928 2378 1081 2264 
Q 1234 2150 1697 2047 
L 1894 2003 
Q 2506 1872 2764 1633 
Q 3022 1394 3022 966 
Q 3022 478 2636 193 
Q 2250 -91 1575 -91 
Q 1294 -91 989 -36 
Q 684 19 347 128 
L 347 722 
Q 666 556 975 473 
Q 1284 391 1588 391 
Q 1994 391 2212 530 
Q 2431 669 2431 922 
Q 2431 1156 2273 1281 
Q 2116 1406 1581 1522 
L 1381 1569 
Q 847 1681 609 1914 
Q 372 2147 372 2553 
Q 372 3047 722 3315 
Q 1072 3584 1716 3584 
Q 2034 3584 2315 3537 
Q 2597 3491 2834 3397 
z
" transform="scale(0.015625)"/>
       <path id="DejaVuSans-63" d="M 3122 3366 
L 3122 2828 
Q 2878 2963 2633 3030 
Q 2388 3097 2138 3097 
Q 1578 3097 1268 2742 
Q 959 2388 959 1747 
Q 959 1106 1268 751 
Q 1578 397 2138 397 
Q 2388 397 2633 464 
Q 2878 531 3122 666 
L 3122 134 
Q 2881 22 2623 -34 
Q 2366 -91 2075 -91 
Q 1284 -91 818 406 
Q 353 903 353 1747 
Q 353 2603 823 3093 
Q 1294 3584 2113 3584 
Q 2378 3584 2631 3529 
Q 2884 3475 3122 3366 
z
" transform="scale(0.015625)"/>
      </defs>
      <use xlink:href="#DejaVuSans-61"/>
      <use xlink:href="#DejaVuSans-62" x="61.279297"/>
      <use xlink:href="#DejaVuSans-73" x="124.755859"/>
      <use xlink:href="#DejaVuSans-6f" x="176.855469"/>
      <use xlink:href="#DejaVuSans-72" x="238.037109"/>
      <use xlink:href="#DejaVuSans-62" x="279.150391"/>
      <use xlink:href="#DejaVuSans-61" x="342.626953"/>
      <use xlink:href="#DejaVuSans-6e" x="403.90625"/>
      <use xlink:href="#DejaVuSans-63" x="467.285156"/>
      <use xlink:href="#DejaVuSans-65" x="522.265625"/>
     </g>
    </g>
   </g>
   <g id="line2d_84">
    <path d="M 371.322382 168.45989 
L 362.731933 169.380389 
L 354.285861 170.589476 
L 345.980557 172.054706 
L 337.812531 173.742493 
L 329.778406 175.61898 
L 321.874918 177.650781 
L 310.257743 180.919518 
L 298.917167 184.363763 
L 284.209858 189.073876 
L 246.036954 201.483325 
L 232.924222 205.4849 
L 220.192952 209.1253 
L 207.826736 212.387173 
L 195.810095 215.272034 
L 184.128412 217.794914 
L 172.767875 219.979808 
L 161.715421 221.856 
L 150.958685 223.455231 
L 140.485955 224.809619 
L 127.777569 226.205419 
L 115.475201 227.32313 
L 101.221424 228.366907 
L 87.49394 229.154573 
L 72.105651 229.828304 
L 53.249034 230.416326 
L 31.511544 230.856053 
L 3.969494 231.172455 
L -1 231.209918 
L -1 231.209918 
" clip-path="url(#p6494b4b0cc)" style="fill: none; stroke-dasharray: 5.55,2.4; stroke-dashoffset: 0; stroke: #000000; stroke-width: 1.5"/>
   </g>
   <g id="line2d_85">
    <path d="M 371.322382 231.459971 
L 306.44731 231.359134 
L 295.196741 231.164619 
L 287.843428 230.895503 
L 280.604564 230.436113 
L 273.477497 229.693556 
L 269.955081 229.181468 
L 266.459657 228.555237 
L 262.990916 227.799219 
L 259.548552 226.898067 
L 256.132268 225.837386 
L 252.741766 224.604457 
L 249.376757 223.189011 
L 246.036954 221.584008 
L 242.722075 219.786387 
L 239.431842 217.797738 
L 236.165981 215.624844 
L 232.924222 213.280077 
L 229.7063 210.781575 
L 223.340921 205.424298 
L 204.790388 189.093035 
L 201.775651 186.779038 
L 198.782296 184.69334 
L 195.810095 182.871155 
L 192.858824 181.342489 
L 189.928265 180.13133 
L 187.018199 179.255049 
L 184.128412 178.724047 
L 181.258693 178.541653 
L 178.408834 178.704248 
L 175.578629 179.201626 
L 172.767875 180.017534 
L 169.976374 181.130392 
L 167.203927 182.51412 
L 164.45034 184.139057 
L 161.715421 185.972927 
L 158.998982 187.981794 
L 153.620797 192.386055 
L 145.687527 199.459226 
L 137.910834 206.400792 
L 132.811086 210.665637 
L 127.777569 214.511378 
L 122.809 217.881417 
L 117.90413 220.759254 
L 113.061743 223.159402 
L 108.280652 225.118016 
L 103.559701 226.684322 
L 98.897761 227.913482 
L 94.293734 228.861159 
L 89.746547 229.579771 
L 83.030059 230.328988 
L 76.435689 230.796988 
L 67.82747 231.146631 
L 55.294915 231.365313 
L 33.43138 231.451307 
L -1 231.459906 
L -1 231.459906 
" clip-path="url(#p6494b4b0cc)" style="fill: none; stroke-dasharray: 9.6,2.4,1.5,2.4; stroke-dashoffset: 0; stroke: #000000; stroke-width: 1.5"/>
   </g>
   <g id="line2d_86">
    <path d="M 371.322382 231.46 
L 195.810095 231.383183 
L 187.018199 231.219721 
L 178.408834 230.819372 
L 172.767875 230.327727 
L 167.203927 229.583574 
L 161.715421 228.537111 
L 156.300835 227.170392 
L 150.958685 225.515296 
L 143.078129 222.708491 
L 135.3526 220.000092 
L 130.286129 218.565211 
L 127.777569 218.023481 
L 125.285244 217.620259 
L 122.809 217.366013 
L 120.348679 217.266197 
L 117.90413 217.321115 
L 115.475201 217.526067 
L 113.061743 217.871755 
L 110.663609 218.344906 
L 105.91273 219.605492 
L 101.221424 221.154342 
L 87.49394 226.022215 
L 83.030059 227.356934 
L 78.62045 228.461875 
L 74.264129 229.335891 
L 69.960137 229.999165 
L 63.600219 230.670017 
L 57.352867 231.057935 
L 49.193059 231.310439 
L 35.362185 231.438773 
L -1 231.459976 
L -1 231.459976 
" clip-path="url(#p6494b4b0cc)" style="fill: none; stroke-dasharray: 1.5,2.475; stroke-dashoffset: 0; stroke: #000000; stroke-width: 1.5"/>
   </g>
   <g id="line2d_87">
    <path d="M 371.322382 231.46 
L 43.197016 231.358356 
L 29.602586 231.108493 
L 18.372171 230.692242 
L -1 229.700858 
L -1 229.700858 
" clip-path="url(#p6494b4b0cc)" style="fill: none; stroke: #000000; stroke-width: 1.5; stroke-linecap: square"/>
   </g>
   <g id="line2d_88">
    <path d="M 371.322382 163.085196 
L 362.731933 164.00562 
L 354.285861 165.214471 
L 345.980557 166.679002 
L 337.812531 168.364869 
L 329.778406 170.23644 
L 321.874918 172.256504 
L 310.257743 175.476343 
L 284.209858 182.934084 
L 277.027219 184.700119 
L 269.955081 186.102284 
L 266.459657 186.624793 
L 262.990916 187.005061 
L 259.548552 187.226117 
L 256.132268 187.272088 
L 252.741766 187.128919 
L 249.376757 186.785145 
L 246.036954 186.232659 
L 242.722075 185.46746 
L 239.431842 184.490316 
L 236.165981 183.307302 
L 232.924222 181.930179 
L 229.7063 180.376569 
L 226.511952 178.669906 
L 220.192952 174.91818 
L 207.826736 167.135551 
L 204.790388 165.380976 
L 201.775651 163.787711 
L 198.782296 162.39359 
L 195.810095 161.231706 
L 192.858824 160.329277 
L 189.928265 159.706733 
L 187.018199 159.377037 
L 184.128412 159.345305 
L 181.258693 159.608728 
L 178.408834 160.156819 
L 175.578629 160.971987 
L 172.767875 162.030403 
L 169.976374 163.303145 
L 167.203927 164.757565 
L 161.715421 168.071371 
L 156.300835 171.694949 
L 143.078129 180.726929 
L 135.3526 185.690476 
L 122.809 193.635699 
L 115.475201 198.571711 
L 96.588576 211.609577 
L 92.013101 214.357707 
L 87.49394 216.750018 
L 83.030059 218.761681 
L 78.62045 220.399166 
L 74.264129 221.693054 
L 69.960137 222.688859 
L 65.707535 223.438182 
L 61.50541 223.991683 
L 55.294915 224.55118 
L 49.193059 224.887332 
L 41.221374 225.114858 
L 31.511544 225.16176 
L 22.073699 225.001488 
L 9.296308 224.522685 
L -1 224.075993 
L -1 224.075993 
" clip-path="url(#p6494b4b0cc)" style="fill: none; stroke-dasharray: 5.55,2.4; stroke-dashoffset: 0; stroke: #ff0000; stroke-width: 1.5"/>
   </g>
   <g id="line2d_89">
    <defs>
     <path id="m4f73fafd3a" d="M 0 3 
C 0.795609 3 1.55874 2.683901 2.12132 2.12132 
C 2.683901 1.55874 3 0.795609 3 0 
C 3 -0.795609 2.683901 -1.55874 2.12132 -2.12132 
C 1.55874 -2.683901 0.795609 -3 0 -3 
C -0.795609 -3 -1.55874 -2.683901 -2.12132 -2.12132 
C -2.683901 -1.55874 -3 -0.795609 -3 0 
C -3 0.795609 -2.683901 1.55874 -2.12132 2.12132 
C -1.55874 2.683901 -0.795609 3 0 3 
z
" style="stroke: #000000"/>
    </defs>
    <g clip-path="url(#p6494b4b0cc)">
     <use xlink:href="#m4f73fafd3a" x="179.387371" y="160.190654" style="stroke: #000000"/>
    </g>
   </g>
   <g id="line2d_90">
    <defs>
     <path id="mcbe092ed8a" d="M 0 -3 
L -3 3 
L 3 3 
z
" style="stroke: #ff0000; stroke-linejoin: miter"/>
    </defs>
    <g clip-path="url(#p6494b4b0cc)">
     <use xlink:href="#mcbe092ed8a" x="116.794681" y="196.39211" style="fill: #ff0000; stroke: #ff0000; stroke-linejoin: miter"/>
    </g>
   </g>
   <g id="line2d_91">
    <path d="M 371.322382 163.86118 
L 367.00888 164.592416 
L 358.491078 164.682975 
L 354.285861 165.036908 
L 350.115834 165.658631 
L 345.980557 165.971309 
L 341.879598 166.953653 
L 337.812531 167.289716 
L 329.778406 169.063683 
L 325.810533 170.326978 
L 321.874918 171.182688 
L 317.971171 172.55289 
L 310.257743 175.075894 
L 302.667238 177.779986 
L 298.917167 179.14897 
L 287.843428 182.742759 
L 273.477497 186.068372 
L 266.459657 186.926838 
L 262.990916 187.169895 
L 259.548552 187.270161 
L 256.132268 187.233838 
L 249.376757 186.608213 
L 246.036954 185.998444 
L 242.722075 185.222792 
L 239.431842 184.292621 
L 236.165981 183.139964 
L 232.924222 181.861177 
L 229.7063 180.373613 
L 226.511952 178.750216 
L 223.340921 176.932615 
L 217.067794 172.869583 
L 210.884928 168.611231 
L 207.826736 166.645508 
L 204.790388 164.888516 
L 201.775651 163.376162 
L 198.782296 162.206303 
L 195.810095 161.336462 
L 192.858824 160.643119 
L 189.928265 160.105595 
L 187.018199 159.77076 
L 184.128412 159.61715 
L 181.258693 159.726589 
L 178.408834 160.100828 
L 175.578629 160.713118 
L 172.767875 161.584974 
L 169.976374 162.687111 
L 167.203927 164.105105 
L 164.45034 165.812687 
L 161.715421 167.699322 
L 156.300835 171.789654 
L 137.910834 184.499755 
L 135.3526 186.04968 
L 127.777569 190.115745 
L 122.809 193.097097 
L 117.90413 196.302284 
L 108.280652 203.203147 
L 101.221424 208.644629 
L 96.588576 212.151422 
L 92.013101 215.217247 
L 87.49394 217.589483 
L 83.030059 219.25549 
L 78.62045 220.413557 
L 74.264129 221.207192 
L 69.960137 221.721924 
L 61.50541 222.498308 
L 47.182758 223.149794 
L 45.18411 223.212129 
L 43.197016 223.407803 
L 39.257087 223.530011 
L 33.43138 223.719504 
L 25.816935 223.826136 
L 22.073699 223.907886 
L -1 224.025965 
L -1 224.025965 
" clip-path="url(#p6494b4b0cc)" style="fill: none; stroke: #3b4cc0; stroke-width: 1.5; stroke-linecap: square"/>
   </g>
   <g id="line2d_92">
    <g clip-path="url(#p6494b4b0cc)">
     <use xlink:href="#m4f73fafd3a" x="184.280228" y="133.317323" style="stroke: #000000"/>
    </g>
   </g>
   <g id="line2d_93">
    <g clip-path="url(#p6494b4b0cc)">
     <use xlink:href="#mcbe092ed8a" x="121.085919" y="183.515603" style="fill: #ff0000; stroke: #ff0000; stroke-linejoin: miter"/>
    </g>
   </g>
   <g id="line2d_94">
    <path d="M 371.322382 143.590826 
L 367.00888 143.911203 
L 362.731933 144.434342 
L 354.285861 145.080951 
L 350.115834 145.611048 
L 337.812531 148.391236 
L 333.778937 149.46835 
L 325.810533 152.271608 
L 321.874918 153.736819 
L 314.098906 156.969123 
L 298.917167 163.326524 
L 291.50561 166.059208 
L 284.209858 168.05792 
L 280.604564 168.905623 
L 277.027219 169.568847 
L 273.477497 170.089579 
L 269.955081 170.391112 
L 266.459657 170.549427 
L 262.990916 170.512995 
L 259.548552 170.364674 
L 256.132268 170.019184 
L 252.741766 169.354334 
L 249.376757 168.540263 
L 246.036954 167.522757 
L 242.722075 166.221583 
L 239.431842 164.708099 
L 236.165981 162.985164 
L 232.924222 161.029306 
L 229.7063 158.919083 
L 226.511952 156.592802 
L 223.340921 154.033663 
L 217.067794 148.438773 
L 210.884928 142.81689 
L 207.826736 140.317022 
L 204.790388 138.132541 
L 201.775651 136.420529 
L 198.782296 135.145696 
L 195.810095 134.307225 
L 192.858824 133.804439 
L 189.928265 133.563827 
L 187.018199 133.56892 
L 184.128412 133.914527 
L 181.258693 134.621921 
L 178.408834 135.735531 
L 175.578629 137.206499 
L 172.767875 139.031021 
L 169.976374 141.164331 
L 167.203927 143.602317 
L 164.45034 146.294787 
L 156.300835 155.075841 
L 150.958685 160.262975 
L 145.687527 165.08409 
L 140.485955 169.551945 
L 137.910834 171.618471 
L 132.811086 175.243279 
L 127.777569 178.637296 
L 122.809 182.212369 
L 117.90413 186.066885 
L 110.663609 192.106252 
L 98.897761 202.292912 
L 94.293734 205.770448 
L 92.013101 207.247918 
L 89.746547 208.503285 
L 87.49394 209.594014 
L 85.255153 210.484998 
L 83.030059 211.228487 
L 78.62045 212.23615 
L 74.264129 212.884859 
L 69.960137 213.261555 
L 65.707535 213.49326 
L 53.249034 213.777654 
L 41.221374 213.93007 
L 22.073699 213.900061 
L -1 213.631801 
L -1 213.631801 
" clip-path="url(#p6494b4b0cc)" style="fill: none; stroke: #6f92f3; stroke-width: 1.5; stroke-linecap: square"/>
   </g>
   <g id="line2d_95">
    <g clip-path="url(#p6494b4b0cc)">
     <use xlink:href="#m4f73fafd3a" x="183.745221" y="106.443992" style="stroke: #000000"/>
    </g>
   </g>
   <g id="line2d_96">
    <g clip-path="url(#p6494b4b0cc)">
     <use xlink:href="#mcbe092ed8a" x="120.810037" y="146.971848" style="fill: #ff0000; stroke: #ff0000; stroke-linejoin: miter"/>
    </g>
   </g>
   <g id="line2d_97">
    <path d="M 371.322382 114.908491 
L 367.00888 114.993905 
L 362.731933 115.440804 
L 354.285861 115.902703 
L 350.115834 116.515119 
L 345.980557 117.389886 
L 341.879598 117.930435 
L 337.812531 118.77891 
L 325.810533 121.777304 
L 321.874918 122.950433 
L 314.098906 125.644205 
L 298.917167 130.827767 
L 291.50561 132.991707 
L 284.209858 134.755359 
L 280.604564 135.451201 
L 273.477497 136.44569 
L 269.955081 136.725901 
L 262.990916 136.866809 
L 259.548552 136.68965 
L 256.132268 136.385446 
L 252.741766 135.927234 
L 249.376757 135.246998 
L 246.036954 134.368455 
L 242.722075 133.317262 
L 239.431842 132.085693 
L 236.165981 130.660555 
L 232.924222 129.110116 
L 229.7063 127.368889 
L 226.511952 125.475746 
L 223.340921 123.440228 
L 217.067794 118.885373 
L 210.884928 114.371142 
L 207.826736 112.361338 
L 204.790388 110.645751 
L 201.775651 109.25134 
L 198.782296 108.231988 
L 195.810095 107.582796 
L 192.858824 107.150132 
L 189.928265 106.906344 
L 187.018199 106.903329 
L 184.128412 107.10241 
L 181.258693 107.639876 
L 178.408834 108.518636 
L 175.578629 109.617716 
L 172.767875 110.962735 
L 169.976374 112.602649 
L 167.203927 114.519154 
L 164.45034 116.659788 
L 156.300835 123.71958 
L 150.958685 127.877738 
L 143.078129 133.728537 
L 137.910834 137.266401 
L 135.3526 138.861681 
L 125.285244 144.55422 
L 120.348679 147.630266 
L 115.475201 150.966039 
L 108.280652 156.05879 
L 98.897761 162.899273 
L 94.293734 165.931432 
L 92.013101 167.245024 
L 89.746547 168.361007 
L 87.49394 169.287698 
L 85.255153 170.067303 
L 83.030059 170.722409 
L 78.62045 171.619084 
L 74.264129 172.202737 
L 67.82747 172.707775 
L 59.422995 172.987251 
L 51.215117 173.103556 
L 43.197016 173.127714 
L 16.53683 173.01428 
L -1 172.719818 
L -1 172.719818 
" clip-path="url(#p6494b4b0cc)" style="fill: none; stroke: #aac7fd; stroke-width: 1.5; stroke-linecap: square"/>
   </g>
   <g id="line2d_98">
    <g clip-path="url(#p6494b4b0cc)">
     <use xlink:href="#m4f73fafd3a" x="182.720365" y="79.570661" style="stroke: #000000"/>
    </g>
   </g>
   <g id="line2d_99">
    <g clip-path="url(#p6494b4b0cc)">
     <use xlink:href="#mcbe092ed8a" x="120.05446" y="112.241935" style="fill: #ff0000; stroke: #ff0000; stroke-linejoin: miter"/>
    </g>
   </g>
   <g id="line2d_100">
    <path d="M 371.322382 85.572938 
L 367.00888 86.250927 
L 354.285861 86.907387 
L 350.115834 87.29139 
L 345.980557 87.526976 
L 341.879598 88.303795 
L 337.812531 88.786522 
L 329.778406 90.439905 
L 325.810533 91.243804 
L 321.874918 92.292766 
L 310.257743 95.769712 
L 295.196741 99.943907 
L 287.843428 101.74107 
L 284.209858 102.446544 
L 277.027219 103.60404 
L 273.477497 104.022051 
L 266.459657 104.486181 
L 262.990916 104.579211 
L 256.132268 104.303191 
L 252.741766 103.915747 
L 249.376757 103.407051 
L 242.722075 101.956081 
L 239.431842 100.986918 
L 232.924222 98.603467 
L 226.511952 95.673738 
L 223.340921 94.023741 
L 217.067794 90.414989 
L 210.884928 86.762335 
L 207.826736 85.111664 
L 204.790388 83.738717 
L 201.775651 82.583546 
L 198.782296 81.779554 
L 195.810095 81.1943 
L 192.858824 80.789653 
L 189.928265 80.561386 
L 187.018199 80.519872 
L 184.128412 80.6362 
L 181.258693 81.03256 
L 178.408834 81.647511 
L 175.578629 82.450759 
L 172.767875 83.517245 
L 169.976374 84.696338 
L 167.203927 86.200082 
L 164.45034 87.866259 
L 158.998982 91.664938 
L 156.300835 93.5385 
L 140.485955 103.164264 
L 135.3526 105.978649 
L 127.777569 109.462917 
L 122.809 111.915144 
L 113.061743 117.503217 
L 103.559701 123.452706 
L 96.588576 127.779164 
L 92.013101 130.271128 
L 89.746547 131.234755 
L 85.255153 132.845281 
L 80.818532 133.894662 
L 76.435689 134.636003 
L 72.105651 135.048907 
L 63.600219 135.616486 
L 57.352867 135.799141 
L 33.43138 136.177822 
L 5.735396 135.995458 
L 2.213189 136.045247 
L -1 136.00022 
L -1 136.00022 
" clip-path="url(#p6494b4b0cc)" style="fill: none; stroke: #dddcdc; stroke-width: 1.5; stroke-linecap: square"/>
   </g>
   <g id="line2d_101">
    <g clip-path="url(#p6494b4b0cc)">
     <use xlink:href="#m4f73fafd3a" x="181.970259" y="52.69733" style="stroke: #000000"/>
    </g>
   </g>
   <g id="line2d_102">
    <g clip-path="url(#p6494b4b0cc)">
     <use xlink:href="#mcbe092ed8a" x="119.148509" y="98.756746" style="fill: #ff0000; stroke: #ff0000; stroke-linejoin: miter"/>
    </g>
   </g>
   <g id="line2d_103">
    <path d="M 371.322382 60.458891 
L 367.00888 60.919842 
L 362.731933 61.590876 
L 358.491078 61.469517 
L 354.285861 62.292468 
L 350.115834 62.475407 
L 345.980557 63.191023 
L 341.879598 64.351701 
L 337.812531 65.200238 
L 329.778406 67.516681 
L 321.874918 70.273814 
L 317.971171 71.859481 
L 314.098906 73.284688 
L 310.257743 75.097125 
L 306.44731 76.769663 
L 291.50561 82.615347 
L 287.843428 83.855893 
L 284.209858 84.943317 
L 280.604564 85.880564 
L 277.027219 86.670755 
L 269.955081 87.643844 
L 266.459657 87.910979 
L 262.990916 88.000513 
L 259.548552 87.964308 
L 256.132268 87.664101 
L 252.741766 87.221465 
L 249.376757 86.496244 
L 246.036954 85.56684 
L 242.722075 84.375132 
L 239.431842 82.99475 
L 236.165981 81.432737 
L 232.924222 79.614641 
L 229.7063 77.618837 
L 226.511952 75.435232 
L 223.340921 73.052921 
L 220.192952 70.446939 
L 210.884928 62.343919 
L 207.826736 59.869748 
L 204.790388 57.737891 
L 201.775651 55.990485 
L 198.782296 54.640358 
L 195.810095 53.665502 
L 192.858824 52.964699 
L 189.928265 52.491101 
L 187.018199 52.261412 
L 184.128412 52.325941 
L 181.258693 52.756444 
L 178.408834 53.520852 
L 175.578629 54.604279 
L 172.767875 55.981293 
L 169.976374 57.672912 
L 167.203927 59.712255 
L 164.45034 62.089648 
L 161.715421 64.72211 
L 158.998982 67.535702 
L 153.620797 72.637546 
L 143.078129 81.985513 
L 137.910834 86.321152 
L 135.3526 88.240164 
L 125.285244 95.07046 
L 120.348679 98.815861 
L 113.061743 104.905419 
L 108.280652 109.06905 
L 98.897761 117.636029 
L 94.293734 121.462339 
L 92.013101 123.097643 
L 89.746547 124.548363 
L 87.49394 125.799465 
L 85.255153 126.847431 
L 80.818532 128.419237 
L 76.435689 129.478115 
L 72.105651 130.159143 
L 65.707535 130.743815 
L 53.249034 131.278914 
L 23.940059 131.7249 
L 9.296308 131.780436 
L -1 131.741409 
L -1 131.741409 
" clip-path="url(#p6494b4b0cc)" style="fill: none; stroke: #f7b89c; stroke-width: 1.5; stroke-linecap: square"/>
   </g>
   <g id="line2d_104">
    <g clip-path="url(#p6494b4b0cc)">
     <use xlink:href="#m4f73fafd3a" x="180.430032" y="25.823999" style="stroke: #000000"/>
    </g>
   </g>
   <g id="line2d_105">
    <g clip-path="url(#p6494b4b0cc)">
     <use xlink:href="#mcbe092ed8a" x="119.073692" y="64.015735" style="fill: #ff0000; stroke: #ff0000; stroke-linejoin: miter"/>
    </g>
   </g>
   <g id="line2d_106">
    <path d="M 371.322382 29.136938 
L 367.00888 29.475537 
L 362.731933 29.348883 
L 358.491078 30.035939 
L 350.115834 30.779938 
L 345.980557 31.327783 
L 341.879598 31.668154 
L 333.778937 33.497472 
L 325.810533 35.381584 
L 321.874918 36.634286 
L 302.667238 43.633743 
L 295.196741 46.400824 
L 287.843428 48.823765 
L 284.209858 49.922904 
L 280.604564 50.877431 
L 277.027219 51.703203 
L 269.955081 52.933359 
L 266.459657 53.333865 
L 259.548552 53.727183 
L 256.132268 53.655056 
L 252.741766 53.381154 
L 249.376757 52.923076 
L 246.036954 52.273012 
L 242.722075 51.477986 
L 239.431842 50.441538 
L 236.165981 49.243902 
L 232.924222 47.855496 
L 229.7063 46.295734 
L 226.511952 44.559029 
L 223.340921 42.700398 
L 217.067794 38.485496 
L 210.884928 34.144545 
L 207.826736 32.099061 
L 204.790388 30.380154 
L 201.775651 28.867024 
L 198.782296 27.697296 
L 195.810095 26.839724 
L 192.858824 26.125342 
L 189.928265 25.585481 
L 187.018199 25.236696 
L 184.128412 25.074338 
L 181.258693 25.219703 
L 178.408834 25.636103 
L 175.578629 26.320942 
L 172.767875 27.134717 
L 169.976374 28.195427 
L 167.203927 29.538227 
L 164.45034 31.2735 
L 161.715421 33.290993 
L 156.300835 37.609995 
L 150.958685 41.217753 
L 145.687527 44.999545 
L 137.910834 50.86259 
L 135.3526 52.469697 
L 127.777569 56.704264 
L 122.809 59.870353 
L 117.90413 63.411439 
L 105.91273 72.746995 
L 96.588576 80.716402 
L 94.293734 82.54611 
L 92.013101 84.178765 
L 89.746547 85.584843 
L 87.49394 86.850146 
L 85.255153 87.927502 
L 83.030059 88.818747 
L 78.62045 90.204749 
L 74.264129 91.173186 
L 69.960137 91.93083 
L 63.600219 92.633588 
L 59.422995 92.935892 
L 49.193059 93.444919 
L 25.816935 94.157436 
L 22.073699 94.145975 
L 9.296308 94.380272 
L -1 94.501396 
L -1 94.501396 
" clip-path="url(#p6494b4b0cc)" style="fill: none; stroke: #e7745b; stroke-width: 1.5; stroke-linecap: square"/>
   </g>
   <g id="patch_3">
    <path d="M 27.249375 231.46 
L 27.249375 9.7 
" style="fill: none; stroke: #000000; stroke-width: 0.8; stroke-linejoin: miter; stroke-linecap: square"/>
   </g>
   <g id="patch_4">
    <path d="M 362.049375 231.46 
L 362.049375 9.7 
" style="fill: none; stroke: #000000; stroke-width: 0.8; stroke-linejoin: miter; stroke-linecap: square"/>
   </g>
   <g id="patch_5">
    <path d="M 27.249375 231.46 
L 362.049375 231.46 
" style="fill: none; stroke: #000000; stroke-width: 0.8; stroke-linejoin: miter; stroke-linecap: square"/>
   </g>
   <g id="patch_6">
    <path d="M 27.249375 9.7 
L 362.049375 9.7 
" style="fill: none; stroke: #000000; stroke-width: 0.8; stroke-linejoin: miter; stroke-linecap: square"/>
   </g>
   <g id="text_11">
    <!-- 125 K -->
    <g style="fill: #3b4cc0" transform="translate(323.786518 159.61715) scale(0.1 -0.1)">
     <defs>
      <path id="DejaVuSans-32" d="M 1228 531 
L 3431 531 
L 3431 0 
L 469 0 
L 469 531 
Q 828 903 1448 1529 
Q 2069 2156 2228 2338 
Q 2531 2678 2651 2914 
Q 2772 3150 2772 3378 
Q 2772 3750 2511 3984 
Q 2250 4219 1831 4219 
Q 1534 4219 1204 4116 
Q 875 4013 500 3803 
L 500 4441 
Q 881 4594 1212 4672 
Q 1544 4750 1819 4750 
Q 2544 4750 2975 4387 
Q 3406 4025 3406 3419 
Q 3406 3131 3298 2873 
Q 3191 2616 2906 2266 
Q 2828 2175 2409 1742 
Q 1991 1309 1228 531 
z
" transform="scale(0.015625)"/>
      <path id="DejaVuSans-4b" d="M 628 4666 
L 1259 4666 
L 1259 2694 
L 3353 4666 
L 4166 4666 
L 1850 2491 
L 4331 0 
L 3500 0 
L 1259 2247 
L 1259 0 
L 628 0 
L 628 4666 
z
" transform="scale(0.015625)"/>
     </defs>
     <use xlink:href="#DejaVuSans-31"/>
     <use xlink:href="#DejaVuSans-32" x="63.623047"/>
     <use xlink:href="#DejaVuSans-35" x="127.246094"/>
     <use xlink:href="#DejaVuSans-20" x="190.869141"/>
     <use xlink:href="#DejaVuSans-4b" x="222.65625"/>
    </g>
   </g>
   <g id="text_12">
    <!-- 127 K -->
    <g style="fill: #6f92f3" transform="translate(323.786518 133.563827) scale(0.1 -0.1)">
     <use xlink:href="#DejaVuSans-31"/>
     <use xlink:href="#DejaVuSans-32" x="63.623047"/>
     <use xlink:href="#DejaVuSans-37" x="127.246094"/>
     <use xlink:href="#DejaVuSans-20" x="190.869141"/>
     <use xlink:href="#DejaVuSans-4b" x="222.65625"/>
    </g>
   </g>
   <g id="text_13">
    <!-- 130 K -->
    <g style="fill: #aac7fd" transform="translate(323.786518 106.903329) scale(0.1 -0.1)">
     <defs>
      <path id="DejaVuSans-33" d="M 2597 2516 
Q 3050 2419 3304 2112 
Q 3559 1806 3559 1356 
Q 3559 666 3084 287 
Q 2609 -91 1734 -91 
Q 1441 -91 1130 -33 
Q 819 25 488 141 
L 488 750 
Q 750 597 1062 519 
Q 1375 441 1716 441 
Q 2309 441 2620 675 
Q 2931 909 2931 1356 
Q 2931 1769 2642 2001 
Q 2353 2234 1838 2234 
L 1294 2234 
L 1294 2753 
L 1863 2753 
Q 2328 2753 2575 2939 
Q 2822 3125 2822 3475 
Q 2822 3834 2567 4026 
Q 2313 4219 1838 4219 
Q 1578 4219 1281 4162 
Q 984 4106 628 3988 
L 628 4550 
Q 988 4650 1302 4700 
Q 1616 4750 1894 4750 
Q 2613 4750 3031 4423 
Q 3450 4097 3450 3541 
Q 3450 3153 3228 2886 
Q 3006 2619 2597 2516 
z
" transform="scale(0.015625)"/>
     </defs>
     <use xlink:href="#DejaVuSans-31"/>
     <use xlink:href="#DejaVuSans-33" x="63.623047"/>
     <use xlink:href="#DejaVuSans-30" x="127.246094"/>
     <use xlink:href="#DejaVuSans-20" x="190.869141"/>
     <use xlink:href="#DejaVuSans-4b" x="222.65625"/>
    </g>
   </g>
   <g id="text_14">
    <!-- 135 K -->
    <g style="fill: #dddcdc" transform="translate(323.786518 80.519872) scale(0.1 -0.1)">
     <use xlink:href="#DejaVuSans-31"/>
     <use xlink:href="#DejaVuSans-33" x="63.623047"/>
     <use xlink:href="#DejaVuSans-35" x="127.246094"/>
     <use xlink:href="#DejaVuSans-20" x="190.869141"/>
     <use xlink:href="#DejaVuSans-4b" x="222.65625"/>
    </g>
   </g>
   <g id="text_15">
    <!-- 137 K -->
    <g style="fill: #f7b89c" transform="translate(323.786518 52.261412) scale(0.1 -0.1)">
     <use xlink:href="#DejaVuSans-31"/>
     <use xlink:href="#DejaVuSans-33" x="63.623047"/>
     <use xlink:href="#DejaVuSans-37" x="127.246094"/>
     <use xlink:href="#DejaVuSans-20" x="190.869141"/>
     <use xlink:href="#DejaVuSans-4b" x="222.65625"/>
    </g>
   </g>
   <g id="text_16">
    <!-- 140 K -->
    <g style="fill: #e7745b" transform="translate(323.786518 25.074338) scale(0.1 -0.1)">
     <defs>
      <path id="DejaVuSans-34" d="M 2419 4116 
L 825 1625 
L 2419 1625 
L 2419 4116 
z
M 2253 4666 
L 3047 4666 
L 3047 1625 
L 3713 1625 
L 3713 1100 
L 3047 1100 
L 3047 0 
L 2419 0 
L 2419 1100 
L 313 1100 
L 313 1709 
L 2253 4666 
z
" transform="scale(0.015625)"/>
     </defs>
     <use xlink:href="#DejaVuSans-31"/>
     <use xlink:href="#DejaVuSans-34" x="63.623047"/>
     <use xlink:href="#DejaVuSans-30" x="127.246094"/>
     <use xlink:href="#DejaVuSans-20" x="190.869141"/>
     <use xlink:href="#DejaVuSans-4b" x="222.65625"/>
    </g>
   </g>
  </g>
  <g id="axes_2">
   <g id="matplotlib.axis_3">
    <g id="ytick_12">
     <g id="line2d_107">
      <g>
       <use xlink:href="#mda0861a811" x="362.049375" y="229.497608" style="stroke: #000000; stroke-width: 0.8"/>
      </g>
     </g>
    </g>
    <g id="ytick_13">
     <g id="line2d_108">
      <g>
       <use xlink:href="#mda0861a811" x="362.049375" y="190.338234" style="stroke: #000000; stroke-width: 0.8"/>
      </g>
     </g>
    </g>
    <g id="ytick_14">
     <g id="line2d_109">
      <g>
       <use xlink:href="#mda0861a811" x="362.049375" y="151.178859" style="stroke: #000000; stroke-width: 0.8"/>
      </g>
     </g>
    </g>
   </g>
   <g id="patch_7">
    <path d="M 27.249375 231.46 
L 27.249375 9.7 
" style="fill: none; stroke: #000000; stroke-width: 0.8; stroke-linejoin: miter; stroke-linecap: square"/>
   </g>
   <g id="patch_8">
    <path d="M 362.049375 231.46 
L 362.049375 9.7 
" style="fill: none; stroke: #000000; stroke-width: 0.8; stroke-linejoin: miter; stroke-linecap: square"/>
   </g>
   <g id="patch_9">
    <path d="M 27.249375 231.46 
L 362.049375 231.46 
" style="fill: none; stroke: #000000; stroke-width: 0.8; stroke-linejoin: miter; stroke-linecap: square"/>
   </g>
   <g id="patch_10">
    <path d="M 27.249375 9.7 
L 362.049375 9.7 
" style="fill: none; stroke: #000000; stroke-width: 0.8; stroke-linejoin: miter; stroke-linecap: square"/>
   </g>
  </g>
 </g>
 <defs>
  <clipPath id="p6494b4b0cc">
   <rect x="27.249375" y="9.7" width="334.8" height="221.76"/>
  </clipPath>
 </defs>
</svg>
