<?xml version="1.0" encoding="utf-8" standalone="no"?>
<!DOCTYPE svg PUBLIC "-//W3C//DTD SVG 1.1//EN"
  "http://www.w3.org/Graphics/SVG/1.1/DTD/svg11.dtd">
<svg xmlns:xlink="http://www.w3.org/1999/xlink" width="414.46375pt" height="404.47125pt" viewBox="0 0 414.46375 404.47125" xmlns="http://www.w3.org/2000/svg" version="1.1">
 <metadata>
  <rdf:RDF xmlns:dc="http://purl.org/dc/elements/1.1/" xmlns:cc="http://creativecommons.org/ns#" xmlns:rdf="http://www.w3.org/1999/02/22-rdf-syntax-ns#">
   <cc:Work>
    <dc:type rdf:resource="http://purl.org/dc/dcmitype/StillImage"/>
    <dc:date>2025-04-11T15:04:04.807633</dc:date>
    <dc:format>image/svg+xml</dc:format>
    <dc:creator>
     <cc:Agent>
      <dc:title>Matplotlib v3.9.1, https://matplotlib.org/</dc:title>
     </cc:Agent>
    </dc:creator>
   </cc:Work>
  </rdf:RDF>
 </metadata>
 <defs>
  <style type="text/css">*{stroke-linejoin: round; stroke-linecap: butt}</style>
 </defs>
 <g id="figure_1">
  <g id="patch_1">
   <path d="M 0 404.47125 
L 414.46375 404.47125 
L 414.46375 0 
L 0 0 
z
" style="fill: #ffffff"/>
  </g>
  <g id="axes_1">
   <g id="patch_2">
    <path d="M 50.14375 288.430125 
L 407.26375 288.430125 
L 407.26375 22.318125 
L 50.14375 22.318125 
z
" style="fill: #ffffff"/>
   </g>
   <g id="PolyCollection_1"/>
   <g id="PolyCollection_2"/>
   <g id="PolyCollection_3"/>
   <g id="PolyCollection_4"/>
   <g id="PolyCollection_5"/>
   <g id="PolyCollection_6"/>
   <g id="PolyCollection_7"/>
   <g id="PolyCollection_8"/>
   <g id="PolyCollection_9"/>
   <g id="PolyCollection_10"/>
   <g id="PolyCollection_11"/>
   <g id="PolyCollection_12"/>
   <g id="PolyCollection_13"/>
   <g id="PolyCollection_14"/>
   <g id="PolyCollection_15"/>
   <g id="PolyCollection_16"/>
   <g id="PolyCollection_17"/>
   <g id="PolyCollection_18"/>
   <g id="PolyCollection_19"/>
   <g id="PolyCollection_20"/>
   <g id="PolyCollection_21"/>
   <g id="PolyCollection_22"/>
   <g id="PolyCollection_23"/>
   <g id="PolyCollection_24"/>
   <g id="matplotlib.axis_1">
    <g id="xtick_1">
     <g id="line2d_1">
      <defs>
       <path id="me145ddb46a" d="M 0 0 
L 0 3.5 
" style="stroke: #000000; stroke-width: 0.8"/>
      </defs>
      <g>
       <use xlink:href="#me145ddb46a" x="66.376477" y="288.430125" style="stroke: #000000; stroke-width: 0.8"/>
      </g>
     </g>
     <g id="text_1">
      <!-- 0.0 -->
      <g transform="translate(58.424915 303.028562) scale(0.1 -0.1)">
       <defs>
        <path id="DejaVuSans-30" d="M 2034 4250 
Q 1547 4250 1301 3770 
Q 1056 3291 1056 2328 
Q 1056 1369 1301 889 
Q 1547 409 2034 409 
Q 2525 409 2770 889 
Q 3016 1369 3016 2328 
Q 3016 3291 2770 3770 
Q 2525 4250 2034 4250 
z
M 2034 4750 
Q 2819 4750 3233 4129 
Q 3647 3509 3647 2328 
Q 3647 1150 3233 529 
Q 2819 -91 2034 -91 
Q 1250 -91 836 529 
Q 422 1150 422 2328 
Q 422 3509 836 4129 
Q 1250 4750 2034 4750 
z
" transform="scale(0.015625)"/>
        <path id="DejaVuSans-2e" d="M 684 794 
L 1344 794 
L 1344 0 
L 684 0 
L 684 794 
z
" transform="scale(0.015625)"/>
       </defs>
       <use xlink:href="#DejaVuSans-30"/>
       <use xlink:href="#DejaVuSans-2e" x="63.623047"/>
       <use xlink:href="#DejaVuSans-30" x="95.410156"/>
      </g>
     </g>
    </g>
    <g id="xtick_2">
     <g id="line2d_2">
      <g>
       <use xlink:href="#me145ddb46a" x="135.835574" y="288.430125" style="stroke: #000000; stroke-width: 0.8"/>
      </g>
     </g>
     <g id="text_2">
      <!-- 0.2 -->
      <g transform="translate(127.884012 303.028562) scale(0.1 -0.1)">
       <defs>
        <path id="DejaVuSans-32" d="M 1228 531 
L 3431 531 
L 3431 0 
L 469 0 
L 469 531 
Q 828 903 1448 1529 
Q 2069 2156 2228 2338 
Q 2531 2678 2651 2914 
Q 2772 3150 2772 3378 
Q 2772 3750 2511 3984 
Q 2250 4219 1831 4219 
Q 1534 4219 1204 4116 
Q 875 4013 500 3803 
L 500 4441 
Q 881 4594 1212 4672 
Q 1544 4750 1819 4750 
Q 2544 4750 2975 4387 
Q 3406 4025 3406 3419 
Q 3406 3131 3298 2873 
Q 3191 2616 2906 2266 
Q 2828 2175 2409 1742 
Q 1991 1309 1228 531 
z
" transform="scale(0.015625)"/>
       </defs>
       <use xlink:href="#DejaVuSans-30"/>
       <use xlink:href="#DejaVuSans-2e" x="63.623047"/>
       <use xlink:href="#DejaVuSans-32" x="95.410156"/>
      </g>
     </g>
    </g>
    <g id="xtick_3">
     <g id="line2d_3">
      <g>
       <use xlink:href="#me145ddb46a" x="205.294671" y="288.430125" style="stroke: #000000; stroke-width: 0.8"/>
      </g>
     </g>
     <g id="text_3">
      <!-- 0.4 -->
      <g transform="translate(197.343109 303.028562) scale(0.1 -0.1)">
       <defs>
        <path id="DejaVuSans-34" d="M 2419 4116 
L 825 1625 
L 2419 1625 
L 2419 4116 
z
M 2253 4666 
L 3047 4666 
L 3047 1625 
L 3713 1625 
L 3713 1100 
L 3047 1100 
L 3047 0 
L 2419 0 
L 2419 1100 
L 313 1100 
L 313 1709 
L 2253 4666 
z
" transform="scale(0.015625)"/>
       </defs>
       <use xlink:href="#DejaVuSans-30"/>
       <use xlink:href="#DejaVuSans-2e" x="63.623047"/>
       <use xlink:href="#DejaVuSans-34" x="95.410156"/>
      </g>
     </g>
    </g>
    <g id="xtick_4">
     <g id="line2d_4">
      <g>
       <use xlink:href="#me145ddb46a" x="274.753768" y="288.430125" style="stroke: #000000; stroke-width: 0.8"/>
      </g>
     </g>
     <g id="text_4">
      <!-- 0.6 -->
      <g transform="translate(266.802206 303.028562) scale(0.1 -0.1)">
       <defs>
        <path id="DejaVuSans-36" d="M 2113 2584 
Q 1688 2584 1439 2293 
Q 1191 2003 1191 1497 
Q 1191 994 1439 701 
Q 1688 409 2113 409 
Q 2538 409 2786 701 
Q 3034 994 3034 1497 
Q 3034 2003 2786 2293 
Q 2538 2584 2113 2584 
z
M 3366 4563 
L 3366 3988 
Q 3128 4100 2886 4159 
Q 2644 4219 2406 4219 
Q 1781 4219 1451 3797 
Q 1122 3375 1075 2522 
Q 1259 2794 1537 2939 
Q 1816 3084 2150 3084 
Q 2853 3084 3261 2657 
Q 3669 2231 3669 1497 
Q 3669 778 3244 343 
Q 2819 -91 2113 -91 
Q 1303 -91 875 529 
Q 447 1150 447 2328 
Q 447 3434 972 4092 
Q 1497 4750 2381 4750 
Q 2619 4750 2861 4703 
Q 3103 4656 3366 4563 
z
" transform="scale(0.015625)"/>
       </defs>
       <use xlink:href="#DejaVuSans-30"/>
       <use xlink:href="#DejaVuSans-2e" x="63.623047"/>
       <use xlink:href="#DejaVuSans-36" x="95.410156"/>
      </g>
     </g>
    </g>
    <g id="xtick_5">
     <g id="line2d_5">
      <g>
       <use xlink:href="#me145ddb46a" x="344.212865" y="288.430125" style="stroke: #000000; stroke-width: 0.8"/>
      </g>
     </g>
     <g id="text_5">
      <!-- 0.8 -->
      <g transform="translate(336.261303 303.028562) scale(0.1 -0.1)">
       <defs>
        <path id="DejaVuSans-38" d="M 2034 2216 
Q 1584 2216 1326 1975 
Q 1069 1734 1069 1313 
Q 1069 891 1326 650 
Q 1584 409 2034 409 
Q 2484 409 2743 651 
Q 3003 894 3003 1313 
Q 3003 1734 2745 1975 
Q 2488 2216 2034 2216 
z
M 1403 2484 
Q 997 2584 770 2862 
Q 544 3141 544 3541 
Q 544 4100 942 4425 
Q 1341 4750 2034 4750 
Q 2731 4750 3128 4425 
Q 3525 4100 3525 3541 
Q 3525 3141 3298 2862 
Q 3072 2584 2669 2484 
Q 3125 2378 3379 2068 
Q 3634 1759 3634 1313 
Q 3634 634 3220 271 
Q 2806 -91 2034 -91 
Q 1263 -91 848 271 
Q 434 634 434 1313 
Q 434 1759 690 2068 
Q 947 2378 1403 2484 
z
M 1172 3481 
Q 1172 3119 1398 2916 
Q 1625 2713 2034 2713 
Q 2441 2713 2670 2916 
Q 2900 3119 2900 3481 
Q 2900 3844 2670 4047 
Q 2441 4250 2034 4250 
Q 1625 4250 1398 4047 
Q 1172 3844 1172 3481 
z
" transform="scale(0.015625)"/>
       </defs>
       <use xlink:href="#DejaVuSans-30"/>
       <use xlink:href="#DejaVuSans-2e" x="63.623047"/>
       <use xlink:href="#DejaVuSans-38" x="95.410156"/>
      </g>
     </g>
    </g>
    <g id="text_6">
     <!-- Absorbance / Film Thickness -->
     <g transform="translate(157.832656 316.706687) scale(0.1 -0.1)">
      <defs>
       <path id="DejaVuSans-41" d="M 2188 4044 
L 1331 1722 
L 3047 1722 
L 2188 4044 
z
M 1831 4666 
L 2547 4666 
L 4325 0 
L 3669 0 
L 3244 1197 
L 1141 1197 
L 716 0 
L 50 0 
L 1831 4666 
z
" transform="scale(0.015625)"/>
       <path id="DejaVuSans-62" d="M 3116 1747 
Q 3116 2381 2855 2742 
Q 2594 3103 2138 3103 
Q 1681 3103 1420 2742 
Q 1159 2381 1159 1747 
Q 1159 1113 1420 752 
Q 1681 391 2138 391 
Q 2594 391 2855 752 
Q 3116 1113 3116 1747 
z
M 1159 2969 
Q 1341 3281 1617 3432 
Q 1894 3584 2278 3584 
Q 2916 3584 3314 3078 
Q 3713 2572 3713 1747 
Q 3713 922 3314 415 
Q 2916 -91 2278 -91 
Q 1894 -91 1617 61 
Q 1341 213 1159 525 
L 1159 0 
L 581 0 
L 581 4863 
L 1159 4863 
L 1159 2969 
z
" transform="scale(0.015625)"/>
       <path id="DejaVuSans-73" d="M 2834 3397 
L 2834 2853 
Q 2591 2978 2328 3040 
Q 2066 3103 1784 3103 
Q 1356 3103 1142 2972 
Q 928 2841 928 2578 
Q 928 2378 1081 2264 
Q 1234 2150 1697 2047 
L 1894 2003 
Q 2506 1872 2764 1633 
Q 3022 1394 3022 966 
Q 3022 478 2636 193 
Q 2250 -91 1575 -91 
Q 1294 -91 989 -36 
Q 684 19 347 128 
L 347 722 
Q 666 556 975 473 
Q 1284 391 1588 391 
Q 1994 391 2212 530 
Q 2431 669 2431 922 
Q 2431 1156 2273 1281 
Q 2116 1406 1581 1522 
L 1381 1569 
Q 847 1681 609 1914 
Q 372 2147 372 2553 
Q 372 3047 722 3315 
Q 1072 3584 1716 3584 
Q 2034 3584 2315 3537 
Q 2597 3491 2834 3397 
z
" transform="scale(0.015625)"/>
       <path id="DejaVuSans-6f" d="M 1959 3097 
Q 1497 3097 1228 2736 
Q 959 2375 959 1747 
Q 959 1119 1226 758 
Q 1494 397 1959 397 
Q 2419 397 2687 759 
Q 2956 1122 2956 1747 
Q 2956 2369 2687 2733 
Q 2419 3097 1959 3097 
z
M 1959 3584 
Q 2709 3584 3137 3096 
Q 3566 2609 3566 1747 
Q 3566 888 3137 398 
Q 2709 -91 1959 -91 
Q 1206 -91 779 398 
Q 353 888 353 1747 
Q 353 2609 779 3096 
Q 1206 3584 1959 3584 
z
" transform="scale(0.015625)"/>
       <path id="DejaVuSans-72" d="M 2631 2963 
Q 2534 3019 2420 3045 
Q 2306 3072 2169 3072 
Q 1681 3072 1420 2755 
Q 1159 2438 1159 1844 
L 1159 0 
L 581 0 
L 581 3500 
L 1159 3500 
L 1159 2956 
Q 1341 3275 1631 3429 
Q 1922 3584 2338 3584 
Q 2397 3584 2469 3576 
Q 2541 3569 2628 3553 
L 2631 2963 
z
" transform="scale(0.015625)"/>
       <path id="DejaVuSans-61" d="M 2194 1759 
Q 1497 1759 1228 1600 
Q 959 1441 959 1056 
Q 959 750 1161 570 
Q 1363 391 1709 391 
Q 2188 391 2477 730 
Q 2766 1069 2766 1631 
L 2766 1759 
L 2194 1759 
z
M 3341 1997 
L 3341 0 
L 2766 0 
L 2766 531 
Q 2569 213 2275 61 
Q 1981 -91 1556 -91 
Q 1019 -91 701 211 
Q 384 513 384 1019 
Q 384 1609 779 1909 
Q 1175 2209 1959 2209 
L 2766 2209 
L 2766 2266 
Q 2766 2663 2505 2880 
Q 2244 3097 1772 3097 
Q 1472 3097 1187 3025 
Q 903 2953 641 2809 
L 641 3341 
Q 956 3463 1253 3523 
Q 1550 3584 1831 3584 
Q 2591 3584 2966 3190 
Q 3341 2797 3341 1997 
z
" transform="scale(0.015625)"/>
       <path id="DejaVuSans-6e" d="M 3513 2113 
L 3513 0 
L 2938 0 
L 2938 2094 
Q 2938 2591 2744 2837 
Q 2550 3084 2163 3084 
Q 1697 3084 1428 2787 
Q 1159 2491 1159 1978 
L 1159 0 
L 581 0 
L 581 3500 
L 1159 3500 
L 1159 2956 
Q 1366 3272 1645 3428 
Q 1925 3584 2291 3584 
Q 2894 3584 3203 3211 
Q 3513 2838 3513 2113 
z
" transform="scale(0.015625)"/>
       <path id="DejaVuSans-63" d="M 3122 3366 
L 3122 2828 
Q 2878 2963 2633 3030 
Q 2388 3097 2138 3097 
Q 1578 3097 1268 2742 
Q 959 2388 959 1747 
Q 959 1106 1268 751 
Q 1578 397 2138 397 
Q 2388 397 2633 464 
Q 2878 531 3122 666 
L 3122 134 
Q 2881 22 2623 -34 
Q 2366 -91 2075 -91 
Q 1284 -91 818 406 
Q 353 903 353 1747 
Q 353 2603 823 3093 
Q 1294 3584 2113 3584 
Q 2378 3584 2631 3529 
Q 2884 3475 3122 3366 
z
" transform="scale(0.015625)"/>
       <path id="DejaVuSans-65" d="M 3597 1894 
L 3597 1613 
L 953 1613 
Q 991 1019 1311 708 
Q 1631 397 2203 397 
Q 2534 397 2845 478 
Q 3156 559 3463 722 
L 3463 178 
Q 3153 47 2828 -22 
Q 2503 -91 2169 -91 
Q 1331 -91 842 396 
Q 353 884 353 1716 
Q 353 2575 817 3079 
Q 1281 3584 2069 3584 
Q 2775 3584 3186 3129 
Q 3597 2675 3597 1894 
z
M 3022 2063 
Q 3016 2534 2758 2815 
Q 2500 3097 2075 3097 
Q 1594 3097 1305 2825 
Q 1016 2553 972 2059 
L 3022 2063 
z
" transform="scale(0.015625)"/>
       <path id="DejaVuSans-20" transform="scale(0.015625)"/>
       <path id="DejaVuSans-2f" d="M 1625 4666 
L 2156 4666 
L 531 -594 
L 0 -594 
L 1625 4666 
z
" transform="scale(0.015625)"/>
       <path id="DejaVuSans-46" d="M 628 4666 
L 3309 4666 
L 3309 4134 
L 1259 4134 
L 1259 2759 
L 3109 2759 
L 3109 2228 
L 1259 2228 
L 1259 0 
L 628 0 
L 628 4666 
z
" transform="scale(0.015625)"/>
       <path id="DejaVuSans-69" d="M 603 3500 
L 1178 3500 
L 1178 0 
L 603 0 
L 603 3500 
z
M 603 4863 
L 1178 4863 
L 1178 4134 
L 603 4134 
L 603 4863 
z
" transform="scale(0.015625)"/>
       <path id="DejaVuSans-6c" d="M 603 4863 
L 1178 4863 
L 1178 0 
L 603 0 
L 603 4863 
z
" transform="scale(0.015625)"/>
       <path id="DejaVuSans-6d" d="M 3328 2828 
Q 3544 3216 3844 3400 
Q 4144 3584 4550 3584 
Q 5097 3584 5394 3201 
Q 5691 2819 5691 2113 
L 5691 0 
L 5113 0 
L 5113 2094 
Q 5113 2597 4934 2840 
Q 4756 3084 4391 3084 
Q 3944 3084 3684 2787 
Q 3425 2491 3425 1978 
L 3425 0 
L 2847 0 
L 2847 2094 
Q 2847 2600 2669 2842 
Q 2491 3084 2119 3084 
Q 1678 3084 1418 2786 
Q 1159 2488 1159 1978 
L 1159 0 
L 581 0 
L 581 3500 
L 1159 3500 
L 1159 2956 
Q 1356 3278 1631 3431 
Q 1906 3584 2284 3584 
Q 2666 3584 2933 3390 
Q 3200 3197 3328 2828 
z
" transform="scale(0.015625)"/>
       <path id="DejaVuSans-54" d="M -19 4666 
L 3928 4666 
L 3928 4134 
L 2272 4134 
L 2272 0 
L 1638 0 
L 1638 4134 
L -19 4134 
L -19 4666 
z
" transform="scale(0.015625)"/>
       <path id="DejaVuSans-68" d="M 3513 2113 
L 3513 0 
L 2938 0 
L 2938 2094 
Q 2938 2591 2744 2837 
Q 2550 3084 2163 3084 
Q 1697 3084 1428 2787 
Q 1159 2491 1159 1978 
L 1159 0 
L 581 0 
L 581 4863 
L 1159 4863 
L 1159 2956 
Q 1366 3272 1645 3428 
Q 1925 3584 2291 3584 
Q 2894 3584 3203 3211 
Q 3513 2838 3513 2113 
z
" transform="scale(0.015625)"/>
       <path id="DejaVuSans-6b" d="M 581 4863 
L 1159 4863 
L 1159 1991 
L 2875 3500 
L 3609 3500 
L 1753 1863 
L 3688 0 
L 2938 0 
L 1159 1709 
L 1159 0 
L 581 0 
L 581 4863 
z
" transform="scale(0.015625)"/>
      </defs>
      <use xlink:href="#DejaVuSans-41"/>
      <use xlink:href="#DejaVuSans-62" x="68.408203"/>
      <use xlink:href="#DejaVuSans-73" x="131.884766"/>
      <use xlink:href="#DejaVuSans-6f" x="183.984375"/>
      <use xlink:href="#DejaVuSans-72" x="245.166016"/>
      <use xlink:href="#DejaVuSans-62" x="286.279297"/>
      <use xlink:href="#DejaVuSans-61" x="349.755859"/>
      <use xlink:href="#DejaVuSans-6e" x="411.035156"/>
      <use xlink:href="#DejaVuSans-63" x="474.414062"/>
      <use xlink:href="#DejaVuSans-65" x="529.394531"/>
      <use xlink:href="#DejaVuSans-20" x="590.917969"/>
      <use xlink:href="#DejaVuSans-2f" x="622.705078"/>
      <use xlink:href="#DejaVuSans-20" x="656.396484"/>
      <use xlink:href="#DejaVuSans-46" x="688.183594"/>
      <use xlink:href="#DejaVuSans-69" x="738.453125"/>
      <use xlink:href="#DejaVuSans-6c" x="766.236328"/>
      <use xlink:href="#DejaVuSans-6d" x="794.019531"/>
      <use xlink:href="#DejaVuSans-20" x="891.431641"/>
      <use xlink:href="#DejaVuSans-54" x="923.21875"/>
      <use xlink:href="#DejaVuSans-68" x="984.302734"/>
      <use xlink:href="#DejaVuSans-69" x="1047.681641"/>
      <use xlink:href="#DejaVuSans-63" x="1075.464844"/>
      <use xlink:href="#DejaVuSans-6b" x="1130.445312"/>
      <use xlink:href="#DejaVuSans-6e" x="1188.355469"/>
      <use xlink:href="#DejaVuSans-65" x="1251.734375"/>
      <use xlink:href="#DejaVuSans-73" x="1313.257812"/>
      <use xlink:href="#DejaVuSans-73" x="1365.357422"/>
     </g>
    </g>
   </g>
   <g id="matplotlib.axis_2">
    <g id="ytick_1">
     <g id="line2d_6">
      <defs>
       <path id="m89cb89639f" d="M 0 0 
L -3.5 0 
" style="stroke: #000000; stroke-width: 0.8"/>
      </defs>
      <g>
       <use xlink:href="#m89cb89639f" x="50.14375" y="245.470024" style="stroke: #000000; stroke-width: 0.8"/>
      </g>
     </g>
     <g id="text_7">
      <!-- 8.54 -->
      <g transform="translate(20.878125 249.269243) scale(0.1 -0.1)">
       <defs>
        <path id="DejaVuSans-35" d="M 691 4666 
L 3169 4666 
L 3169 4134 
L 1269 4134 
L 1269 2991 
Q 1406 3038 1543 3061 
Q 1681 3084 1819 3084 
Q 2600 3084 3056 2656 
Q 3513 2228 3513 1497 
Q 3513 744 3044 326 
Q 2575 -91 1722 -91 
Q 1428 -91 1123 -41 
Q 819 9 494 109 
L 494 744 
Q 775 591 1075 516 
Q 1375 441 1709 441 
Q 2250 441 2565 725 
Q 2881 1009 2881 1497 
Q 2881 1984 2565 2268 
Q 2250 2553 1709 2553 
Q 1456 2553 1204 2497 
Q 953 2441 691 2322 
L 691 4666 
z
" transform="scale(0.015625)"/>
       </defs>
       <use xlink:href="#DejaVuSans-38"/>
       <use xlink:href="#DejaVuSans-2e" x="63.623047"/>
       <use xlink:href="#DejaVuSans-35" x="95.410156"/>
       <use xlink:href="#DejaVuSans-34" x="159.033203"/>
      </g>
     </g>
    </g>
    <g id="ytick_2">
     <g id="line2d_7">
      <g>
       <use xlink:href="#m89cb89639f" x="50.14375" y="198.655418" style="stroke: #000000; stroke-width: 0.8"/>
      </g>
     </g>
     <g id="text_8">
      <!-- 8.56 -->
      <g transform="translate(20.878125 202.454637) scale(0.1 -0.1)">
       <use xlink:href="#DejaVuSans-38"/>
       <use xlink:href="#DejaVuSans-2e" x="63.623047"/>
       <use xlink:href="#DejaVuSans-35" x="95.410156"/>
       <use xlink:href="#DejaVuSans-36" x="159.033203"/>
      </g>
     </g>
    </g>
    <g id="ytick_3">
     <g id="line2d_8">
      <g>
       <use xlink:href="#m89cb89639f" x="50.14375" y="151.840812" style="stroke: #000000; stroke-width: 0.8"/>
      </g>
     </g>
     <g id="text_9">
      <!-- 8.58 -->
      <g transform="translate(20.878125 155.64003) scale(0.1 -0.1)">
       <use xlink:href="#DejaVuSans-38"/>
       <use xlink:href="#DejaVuSans-2e" x="63.623047"/>
       <use xlink:href="#DejaVuSans-35" x="95.410156"/>
       <use xlink:href="#DejaVuSans-38" x="159.033203"/>
      </g>
     </g>
    </g>
    <g id="ytick_4">
     <g id="line2d_9">
      <g>
       <use xlink:href="#m89cb89639f" x="50.14375" y="105.026205" style="stroke: #000000; stroke-width: 0.8"/>
      </g>
     </g>
     <g id="text_10">
      <!-- 8.60 -->
      <g transform="translate(20.878125 108.825424) scale(0.1 -0.1)">
       <use xlink:href="#DejaVuSans-38"/>
       <use xlink:href="#DejaVuSans-2e" x="63.623047"/>
       <use xlink:href="#DejaVuSans-36" x="95.410156"/>
       <use xlink:href="#DejaVuSans-30" x="159.033203"/>
      </g>
     </g>
    </g>
    <g id="ytick_5">
     <g id="line2d_10">
      <g>
       <use xlink:href="#m89cb89639f" x="50.14375" y="58.211599" style="stroke: #000000; stroke-width: 0.8"/>
      </g>
     </g>
     <g id="text_11">
      <!-- 8.62 -->
      <g transform="translate(20.878125 62.010817) scale(0.1 -0.1)">
       <use xlink:href="#DejaVuSans-38"/>
       <use xlink:href="#DejaVuSans-2e" x="63.623047"/>
       <use xlink:href="#DejaVuSans-36" x="95.410156"/>
       <use xlink:href="#DejaVuSans-32" x="159.033203"/>
      </g>
     </g>
    </g>
    <g id="text_12">
     <!-- Wavelength -->
     <g transform="translate(14.798438 185.036625) rotate(-90) scale(0.1 -0.1)">
      <defs>
       <path id="DejaVuSans-57" d="M 213 4666 
L 850 4666 
L 1831 722 
L 2809 4666 
L 3519 4666 
L 4500 722 
L 5478 4666 
L 6119 4666 
L 4947 0 
L 4153 0 
L 3169 4050 
L 2175 0 
L 1381 0 
L 213 4666 
z
" transform="scale(0.015625)"/>
       <path id="DejaVuSans-76" d="M 191 3500 
L 800 3500 
L 1894 563 
L 2988 3500 
L 3597 3500 
L 2284 0 
L 1503 0 
L 191 3500 
z
" transform="scale(0.015625)"/>
       <path id="DejaVuSans-67" d="M 2906 1791 
Q 2906 2416 2648 2759 
Q 2391 3103 1925 3103 
Q 1463 3103 1205 2759 
Q 947 2416 947 1791 
Q 947 1169 1205 825 
Q 1463 481 1925 481 
Q 2391 481 2648 825 
Q 2906 1169 2906 1791 
z
M 3481 434 
Q 3481 -459 3084 -895 
Q 2688 -1331 1869 -1331 
Q 1566 -1331 1297 -1286 
Q 1028 -1241 775 -1147 
L 775 -588 
Q 1028 -725 1275 -790 
Q 1522 -856 1778 -856 
Q 2344 -856 2625 -561 
Q 2906 -266 2906 331 
L 2906 616 
Q 2728 306 2450 153 
Q 2172 0 1784 0 
Q 1141 0 747 490 
Q 353 981 353 1791 
Q 353 2603 747 3093 
Q 1141 3584 1784 3584 
Q 2172 3584 2450 3431 
Q 2728 3278 2906 2969 
L 2906 3500 
L 3481 3500 
L 3481 434 
z
" transform="scale(0.015625)"/>
       <path id="DejaVuSans-74" d="M 1172 4494 
L 1172 3500 
L 2356 3500 
L 2356 3053 
L 1172 3053 
L 1172 1153 
Q 1172 725 1289 603 
Q 1406 481 1766 481 
L 2356 481 
L 2356 0 
L 1766 0 
Q 1100 0 847 248 
Q 594 497 594 1153 
L 594 3053 
L 172 3053 
L 172 3500 
L 594 3500 
L 594 4494 
L 1172 4494 
z
" transform="scale(0.015625)"/>
      </defs>
      <use xlink:href="#DejaVuSans-57"/>
      <use xlink:href="#DejaVuSans-61" x="92.501953"/>
      <use xlink:href="#DejaVuSans-76" x="153.78125"/>
      <use xlink:href="#DejaVuSans-65" x="212.960938"/>
      <use xlink:href="#DejaVuSans-6c" x="274.484375"/>
      <use xlink:href="#DejaVuSans-65" x="302.267578"/>
      <use xlink:href="#DejaVuSans-6e" x="363.791016"/>
      <use xlink:href="#DejaVuSans-67" x="427.169922"/>
      <use xlink:href="#DejaVuSans-74" x="490.646484"/>
      <use xlink:href="#DejaVuSans-68" x="529.855469"/>
     </g>
    </g>
   </g>
   <g id="line2d_11">
    <path d="M 66.376477 213.687402 
L 76.810274 207.537148 
L 87.244072 201.661207 
L 96.982282 196.424486 
L 106.720493 191.426723 
L 116.458704 186.667918 
L 126.196915 182.148069 
L 135.935125 177.867178 
L 145.673336 173.825244 
L 155.411547 170.022267 
L 165.149757 166.458248 
L 174.887968 163.133185 
L 184.626179 160.04708 
L 194.36439 157.199933 
L 204.1026 154.591742 
L 213.840811 152.222509 
L 223.579022 150.092233 
L 233.317233 148.200914 
L 243.055443 146.548553 
L 252.793654 145.135148 
L 262.531865 143.960701 
L 272.270075 143.025212 
L 282.008286 142.328679 
L 291.746497 141.871104 
L 301.484708 141.652486 
L 311.222918 141.672825 
L 320.961129 141.932122 
L 330.69934 142.430375 
L 340.437551 143.167586 
L 343.915483 143.488787 
L 343.915483 143.488787 
" clip-path="url(#pc67133f999)" style="fill: none; stroke: #66c2a5; stroke-width: 1.5; stroke-linecap: square"/>
   </g>
   <g id="line2d_12">
    <path d="M 66.376477 244.188312 
L 74.896346 235.18174 
L 83.416215 226.50465 
L 91.936084 218.157042 
L 100.455954 210.138916 
L 108.975823 202.450272 
L 116.721158 195.74651 
L 124.466494 189.315047 
L 132.211829 183.155883 
L 139.957165 177.269019 
L 147.7025 171.654454 
L 155.447836 166.312188 
L 163.193171 161.242222 
L 170.938507 156.444555 
L 178.683842 151.919187 
L 186.429178 147.666118 
L 194.174513 143.685349 
L 201.919849 139.976879 
L 208.890651 136.872072 
L 215.861453 133.987827 
L 222.832255 131.324145 
L 229.803056 128.881025 
L 236.773858 126.658467 
L 243.74466 124.656472 
L 250.715462 122.875039 
L 257.686264 121.314169 
L 264.657066 119.973861 
L 271.627868 118.854115 
L 278.59867 117.954932 
L 285.569472 117.276311 
L 292.540274 116.818253 
L 299.511076 116.580757 
L 306.481878 116.563824 
L 313.45268 116.767453 
L 320.423482 117.191644 
L 327.394284 117.836398 
L 334.365086 118.701714 
L 341.335888 119.787593 
L 348.30669 121.094034 
L 355.277492 122.621037 
L 362.248294 124.368603 
L 369.219096 126.336731 
L 375.415364 128.271342 
L 375.415364 128.271342 
" clip-path="url(#pc67133f999)" style="fill: none; stroke: #fc8d62; stroke-width: 1.5; stroke-linecap: square"/>
   </g>
   <g id="line2d_13">
    <path d="M 66.376477 193.538321 
L 74.260784 186.188156 
L 82.145091 179.151233 
L 90.029397 172.427552 
L 97.420935 166.408589 
L 104.812472 160.664937 
L 112.20401 155.196595 
L 119.595547 150.003564 
L 126.987084 145.085844 
L 134.378622 140.443434 
L 141.770159 136.076335 
L 148.668928 132.248768 
L 155.567696 128.661026 
L 162.466464 125.313111 
L 169.365233 122.205022 
L 176.264001 119.336759 
L 183.162769 116.708322 
L 190.061537 114.319711 
L 196.960306 112.170927 
L 203.859074 110.261968 
L 210.757842 108.592836 
L 217.656611 107.16353 
L 224.555379 105.97405 
L 231.454147 105.024396 
L 238.352915 104.314569 
L 245.251684 103.844567 
L 251.657683 103.62288 
L 258.063682 103.607981 
L 262.991374 103.737235 
L 262.991374 103.737235 
" clip-path="url(#pc67133f999)" style="fill: none; stroke: #8da0cb; stroke-width: 1.5; stroke-linecap: square"/>
   </g>
   <g id="line2d_14">
    <path d="M 66.376477 158.693312 
L 75.886325 152.867651 
L 85.396173 147.301863 
L 94.906022 141.99595 
L 104.41587 136.949909 
L 113.925718 132.163743 
L 123.435566 127.63745 
L 132.945414 123.371031 
L 142.455262 119.364486 
L 151.285835 115.876815 
L 160.116409 112.613219 
L 168.946982 109.573698 
L 177.777555 106.758252 
L 186.608128 104.16688 
L 195.438702 101.799584 
L 204.269275 99.656362 
L 213.099848 97.737214 
L 221.930421 96.042142 
L 230.760994 94.571144 
L 239.591568 93.324221 
L 248.422141 92.301373 
L 257.252714 91.502599 
L 266.083287 90.927901 
L 274.913861 90.577277 
L 283.744434 90.450727 
L 292.575007 90.548253 
L 301.40558 90.869853 
L 310.236154 91.415528 
L 319.066727 92.185278 
L 327.8973 93.179103 
L 336.727873 94.397002 
L 337.407148 94.499968 
L 337.407148 94.499968 
" clip-path="url(#pc67133f999)" style="fill: none; stroke: #e78ac3; stroke-width: 1.5; stroke-linecap: square"/>
   </g>
   <g id="line2d_15">
    <path d="M 66.376477 106.05423 
L 90.970976 102.091905 
L 115.565475 98.353897 
L 140.159974 94.840206 
L 164.754473 91.550832 
L 189.348972 88.485775 
L 213.943471 85.645036 
L 238.537969 83.028614 
L 263.132468 80.636508 
L 287.726967 78.46872 
L 312.321466 76.52525 
L 317.99712 76.108612 
L 317.99712 76.108612 
" clip-path="url(#pc67133f999)" style="fill: none; stroke: #a6d854; stroke-width: 1.5; stroke-linecap: square"/>
   </g>
   <g id="line2d_16">
    <path d="M 66.376477 190.817149 
L 74.264863 181.546476 
L 82.15325 172.626064 
L 90.041636 164.055914 
L 97.930022 155.836026 
L 105.161043 148.608823 
L 112.392063 141.675938 
L 119.623084 135.03737 
L 126.854105 128.693119 
L 134.085125 122.643185 
L 141.316146 116.887568 
L 148.547167 111.426268 
L 155.778187 106.259286 
L 163.009208 101.386621 
L 169.582863 97.212324 
L 176.156518 93.281265 
L 182.730174 89.593442 
L 189.303829 86.148858 
L 195.877484 82.94751 
L 202.451139 79.9894 
L 209.024794 77.274527 
L 215.598449 74.802892 
L 222.172104 72.574493 
L 228.74576 70.589332 
L 235.319415 68.847409 
L 241.89307 67.348722 
L 248.466725 66.093273 
L 255.04038 65.081061 
L 261.614035 64.312087 
L 268.187691 63.78635 
L 274.761346 63.50385 
L 281.335001 63.464587 
L 287.908656 63.668562 
L 294.482311 64.115774 
L 301.055966 64.806223 
L 307.629621 65.73991 
L 314.203277 66.916834 
L 320.776932 68.336995 
L 327.350587 70.000393 
L 328.665318 70.362261 
L 328.665318 70.362261 
" clip-path="url(#pc67133f999)" style="fill: none; stroke: #ffd92f; stroke-width: 1.5; stroke-linecap: square"/>
   </g>
   <g id="line2d_17">
    <path d="M 66.376477 220.616822 
L 73.764835 208.924795 
L 81.153193 197.623403 
L 88.541551 186.712646 
L 95.929908 176.192525 
L 103.318266 166.063038 
L 110.706624 156.324186 
L 118.094982 146.97597 
L 125.48334 138.018388 
L 132.132862 130.290558 
L 138.782384 122.879142 
L 145.431906 115.78414 
L 152.081428 109.005553 
L 158.73095 102.54338 
L 165.380472 96.397622 
L 172.029994 90.568278 
L 178.679516 85.055348 
L 185.329038 79.858833 
L 191.239724 75.50534 
L 197.15041 71.401853 
L 203.061096 67.548373 
L 208.971783 63.9449 
L 214.882469 60.591433 
L 220.793155 57.487972 
L 226.703841 54.634518 
L 232.614528 52.03107 
L 238.525214 49.677629 
L 244.4359 47.574194 
L 250.346586 45.720765 
L 256.257272 44.117343 
L 262.167959 42.763928 
L 268.078645 41.660518 
L 273.989331 40.807116 
L 279.900017 40.203719 
L 285.810704 39.850329 
L 291.72139 39.746946 
L 297.632076 39.893569 
L 303.542762 40.290198 
L 309.453449 40.936834 
L 315.364135 41.833476 
L 321.274821 42.980125 
L 327.185507 44.37678 
L 333.096193 46.023442 
L 339.00688 47.92011 
L 344.917566 50.066784 
L 350.828252 52.463465 
L 356.738938 55.110152 
L 361.171953 57.259234 
L 361.171953 57.259234 
" clip-path="url(#pc67133f999)" style="fill: none; stroke: #e5c494; stroke-width: 1.5; stroke-linecap: square"/>
   </g>
   <g id="line2d_18">
    <path d="M 66.376477 146.677467 
L 75.326853 138.876233 
L 84.277229 131.355902 
L 93.227605 124.116476 
L 102.177981 117.157953 
L 111.128357 110.480334 
L 120.078733 104.083618 
L 129.029109 97.967806 
L 137.979485 92.132898 
L 146.929861 86.578894 
L 155.880237 81.305793 
L 164.830613 76.313596 
L 172.967318 72.018994 
L 181.104023 67.956544 
L 189.240729 64.126246 
L 197.377434 60.5281 
L 205.51414 57.162106 
L 213.650845 54.028263 
L 221.78755 51.126572 
L 229.924256 48.457034 
L 238.060961 46.019646 
L 246.197667 43.814411 
L 254.334372 41.841328 
L 262.471077 40.100396 
L 270.607783 38.591616 
L 278.744488 37.314988 
L 286.881194 36.270512 
L 295.017899 35.458187 
L 303.154604 34.878015 
L 311.29131 34.529994 
L 319.428015 34.414125 
L 327.564721 34.530408 
L 335.701426 34.878842 
L 343.838131 35.459429 
L 351.974837 36.272167 
L 360.111542 37.317057 
L 368.248248 38.594099 
L 376.384953 40.103293 
L 384.521658 41.844638 
L 391.031023 43.404864 
L 391.031023 43.404864 
" clip-path="url(#pc67133f999)" style="fill: none; stroke: #b3b3b3; stroke-width: 1.5; stroke-linecap: square"/>
   </g>
   <g id="line2d_19">
    <path d="M 66.376477 139.333943 
L 74.735359 131.847625 
L 83.09424 124.654116 
L 91.453121 117.753415 
L 99.812003 111.145522 
L 108.170884 104.830437 
L 116.529766 98.808159 
L 124.331388 93.451545 
L 132.133011 88.35 
L 139.934633 83.503522 
L 147.736256 78.912113 
L 155.537879 74.575773 
L 163.339501 70.4945 
L 171.141124 66.668296 
L 178.942746 63.09716 
L 186.744369 59.781093 
L 194.545992 56.720094 
L 202.347614 53.914163 
L 209.591978 51.537047 
L 216.836342 49.379861 
L 224.080706 47.442607 
L 231.32507 45.725284 
L 238.569434 44.227893 
L 245.813797 42.950433 
L 253.058161 41.892905 
L 260.302525 41.055307 
L 267.546889 40.437642 
L 274.791253 40.039907 
L 282.035617 39.862104 
L 288.722722 39.893184 
L 288.722722 39.893184 
" clip-path="url(#pc67133f999)" style="fill: none; stroke: #66c2a5; stroke-width: 1.5; stroke-linecap: square"/>
   </g>
   <g id="line2d_20">
    <path d="M 66.376477 169.902404 
L 74.191532 160.335496 
L 82.006587 151.138132 
L 89.263423 142.928613 
L 96.52026 135.037731 
L 103.777096 127.465485 
L 111.033933 120.211876 
L 118.290769 113.276903 
L 125.547605 106.660567 
L 132.804442 100.362866 
L 139.50306 94.832418 
L 146.201679 89.57347 
L 152.900297 84.586024 
L 159.598915 79.870078 
L 166.297533 75.425633 
L 172.996152 71.252688 
L 179.69477 67.351245 
L 186.393388 63.721302 
L 193.092007 60.36286 
L 199.232407 57.522794 
L 205.372807 54.910864 
L 211.513207 52.527071 
L 217.653607 50.371413 
L 223.794007 48.443892 
L 229.934407 46.744506 
L 236.074807 45.273257 
L 242.215207 44.030144 
L 248.355607 43.015167 
L 254.496007 42.228326 
L 260.636408 41.669621 
L 266.776808 41.339052 
L 272.917208 41.23662 
L 279.057608 41.362323 
L 285.198008 41.716162 
L 289.105535 42.060115 
L 289.105535 42.060115 
" clip-path="url(#pc67133f999)" style="fill: none; stroke: #fc8d62; stroke-width: 1.5; stroke-linecap: square"/>
   </g>
   <g id="line2d_21">
    <path d="M 66.376477 276.334125 
L 72.49018 259.598776 
L 78.603883 243.486345 
L 84.717586 227.996833 
L 90.831289 213.130241 
L 96.944992 198.886567 
L 102.54922 186.377084 
L 108.153448 174.391025 
L 113.757676 162.928391 
L 119.361903 151.989182 
L 124.966131 141.573398 
L 130.060884 132.558716 
L 135.155636 123.976616 
L 140.250389 115.827098 
L 145.345141 108.110164 
L 150.439894 100.825811 
L 155.025171 94.639753 
L 159.610448 88.804086 
L 164.195726 83.318811 
L 168.781003 78.183928 
L 173.36628 73.399437 
L 177.951557 68.965338 
L 182.027359 65.318072 
L 186.103161 61.94766 
L 190.178963 58.8541 
L 194.254765 56.037394 
L 198.330567 53.49754 
L 202.406369 51.234539 
L 206.482172 49.248391 
L 210.557974 47.539096 
L 214.1243 46.270569 
L 217.690627 45.214007 
L 221.256954 44.36941 
L 224.823281 43.736779 
L 228.389607 43.316114 
L 231.955934 43.107414 
L 235.522261 43.11068 
L 239.088588 43.325911 
L 242.654914 43.753107 
L 246.221241 44.392269 
L 249.787568 45.243397 
L 253.353895 46.30649 
L 256.920221 47.581548 
L 260.486548 49.068572 
L 264.56235 51.027578 
L 268.638152 53.263436 
L 269.657103 53.865659 
L 269.657103 53.865659 
" clip-path="url(#pc67133f999)" style="fill: none; stroke: #8da0cb; stroke-width: 1.5; stroke-linecap: square"/>
   </g>
   <g id="line2d_22">
    <path d="M 66.376477 202.199222 
L 72.375492 191.541967 
L 78.374508 181.356514 
L 83.945022 172.321051 
L 89.515536 163.692397 
L 95.08605 155.470554 
L 100.656564 147.655521 
L 106.227078 140.247297 
L 111.369091 133.770011 
L 116.511104 127.639356 
L 121.653117 121.855332 
L 126.79513 116.417939 
L 131.508642 111.738168 
L 136.222154 107.349664 
L 140.935665 103.252425 
L 145.649177 99.446453 
L 150.362689 95.931747 
L 155.076201 92.708308 
L 159.789713 89.776135 
L 164.074724 87.363275 
L 168.359735 85.191131 
L 172.644745 83.259703 
L 176.929756 81.568991 
L 181.214767 80.118995 
L 185.499778 78.909715 
L 189.784789 77.941151 
L 194.069799 77.213303 
L 198.35481 76.726171 
L 202.639821 76.479755 
L 206.924832 76.474055 
L 211.209843 76.709071 
L 215.494854 77.184803 
L 219.779864 77.90125 
L 224.064875 78.858414 
L 228.349886 80.056294 
L 232.634897 81.49489 
L 236.919908 83.174202 
L 237.348409 83.355373 
L 237.348409 83.355373 
" clip-path="url(#pc67133f999)" style="fill: none; stroke: #e78ac3; stroke-width: 1.5; stroke-linecap: square"/>
   </g>
   <g id="line2d_23"/>
   <g id="line2d_24"/>
   <g id="line2d_25"/>
   <g id="line2d_26"/>
   <g id="line2d_27"/>
   <g id="line2d_28"/>
   <g id="line2d_29"/>
   <g id="line2d_30"/>
   <g id="line2d_31"/>
   <g id="line2d_32"/>
   <g id="line2d_33"/>
   <g id="line2d_34"/>
   <g id="line2d_35">
    <path d="M 135.221441 178.404894 
L 208.15449 152.840608 
L 276.716582 143.444284 
L 343.915483 143.226245 
" clip-path="url(#pc67133f999)" style="fill: none; stroke: #66c2a5; stroke-width: 1.5; stroke-linecap: square"/>
    <defs>
     <path id="mdce914d60e" d="M 0 3 
C 0.795609 3 1.55874 2.683901 2.12132 2.12132 
C 2.683901 1.55874 3 0.795609 3 0 
C 3 -0.795609 2.683901 -1.55874 2.12132 -2.12132 
C 1.55874 -2.683901 0.795609 -3 0 -3 
C -0.795609 -3 -1.55874 -2.683901 -2.12132 -2.12132 
C -2.683901 -1.55874 -3 -0.795609 -3 0 
C -3 0.795609 -2.683901 1.55874 -2.12132 2.12132 
C -1.55874 2.683901 -0.795609 3 0 3 
z
" style="stroke: #ffffff; stroke-width: 0.75"/>
    </defs>
    <g clip-path="url(#pc67133f999)">
     <use xlink:href="#mdce914d60e" x="135.221441" y="178.404894" style="fill: #66c2a5; stroke: #ffffff; stroke-width: 0.75"/>
     <use xlink:href="#mdce914d60e" x="208.15449" y="152.840608" style="fill: #66c2a5; stroke: #ffffff; stroke-width: 0.75"/>
     <use xlink:href="#mdce914d60e" x="276.716582" y="143.444284" style="fill: #66c2a5; stroke: #ffffff; stroke-width: 0.75"/>
     <use xlink:href="#mdce914d60e" x="343.915483" y="143.226245" style="fill: #66c2a5; stroke: #ffffff; stroke-width: 0.75"/>
    </g>
   </g>
   <g id="line2d_36">
    <path d="M 118.111537 199.838353 
L 184.995445 136.175731 
L 257.775006 126.998687 
L 320.710161 122.844593 
L 375.415364 123.928305 
" clip-path="url(#pc67133f999)" style="fill: none; stroke: #fc8d62; stroke-width: 1.5; stroke-linecap: square"/>
    <defs>
     <path id="mda9d1d0845" d="M 0 3 
C 0.795609 3 1.55874 2.683901 2.12132 2.12132 
C 2.683901 1.55874 3 0.795609 3 0 
C 3 -0.795609 2.683901 -1.55874 2.12132 -2.12132 
C 1.55874 -2.683901 0.795609 -3 0 -3 
C -0.795609 -3 -1.55874 -2.683901 -2.12132 -2.12132 
C -2.683901 -1.55874 -3 -0.795609 -3 0 
C -3 0.795609 -2.683901 1.55874 -2.12132 2.12132 
C -1.55874 2.683901 -0.795609 3 0 3 
z
" style="stroke: #ffffff; stroke-width: 0.75"/>
    </defs>
    <g clip-path="url(#pc67133f999)">
     <use xlink:href="#mda9d1d0845" x="118.111537" y="199.838353" style="fill: #fc8d62; stroke: #ffffff; stroke-width: 0.75"/>
     <use xlink:href="#mda9d1d0845" x="184.995445" y="136.175731" style="fill: #fc8d62; stroke: #ffffff; stroke-width: 0.75"/>
     <use xlink:href="#mda9d1d0845" x="257.775006" y="126.998687" style="fill: #fc8d62; stroke: #ffffff; stroke-width: 0.75"/>
     <use xlink:href="#mda9d1d0845" x="320.710161" y="122.844593" style="fill: #fc8d62; stroke: #ffffff; stroke-width: 0.75"/>
     <use xlink:href="#mda9d1d0845" x="375.415364" y="123.928305" style="fill: #fc8d62; stroke: #ffffff; stroke-width: 0.75"/>
    </g>
   </g>
   <g id="line2d_37">
    <path d="M 135.175341 139.959475 
L 203.548945 110.342636 
L 262.991374 103.737235 
" clip-path="url(#pc67133f999)" style="fill: none; stroke: #8da0cb; stroke-width: 1.5; stroke-linecap: square"/>
    <defs>
     <path id="mcaae43442d" d="M 0 3 
C 0.795609 3 1.55874 2.683901 2.12132 2.12132 
C 2.683901 1.55874 3 0.795609 3 0 
C 3 -0.795609 2.683901 -1.55874 2.12132 -2.12132 
C 1.55874 -2.683901 0.795609 -3 0 -3 
C -0.795609 -3 -1.55874 -2.683901 -2.12132 -2.12132 
C -2.683901 -1.55874 -3 -0.795609 -3 0 
C -3 0.795609 -2.683901 1.55874 -2.12132 2.12132 
C -1.55874 2.683901 -0.795609 3 0 3 
z
" style="stroke: #ffffff; stroke-width: 0.75"/>
    </defs>
    <g clip-path="url(#pc67133f999)">
     <use xlink:href="#mcaae43442d" x="135.175341" y="139.959475" style="fill: #8da0cb; stroke: #ffffff; stroke-width: 0.75"/>
     <use xlink:href="#mcaae43442d" x="203.548945" y="110.342636" style="fill: #8da0cb; stroke: #ffffff; stroke-width: 0.75"/>
     <use xlink:href="#mcaae43442d" x="262.991374" y="103.737235" style="fill: #8da0cb; stroke: #ffffff; stroke-width: 0.75"/>
    </g>
   </g>
   <g id="line2d_38">
    <path d="M 134.594024 123.793338 
L 202.925144 96.517721 
L 270.32458 94.219404 
L 337.000601 93.82148 
L 337.407148 93.943713 
" clip-path="url(#pc67133f999)" style="fill: none; stroke: #e78ac3; stroke-width: 1.5; stroke-linecap: square"/>
    <defs>
     <path id="ma13eeb67e5" d="M 0 3 
C 0.795609 3 1.55874 2.683901 2.12132 2.12132 
C 2.683901 1.55874 3 0.795609 3 0 
C 3 -0.795609 2.683901 -1.55874 2.12132 -2.12132 
C 1.55874 -2.683901 0.795609 -3 0 -3 
C -0.795609 -3 -1.55874 -2.683901 -2.12132 -2.12132 
C -2.683901 -1.55874 -3 -0.795609 -3 0 
C -3 0.795609 -2.683901 1.55874 -2.12132 2.12132 
C -1.55874 2.683901 -0.795609 3 0 3 
z
" style="stroke: #ffffff; stroke-width: 0.75"/>
    </defs>
    <g clip-path="url(#pc67133f999)">
     <use xlink:href="#ma13eeb67e5" x="134.594024" y="123.793338" style="fill: #e78ac3; stroke: #ffffff; stroke-width: 0.75"/>
     <use xlink:href="#ma13eeb67e5" x="202.925144" y="96.517721" style="fill: #e78ac3; stroke: #ffffff; stroke-width: 0.75"/>
     <use xlink:href="#ma13eeb67e5" x="270.32458" y="94.219404" style="fill: #e78ac3; stroke: #ffffff; stroke-width: 0.75"/>
     <use xlink:href="#ma13eeb67e5" x="337.000601" y="93.82148" style="fill: #e78ac3; stroke: #ffffff; stroke-width: 0.75"/>
     <use xlink:href="#ma13eeb67e5" x="337.407148" y="93.943713" style="fill: #e78ac3; stroke: #ffffff; stroke-width: 0.75"/>
    </g>
   </g>
   <g id="line2d_39">
    <path d="M 181.870313 89.394059 
L 255.337433 81.370386 
L 317.99712 76.108612 
" clip-path="url(#pc67133f999)" style="fill: none; stroke: #a6d854; stroke-width: 1.5; stroke-linecap: square"/>
    <defs>
     <path id="mef9ab8c5e7" d="M 0 3 
C 0.795609 3 1.55874 2.683901 2.12132 2.12132 
C 2.683901 1.55874 3 0.795609 3 0 
C 3 -0.795609 2.683901 -1.55874 2.12132 -2.12132 
C 1.55874 -2.683901 0.795609 -3 0 -3 
C -0.795609 -3 -1.55874 -2.683901 -2.12132 -2.12132 
C -2.683901 -1.55874 -3 -0.795609 -3 0 
C -3 0.795609 -2.683901 1.55874 -2.12132 2.12132 
C -1.55874 2.683901 -0.795609 3 0 3 
z
" style="stroke: #ffffff; stroke-width: 0.75"/>
    </defs>
    <g clip-path="url(#pc67133f999)">
     <use xlink:href="#mef9ab8c5e7" x="181.870313" y="89.394059" style="fill: #a6d854; stroke: #ffffff; stroke-width: 0.75"/>
     <use xlink:href="#mef9ab8c5e7" x="255.337433" y="81.370386" style="fill: #a6d854; stroke: #ffffff; stroke-width: 0.75"/>
     <use xlink:href="#mef9ab8c5e7" x="317.99712" y="76.108612" style="fill: #a6d854; stroke: #ffffff; stroke-width: 0.75"/>
    </g>
   </g>
   <g id="line2d_40">
    <path d="M 128.99071 128.839625 
L 193.162372 78.841344 
L 267.369474 69.373301 
L 328.665318 68.261665 
" clip-path="url(#pc67133f999)" style="fill: none; stroke: #ffd92f; stroke-width: 1.5; stroke-linecap: square"/>
    <defs>
     <path id="m0d01c5fc67" d="M 0 3 
C 0.795609 3 1.55874 2.683901 2.12132 2.12132 
C 2.683901 1.55874 3 0.795609 3 0 
C 3 -0.795609 2.683901 -1.55874 2.12132 -2.12132 
C 1.55874 -2.683901 0.795609 -3 0 -3 
C -0.795609 -3 -1.55874 -2.683901 -2.12132 -2.12132 
C -2.683901 -1.55874 -3 -0.795609 -3 0 
C -3 0.795609 -2.683901 1.55874 -2.12132 2.12132 
C -1.55874 2.683901 -0.795609 3 0 3 
z
" style="stroke: #ffffff; stroke-width: 0.75"/>
    </defs>
    <g clip-path="url(#pc67133f999)">
     <use xlink:href="#m0d01c5fc67" x="128.99071" y="128.839625" style="fill: #ffd92f; stroke: #ffffff; stroke-width: 0.75"/>
     <use xlink:href="#m0d01c5fc67" x="193.162372" y="78.841344" style="fill: #ffd92f; stroke: #ffffff; stroke-width: 0.75"/>
     <use xlink:href="#m0d01c5fc67" x="267.369474" y="69.373301" style="fill: #ffd92f; stroke: #ffffff; stroke-width: 0.75"/>
     <use xlink:href="#m0d01c5fc67" x="328.665318" y="68.261665" style="fill: #ffd92f; stroke: #ffffff; stroke-width: 0.75"/>
    </g>
   </g>
   <g id="line2d_41">
    <path d="M 116.736594 156.343885 
L 181.707959 64.403837 
L 247.417852 53.997629 
L 301.48955 49.455371 
L 361.171953 51.105282 
" clip-path="url(#pc67133f999)" style="fill: none; stroke: #e5c494; stroke-width: 1.5; stroke-linecap: square"/>
    <defs>
     <path id="ma8991f70be" d="M 0 3 
C 0.795609 3 1.55874 2.683901 2.12132 2.12132 
C 2.683901 1.55874 3 0.795609 3 0 
C 3 -0.795609 2.683901 -1.55874 2.12132 -2.12132 
C 1.55874 -2.683901 0.795609 -3 0 -3 
C -0.795609 -3 -1.55874 -2.683901 -2.12132 -2.12132 
C -2.683901 -1.55874 -3 -0.795609 -3 0 
C -3 0.795609 -2.683901 1.55874 -2.12132 2.12132 
C -1.55874 2.683901 -0.795609 3 0 3 
z
" style="stroke: #ffffff; stroke-width: 0.75"/>
    </defs>
    <g clip-path="url(#pc67133f999)">
     <use xlink:href="#ma8991f70be" x="116.736594" y="156.343885" style="fill: #e5c494; stroke: #ffffff; stroke-width: 0.75"/>
     <use xlink:href="#ma8991f70be" x="181.707959" y="64.403837" style="fill: #e5c494; stroke: #ffffff; stroke-width: 0.75"/>
     <use xlink:href="#ma8991f70be" x="247.417852" y="53.997629" style="fill: #e5c494; stroke: #ffffff; stroke-width: 0.75"/>
     <use xlink:href="#ma8991f70be" x="301.48955" y="49.455371" style="fill: #e5c494; stroke: #ffffff; stroke-width: 0.75"/>
     <use xlink:href="#ma8991f70be" x="361.171953" y="51.105282" style="fill: #e5c494; stroke: #ffffff; stroke-width: 0.75"/>
    </g>
   </g>
   <g id="line2d_42">
    <path d="M 130.064291 101.376281 
L 196.402834 51.851062 
L 263.050084 42.579874 
L 328.719892 40.485786 
L 391.031023 39.888385 
" clip-path="url(#pc67133f999)" style="fill: none; stroke: #b3b3b3; stroke-width: 1.5; stroke-linecap: square"/>
    <defs>
     <path id="mf96168cc2d" d="M 0 3 
C 0.795609 3 1.55874 2.683901 2.12132 2.12132 
C 2.683901 1.55874 3 0.795609 3 0 
C 3 -0.795609 2.683901 -1.55874 2.12132 -2.12132 
C 1.55874 -2.683901 0.795609 -3 0 -3 
C -0.795609 -3 -1.55874 -2.683901 -2.12132 -2.12132 
C -2.683901 -1.55874 -3 -0.795609 -3 0 
C -3 0.795609 -2.683901 1.55874 -2.12132 2.12132 
C -1.55874 2.683901 -0.795609 3 0 3 
z
" style="stroke: #ffffff; stroke-width: 0.75"/>
    </defs>
    <g clip-path="url(#pc67133f999)">
     <use xlink:href="#mf96168cc2d" x="130.064291" y="101.376281" style="fill: #b3b3b3; stroke: #ffffff; stroke-width: 0.75"/>
     <use xlink:href="#mf96168cc2d" x="196.402834" y="51.851062" style="fill: #b3b3b3; stroke: #ffffff; stroke-width: 0.75"/>
     <use xlink:href="#mf96168cc2d" x="263.050084" y="42.579874" style="fill: #b3b3b3; stroke: #ffffff; stroke-width: 0.75"/>
     <use xlink:href="#mf96168cc2d" x="328.719892" y="40.485786" style="fill: #b3b3b3; stroke: #ffffff; stroke-width: 0.75"/>
     <use xlink:href="#mf96168cc2d" x="391.031023" y="39.888385" style="fill: #b3b3b3; stroke: #ffffff; stroke-width: 0.75"/>
    </g>
   </g>
   <g id="line2d_43">
    <path d="M 139.530732 83.748171 
L 212.420018 50.668759 
L 288.722722 39.893184 
" clip-path="url(#pc67133f999)" style="fill: none; stroke: #66c2a5; stroke-width: 1.5; stroke-linecap: square"/>
    <g clip-path="url(#pc67133f999)">
     <use xlink:href="#mdce914d60e" x="139.530732" y="83.748171" style="fill: #66c2a5; stroke: #ffffff; stroke-width: 0.75"/>
     <use xlink:href="#mdce914d60e" x="212.420018" y="50.668759" style="fill: #66c2a5; stroke: #ffffff; stroke-width: 0.75"/>
     <use xlink:href="#mdce914d60e" x="288.722722" y="39.893184" style="fill: #66c2a5; stroke: #ffffff; stroke-width: 0.75"/>
    </g>
   </g>
   <g id="line2d_44">
    <path d="M 138.262277 95.836334 
L 212.897938 52.021022 
L 289.105535 42.060115 
" clip-path="url(#pc67133f999)" style="fill: none; stroke: #fc8d62; stroke-width: 1.5; stroke-linecap: square"/>
    <g clip-path="url(#pc67133f999)">
     <use xlink:href="#mda9d1d0845" x="138.262277" y="95.836334" style="fill: #fc8d62; stroke: #ffffff; stroke-width: 0.75"/>
     <use xlink:href="#mda9d1d0845" x="212.897938" y="52.021022" style="fill: #fc8d62; stroke: #ffffff; stroke-width: 0.75"/>
     <use xlink:href="#mda9d1d0845" x="289.105535" y="42.060115" style="fill: #fc8d62; stroke: #ffffff; stroke-width: 0.75"/>
    </g>
   </g>
   <g id="line2d_45">
    <path d="M 110.589148 174.90178 
L 158.735898 75.048963 
L 214.567409 59.964548 
L 269.657103 49.313055 
" clip-path="url(#pc67133f999)" style="fill: none; stroke: #8da0cb; stroke-width: 1.5; stroke-linecap: square"/>
    <g clip-path="url(#pc67133f999)">
     <use xlink:href="#mcaae43442d" x="110.589148" y="174.90178" style="fill: #8da0cb; stroke: #ffffff; stroke-width: 0.75"/>
     <use xlink:href="#mcaae43442d" x="158.735898" y="75.048963" style="fill: #8da0cb; stroke: #ffffff; stroke-width: 0.75"/>
     <use xlink:href="#mcaae43442d" x="214.567409" y="59.964548" style="fill: #8da0cb; stroke: #ffffff; stroke-width: 0.75"/>
     <use xlink:href="#mcaae43442d" x="269.657103" y="49.313055" style="fill: #8da0cb; stroke: #ffffff; stroke-width: 0.75"/>
    </g>
   </g>
   <g id="line2d_46">
    <path d="M 111.492828 133.618413 
L 169.057516 84.860205 
L 237.348409 83.355373 
" clip-path="url(#pc67133f999)" style="fill: none; stroke: #e78ac3; stroke-width: 1.5; stroke-linecap: square"/>
    <g clip-path="url(#pc67133f999)">
     <use xlink:href="#ma13eeb67e5" x="111.492828" y="133.618413" style="fill: #e78ac3; stroke: #ffffff; stroke-width: 0.75"/>
     <use xlink:href="#ma13eeb67e5" x="169.057516" y="84.860205" style="fill: #e78ac3; stroke: #ffffff; stroke-width: 0.75"/>
     <use xlink:href="#ma13eeb67e5" x="237.348409" y="83.355373" style="fill: #e78ac3; stroke: #ffffff; stroke-width: 0.75"/>
    </g>
   </g>
   <g id="line2d_47"/>
   <g id="line2d_48"/>
   <g id="line2d_49"/>
   <g id="line2d_50"/>
   <g id="line2d_51"/>
   <g id="line2d_52"/>
   <g id="line2d_53"/>
   <g id="line2d_54"/>
   <g id="line2d_55"/>
   <g id="line2d_56"/>
   <g id="line2d_57"/>
   <g id="line2d_58"/>
   <g id="patch_3">
    <path d="M 50.14375 288.430125 
L 50.14375 22.318125 
" style="fill: none; stroke: #000000; stroke-width: 0.8; stroke-linejoin: miter; stroke-linecap: square"/>
   </g>
   <g id="patch_4">
    <path d="M 407.26375 288.430125 
L 407.26375 22.318125 
" style="fill: none; stroke: #000000; stroke-width: 0.8; stroke-linejoin: miter; stroke-linecap: square"/>
   </g>
   <g id="patch_5">
    <path d="M 50.14375 288.430125 
L 407.26375 288.430125 
" style="fill: none; stroke: #000000; stroke-width: 0.8; stroke-linejoin: miter; stroke-linecap: square"/>
   </g>
   <g id="patch_6">
    <path d="M 50.14375 22.318125 
L 407.26375 22.318125 
" style="fill: none; stroke: #000000; stroke-width: 0.8; stroke-linejoin: miter; stroke-linecap: square"/>
   </g>
   <g id="text_13">
    <!-- High Energy Peak - black circles in Figure 1 -->
    <g transform="translate(99.630625 16.318125) scale(0.12 -0.12)">
     <defs>
      <path id="DejaVuSans-48" d="M 628 4666 
L 1259 4666 
L 1259 2753 
L 3553 2753 
L 3553 4666 
L 4184 4666 
L 4184 0 
L 3553 0 
L 3553 2222 
L 1259 2222 
L 1259 0 
L 628 0 
L 628 4666 
z
" transform="scale(0.015625)"/>
      <path id="DejaVuSans-45" d="M 628 4666 
L 3578 4666 
L 3578 4134 
L 1259 4134 
L 1259 2753 
L 3481 2753 
L 3481 2222 
L 1259 2222 
L 1259 531 
L 3634 531 
L 3634 0 
L 628 0 
L 628 4666 
z
" transform="scale(0.015625)"/>
      <path id="DejaVuSans-79" d="M 2059 -325 
Q 1816 -950 1584 -1140 
Q 1353 -1331 966 -1331 
L 506 -1331 
L 506 -850 
L 844 -850 
Q 1081 -850 1212 -737 
Q 1344 -625 1503 -206 
L 1606 56 
L 191 3500 
L 800 3500 
L 1894 763 
L 2988 3500 
L 3597 3500 
L 2059 -325 
z
" transform="scale(0.015625)"/>
      <path id="DejaVuSans-50" d="M 1259 4147 
L 1259 2394 
L 2053 2394 
Q 2494 2394 2734 2622 
Q 2975 2850 2975 3272 
Q 2975 3691 2734 3919 
Q 2494 4147 2053 4147 
L 1259 4147 
z
M 628 4666 
L 2053 4666 
Q 2838 4666 3239 4311 
Q 3641 3956 3641 3272 
Q 3641 2581 3239 2228 
Q 2838 1875 2053 1875 
L 1259 1875 
L 1259 0 
L 628 0 
L 628 4666 
z
" transform="scale(0.015625)"/>
      <path id="DejaVuSans-2d" d="M 313 2009 
L 1997 2009 
L 1997 1497 
L 313 1497 
L 313 2009 
z
" transform="scale(0.015625)"/>
      <path id="DejaVuSans-75" d="M 544 1381 
L 544 3500 
L 1119 3500 
L 1119 1403 
Q 1119 906 1312 657 
Q 1506 409 1894 409 
Q 2359 409 2629 706 
Q 2900 1003 2900 1516 
L 2900 3500 
L 3475 3500 
L 3475 0 
L 2900 0 
L 2900 538 
Q 2691 219 2414 64 
Q 2138 -91 1772 -91 
Q 1169 -91 856 284 
Q 544 659 544 1381 
z
M 1991 3584 
L 1991 3584 
z
" transform="scale(0.015625)"/>
      <path id="DejaVuSans-31" d="M 794 531 
L 1825 531 
L 1825 4091 
L 703 3866 
L 703 4441 
L 1819 4666 
L 2450 4666 
L 2450 531 
L 3481 531 
L 3481 0 
L 794 0 
L 794 531 
z
" transform="scale(0.015625)"/>
     </defs>
     <use xlink:href="#DejaVuSans-48"/>
     <use xlink:href="#DejaVuSans-69" x="75.195312"/>
     <use xlink:href="#DejaVuSans-67" x="102.978516"/>
     <use xlink:href="#DejaVuSans-68" x="166.455078"/>
     <use xlink:href="#DejaVuSans-20" x="229.833984"/>
     <use xlink:href="#DejaVuSans-45" x="261.621094"/>
     <use xlink:href="#DejaVuSans-6e" x="324.804688"/>
     <use xlink:href="#DejaVuSans-65" x="388.183594"/>
     <use xlink:href="#DejaVuSans-72" x="449.707031"/>
     <use xlink:href="#DejaVuSans-67" x="489.070312"/>
     <use xlink:href="#DejaVuSans-79" x="552.546875"/>
     <use xlink:href="#DejaVuSans-20" x="611.726562"/>
     <use xlink:href="#DejaVuSans-50" x="643.513672"/>
     <use xlink:href="#DejaVuSans-65" x="700.191406"/>
     <use xlink:href="#DejaVuSans-61" x="761.714844"/>
     <use xlink:href="#DejaVuSans-6b" x="822.994141"/>
     <use xlink:href="#DejaVuSans-20" x="880.904297"/>
     <use xlink:href="#DejaVuSans-2d" x="912.691406"/>
     <use xlink:href="#DejaVuSans-20" x="948.775391"/>
     <use xlink:href="#DejaVuSans-62" x="980.5625"/>
     <use xlink:href="#DejaVuSans-6c" x="1044.039062"/>
     <use xlink:href="#DejaVuSans-61" x="1071.822266"/>
     <use xlink:href="#DejaVuSans-63" x="1133.101562"/>
     <use xlink:href="#DejaVuSans-6b" x="1188.082031"/>
     <use xlink:href="#DejaVuSans-20" x="1245.992188"/>
     <use xlink:href="#DejaVuSans-63" x="1277.779297"/>
     <use xlink:href="#DejaVuSans-69" x="1332.759766"/>
     <use xlink:href="#DejaVuSans-72" x="1360.542969"/>
     <use xlink:href="#DejaVuSans-63" x="1399.40625"/>
     <use xlink:href="#DejaVuSans-6c" x="1454.386719"/>
     <use xlink:href="#DejaVuSans-65" x="1482.169922"/>
     <use xlink:href="#DejaVuSans-73" x="1543.693359"/>
     <use xlink:href="#DejaVuSans-20" x="1595.792969"/>
     <use xlink:href="#DejaVuSans-69" x="1627.580078"/>
     <use xlink:href="#DejaVuSans-6e" x="1655.363281"/>
     <use xlink:href="#DejaVuSans-20" x="1718.742188"/>
     <use xlink:href="#DejaVuSans-46" x="1750.529297"/>
     <use xlink:href="#DejaVuSans-69" x="1800.798828"/>
     <use xlink:href="#DejaVuSans-67" x="1828.582031"/>
     <use xlink:href="#DejaVuSans-75" x="1892.058594"/>
     <use xlink:href="#DejaVuSans-72" x="1955.4375"/>
     <use xlink:href="#DejaVuSans-65" x="1994.300781"/>
     <use xlink:href="#DejaVuSans-20" x="2055.824219"/>
     <use xlink:href="#DejaVuSans-31" x="2087.611328"/>
    </g>
   </g>
   <g id="legend_1">
    <g id="patch_7">
     <path d="M 339.635625 397.27125 
L 400.26375 397.27125 
Q 402.26375 397.27125 402.26375 395.27125 
L 402.26375 29.318125 
Q 402.26375 27.318125 400.26375 27.318125 
L 339.635625 27.318125 
Q 337.635625 27.318125 337.635625 29.318125 
L 337.635625 395.27125 
Q 337.635625 397.27125 339.635625 397.27125 
z
" style="fill: #ffffff; opacity: 0.8; stroke: #cccccc; stroke-linejoin: miter"/>
    </g>
    <g id="text_14">
     <!-- temp -->
     <g transform="translate(356.868438 38.916562) scale(0.1 -0.1)">
      <defs>
       <path id="DejaVuSans-70" d="M 1159 525 
L 1159 -1331 
L 581 -1331 
L 581 3500 
L 1159 3500 
L 1159 2969 
Q 1341 3281 1617 3432 
Q 1894 3584 2278 3584 
Q 2916 3584 3314 3078 
Q 3713 2572 3713 1747 
Q 3713 922 3314 415 
Q 2916 -91 2278 -91 
Q 1894 -91 1617 61 
Q 1341 213 1159 525 
z
M 3116 1747 
Q 3116 2381 2855 2742 
Q 2594 3103 2138 3103 
Q 1681 3103 1420 2742 
Q 1159 2381 1159 1747 
Q 1159 1113 1420 752 
Q 1681 391 2138 391 
Q 2594 391 2855 752 
Q 3116 1113 3116 1747 
z
" transform="scale(0.015625)"/>
      </defs>
      <use xlink:href="#DejaVuSans-74"/>
      <use xlink:href="#DejaVuSans-65" x="39.208984"/>
      <use xlink:href="#DejaVuSans-6d" x="100.732422"/>
      <use xlink:href="#DejaVuSans-70" x="198.144531"/>
     </g>
    </g>
    <g id="line2d_59">
     <path d="M 341.635625 50.094687 
L 351.635625 50.094687 
L 361.635625 50.094687 
" style="fill: none; stroke: #66c2a5; stroke-width: 1.5; stroke-linecap: square"/>
    </g>
    <g id="text_15">
     <!-- 20.0 -->
     <g transform="translate(369.635625 53.594687) scale(0.1 -0.1)">
      <use xlink:href="#DejaVuSans-32"/>
      <use xlink:href="#DejaVuSans-30" x="63.623047"/>
      <use xlink:href="#DejaVuSans-2e" x="127.246094"/>
      <use xlink:href="#DejaVuSans-30" x="159.033203"/>
     </g>
    </g>
    <g id="line2d_60">
     <path d="M 341.635625 64.772812 
L 351.635625 64.772812 
L 361.635625 64.772812 
" style="fill: none; stroke: #fc8d62; stroke-width: 1.5; stroke-linecap: square"/>
    </g>
    <g id="text_16">
     <!-- 30.0 -->
     <g transform="translate(369.635625 68.272812) scale(0.1 -0.1)">
      <defs>
       <path id="DejaVuSans-33" d="M 2597 2516 
Q 3050 2419 3304 2112 
Q 3559 1806 3559 1356 
Q 3559 666 3084 287 
Q 2609 -91 1734 -91 
Q 1441 -91 1130 -33 
Q 819 25 488 141 
L 488 750 
Q 750 597 1062 519 
Q 1375 441 1716 441 
Q 2309 441 2620 675 
Q 2931 909 2931 1356 
Q 2931 1769 2642 2001 
Q 2353 2234 1838 2234 
L 1294 2234 
L 1294 2753 
L 1863 2753 
Q 2328 2753 2575 2939 
Q 2822 3125 2822 3475 
Q 2822 3834 2567 4026 
Q 2313 4219 1838 4219 
Q 1578 4219 1281 4162 
Q 984 4106 628 3988 
L 628 4550 
Q 988 4650 1302 4700 
Q 1616 4750 1894 4750 
Q 2613 4750 3031 4423 
Q 3450 4097 3450 3541 
Q 3450 3153 3228 2886 
Q 3006 2619 2597 2516 
z
" transform="scale(0.015625)"/>
      </defs>
      <use xlink:href="#DejaVuSans-33"/>
      <use xlink:href="#DejaVuSans-30" x="63.623047"/>
      <use xlink:href="#DejaVuSans-2e" x="127.246094"/>
      <use xlink:href="#DejaVuSans-30" x="159.033203"/>
     </g>
    </g>
    <g id="line2d_61">
     <path d="M 341.635625 79.450937 
L 351.635625 79.450937 
L 361.635625 79.450937 
" style="fill: none; stroke: #8da0cb; stroke-width: 1.5; stroke-linecap: square"/>
    </g>
    <g id="text_17">
     <!-- 40.0 -->
     <g transform="translate(369.635625 82.950937) scale(0.1 -0.1)">
      <use xlink:href="#DejaVuSans-34"/>
      <use xlink:href="#DejaVuSans-30" x="63.623047"/>
      <use xlink:href="#DejaVuSans-2e" x="127.246094"/>
      <use xlink:href="#DejaVuSans-30" x="159.033203"/>
     </g>
    </g>
    <g id="line2d_62">
     <path d="M 341.635625 94.129062 
L 351.635625 94.129062 
L 361.635625 94.129062 
" style="fill: none; stroke: #e78ac3; stroke-width: 1.5; stroke-linecap: square"/>
    </g>
    <g id="text_18">
     <!-- 50.0 -->
     <g transform="translate(369.635625 97.629062) scale(0.1 -0.1)">
      <use xlink:href="#DejaVuSans-35"/>
      <use xlink:href="#DejaVuSans-30" x="63.623047"/>
      <use xlink:href="#DejaVuSans-2e" x="127.246094"/>
      <use xlink:href="#DejaVuSans-30" x="159.033203"/>
     </g>
    </g>
    <g id="line2d_63">
     <path d="M 341.635625 108.807187 
L 351.635625 108.807187 
L 361.635625 108.807187 
" style="fill: none; stroke: #a6d854; stroke-width: 1.5; stroke-linecap: square"/>
    </g>
    <g id="text_19">
     <!-- 60.0 -->
     <g transform="translate(369.635625 112.307187) scale(0.1 -0.1)">
      <use xlink:href="#DejaVuSans-36"/>
      <use xlink:href="#DejaVuSans-30" x="63.623047"/>
      <use xlink:href="#DejaVuSans-2e" x="127.246094"/>
      <use xlink:href="#DejaVuSans-30" x="159.033203"/>
     </g>
    </g>
    <g id="line2d_64">
     <path d="M 341.635625 123.485312 
L 351.635625 123.485312 
L 361.635625 123.485312 
" style="fill: none; stroke: #ffd92f; stroke-width: 1.5; stroke-linecap: square"/>
    </g>
    <g id="text_20">
     <!-- 70.0 -->
     <g transform="translate(369.635625 126.985312) scale(0.1 -0.1)">
      <defs>
       <path id="DejaVuSans-37" d="M 525 4666 
L 3525 4666 
L 3525 4397 
L 1831 0 
L 1172 0 
L 2766 4134 
L 525 4134 
L 525 4666 
z
" transform="scale(0.015625)"/>
      </defs>
      <use xlink:href="#DejaVuSans-37"/>
      <use xlink:href="#DejaVuSans-30" x="63.623047"/>
      <use xlink:href="#DejaVuSans-2e" x="127.246094"/>
      <use xlink:href="#DejaVuSans-30" x="159.033203"/>
     </g>
    </g>
    <g id="line2d_65">
     <path d="M 341.635625 138.163437 
L 351.635625 138.163437 
L 361.635625 138.163437 
" style="fill: none; stroke: #e5c494; stroke-width: 1.5; stroke-linecap: square"/>
    </g>
    <g id="text_21">
     <!-- 80.0 -->
     <g transform="translate(369.635625 141.663437) scale(0.1 -0.1)">
      <use xlink:href="#DejaVuSans-38"/>
      <use xlink:href="#DejaVuSans-30" x="63.623047"/>
      <use xlink:href="#DejaVuSans-2e" x="127.246094"/>
      <use xlink:href="#DejaVuSans-30" x="159.033203"/>
     </g>
    </g>
    <g id="line2d_66">
     <path d="M 341.635625 152.841562 
L 351.635625 152.841562 
L 361.635625 152.841562 
" style="fill: none; stroke: #b3b3b3; stroke-width: 1.5; stroke-linecap: square"/>
    </g>
    <g id="text_22">
     <!-- 90.0 -->
     <g transform="translate(369.635625 156.341562) scale(0.1 -0.1)">
      <defs>
       <path id="DejaVuSans-39" d="M 703 97 
L 703 672 
Q 941 559 1184 500 
Q 1428 441 1663 441 
Q 2288 441 2617 861 
Q 2947 1281 2994 2138 
Q 2813 1869 2534 1725 
Q 2256 1581 1919 1581 
Q 1219 1581 811 2004 
Q 403 2428 403 3163 
Q 403 3881 828 4315 
Q 1253 4750 1959 4750 
Q 2769 4750 3195 4129 
Q 3622 3509 3622 2328 
Q 3622 1225 3098 567 
Q 2575 -91 1691 -91 
Q 1453 -91 1209 -44 
Q 966 3 703 97 
z
M 1959 2075 
Q 2384 2075 2632 2365 
Q 2881 2656 2881 3163 
Q 2881 3666 2632 3958 
Q 2384 4250 1959 4250 
Q 1534 4250 1286 3958 
Q 1038 3666 1038 3163 
Q 1038 2656 1286 2365 
Q 1534 2075 1959 2075 
z
" transform="scale(0.015625)"/>
      </defs>
      <use xlink:href="#DejaVuSans-39"/>
      <use xlink:href="#DejaVuSans-30" x="63.623047"/>
      <use xlink:href="#DejaVuSans-2e" x="127.246094"/>
      <use xlink:href="#DejaVuSans-30" x="159.033203"/>
     </g>
    </g>
    <g id="line2d_67">
     <path d="M 341.635625 167.519687 
L 351.635625 167.519687 
L 361.635625 167.519687 
" style="fill: none; stroke: #66c2a5; stroke-width: 1.5; stroke-linecap: square"/>
    </g>
    <g id="text_23">
     <!-- 100.0 -->
     <g transform="translate(369.635625 171.019687) scale(0.1 -0.1)">
      <use xlink:href="#DejaVuSans-31"/>
      <use xlink:href="#DejaVuSans-30" x="63.623047"/>
      <use xlink:href="#DejaVuSans-30" x="127.246094"/>
      <use xlink:href="#DejaVuSans-2e" x="190.869141"/>
      <use xlink:href="#DejaVuSans-30" x="222.65625"/>
     </g>
    </g>
    <g id="line2d_68">
     <path d="M 341.635625 182.197812 
L 351.635625 182.197812 
L 361.635625 182.197812 
" style="fill: none; stroke: #fc8d62; stroke-width: 1.5; stroke-linecap: square"/>
    </g>
    <g id="text_24">
     <!-- 110.0 -->
     <g transform="translate(369.635625 185.697812) scale(0.1 -0.1)">
      <use xlink:href="#DejaVuSans-31"/>
      <use xlink:href="#DejaVuSans-31" x="63.623047"/>
      <use xlink:href="#DejaVuSans-30" x="127.246094"/>
      <use xlink:href="#DejaVuSans-2e" x="190.869141"/>
      <use xlink:href="#DejaVuSans-30" x="222.65625"/>
     </g>
    </g>
    <g id="line2d_69">
     <path d="M 341.635625 196.875937 
L 351.635625 196.875937 
L 361.635625 196.875937 
" style="fill: none; stroke: #8da0cb; stroke-width: 1.5; stroke-linecap: square"/>
    </g>
    <g id="text_25">
     <!-- 120.0 -->
     <g transform="translate(369.635625 200.375937) scale(0.1 -0.1)">
      <use xlink:href="#DejaVuSans-31"/>
      <use xlink:href="#DejaVuSans-32" x="63.623047"/>
      <use xlink:href="#DejaVuSans-30" x="127.246094"/>
      <use xlink:href="#DejaVuSans-2e" x="190.869141"/>
      <use xlink:href="#DejaVuSans-30" x="222.65625"/>
     </g>
    </g>
    <g id="line2d_70">
     <path d="M 341.635625 211.554062 
L 351.635625 211.554062 
L 361.635625 211.554062 
" style="fill: none; stroke: #e78ac3; stroke-width: 1.5; stroke-linecap: square"/>
    </g>
    <g id="text_26">
     <!-- 125.0 -->
     <g transform="translate(369.635625 215.054062) scale(0.1 -0.1)">
      <use xlink:href="#DejaVuSans-31"/>
      <use xlink:href="#DejaVuSans-32" x="63.623047"/>
      <use xlink:href="#DejaVuSans-35" x="127.246094"/>
      <use xlink:href="#DejaVuSans-2e" x="190.869141"/>
      <use xlink:href="#DejaVuSans-30" x="222.65625"/>
     </g>
    </g>
    <g id="line2d_71">
     <path d="M 341.635625 226.232187 
L 351.635625 226.232187 
L 361.635625 226.232187 
" style="fill: none; stroke: #66c2a5; stroke-width: 1.5; stroke-linecap: square"/>
     <g>
      <use xlink:href="#mdce914d60e" x="351.635625" y="226.232187" style="fill: #66c2a5; stroke: #ffffff; stroke-width: 0.75"/>
     </g>
    </g>
    <g id="text_27">
     <!-- 20.0 -->
     <g transform="translate(369.635625 229.732187) scale(0.1 -0.1)">
      <use xlink:href="#DejaVuSans-32"/>
      <use xlink:href="#DejaVuSans-30" x="63.623047"/>
      <use xlink:href="#DejaVuSans-2e" x="127.246094"/>
      <use xlink:href="#DejaVuSans-30" x="159.033203"/>
     </g>
    </g>
    <g id="line2d_72">
     <path d="M 341.635625 240.910312 
L 351.635625 240.910312 
L 361.635625 240.910312 
" style="fill: none; stroke: #fc8d62; stroke-width: 1.5; stroke-linecap: square"/>
     <g>
      <use xlink:href="#mda9d1d0845" x="351.635625" y="240.910312" style="fill: #fc8d62; stroke: #ffffff; stroke-width: 0.75"/>
     </g>
    </g>
    <g id="text_28">
     <!-- 30.0 -->
     <g transform="translate(369.635625 244.410312) scale(0.1 -0.1)">
      <use xlink:href="#DejaVuSans-33"/>
      <use xlink:href="#DejaVuSans-30" x="63.623047"/>
      <use xlink:href="#DejaVuSans-2e" x="127.246094"/>
      <use xlink:href="#DejaVuSans-30" x="159.033203"/>
     </g>
    </g>
    <g id="line2d_73">
     <path d="M 341.635625 255.588437 
L 351.635625 255.588437 
L 361.635625 255.588437 
" style="fill: none; stroke: #8da0cb; stroke-width: 1.5; stroke-linecap: square"/>
     <g>
      <use xlink:href="#mcaae43442d" x="351.635625" y="255.588437" style="fill: #8da0cb; stroke: #ffffff; stroke-width: 0.75"/>
     </g>
    </g>
    <g id="text_29">
     <!-- 40.0 -->
     <g transform="translate(369.635625 259.088437) scale(0.1 -0.1)">
      <use xlink:href="#DejaVuSans-34"/>
      <use xlink:href="#DejaVuSans-30" x="63.623047"/>
      <use xlink:href="#DejaVuSans-2e" x="127.246094"/>
      <use xlink:href="#DejaVuSans-30" x="159.033203"/>
     </g>
    </g>
    <g id="line2d_74">
     <path d="M 341.635625 270.266562 
L 351.635625 270.266562 
L 361.635625 270.266562 
" style="fill: none; stroke: #e78ac3; stroke-width: 1.5; stroke-linecap: square"/>
     <g>
      <use xlink:href="#ma13eeb67e5" x="351.635625" y="270.266562" style="fill: #e78ac3; stroke: #ffffff; stroke-width: 0.75"/>
     </g>
    </g>
    <g id="text_30">
     <!-- 50.0 -->
     <g transform="translate(369.635625 273.766562) scale(0.1 -0.1)">
      <use xlink:href="#DejaVuSans-35"/>
      <use xlink:href="#DejaVuSans-30" x="63.623047"/>
      <use xlink:href="#DejaVuSans-2e" x="127.246094"/>
      <use xlink:href="#DejaVuSans-30" x="159.033203"/>
     </g>
    </g>
    <g id="line2d_75">
     <path d="M 341.635625 284.944687 
L 351.635625 284.944687 
L 361.635625 284.944687 
" style="fill: none; stroke: #a6d854; stroke-width: 1.5; stroke-linecap: square"/>
     <g>
      <use xlink:href="#mef9ab8c5e7" x="351.635625" y="284.944687" style="fill: #a6d854; stroke: #ffffff; stroke-width: 0.75"/>
     </g>
    </g>
    <g id="text_31">
     <!-- 60.0 -->
     <g transform="translate(369.635625 288.444687) scale(0.1 -0.1)">
      <use xlink:href="#DejaVuSans-36"/>
      <use xlink:href="#DejaVuSans-30" x="63.623047"/>
      <use xlink:href="#DejaVuSans-2e" x="127.246094"/>
      <use xlink:href="#DejaVuSans-30" x="159.033203"/>
     </g>
    </g>
    <g id="line2d_76">
     <path d="M 341.635625 299.622812 
L 351.635625 299.622812 
L 361.635625 299.622812 
" style="fill: none; stroke: #ffd92f; stroke-width: 1.5; stroke-linecap: square"/>
     <g>
      <use xlink:href="#m0d01c5fc67" x="351.635625" y="299.622812" style="fill: #ffd92f; stroke: #ffffff; stroke-width: 0.75"/>
     </g>
    </g>
    <g id="text_32">
     <!-- 70.0 -->
     <g transform="translate(369.635625 303.122812) scale(0.1 -0.1)">
      <use xlink:href="#DejaVuSans-37"/>
      <use xlink:href="#DejaVuSans-30" x="63.623047"/>
      <use xlink:href="#DejaVuSans-2e" x="127.246094"/>
      <use xlink:href="#DejaVuSans-30" x="159.033203"/>
     </g>
    </g>
    <g id="line2d_77">
     <path d="M 341.635625 314.300937 
L 351.635625 314.300937 
L 361.635625 314.300937 
" style="fill: none; stroke: #e5c494; stroke-width: 1.5; stroke-linecap: square"/>
     <g>
      <use xlink:href="#ma8991f70be" x="351.635625" y="314.300937" style="fill: #e5c494; stroke: #ffffff; stroke-width: 0.75"/>
     </g>
    </g>
    <g id="text_33">
     <!-- 80.0 -->
     <g transform="translate(369.635625 317.800937) scale(0.1 -0.1)">
      <use xlink:href="#DejaVuSans-38"/>
      <use xlink:href="#DejaVuSans-30" x="63.623047"/>
      <use xlink:href="#DejaVuSans-2e" x="127.246094"/>
      <use xlink:href="#DejaVuSans-30" x="159.033203"/>
     </g>
    </g>
    <g id="line2d_78">
     <path d="M 341.635625 328.979062 
L 351.635625 328.979062 
L 361.635625 328.979062 
" style="fill: none; stroke: #b3b3b3; stroke-width: 1.5; stroke-linecap: square"/>
     <g>
      <use xlink:href="#mf96168cc2d" x="351.635625" y="328.979062" style="fill: #b3b3b3; stroke: #ffffff; stroke-width: 0.75"/>
     </g>
    </g>
    <g id="text_34">
     <!-- 90.0 -->
     <g transform="translate(369.635625 332.479062) scale(0.1 -0.1)">
      <use xlink:href="#DejaVuSans-39"/>
      <use xlink:href="#DejaVuSans-30" x="63.623047"/>
      <use xlink:href="#DejaVuSans-2e" x="127.246094"/>
      <use xlink:href="#DejaVuSans-30" x="159.033203"/>
     </g>
    </g>
    <g id="line2d_79">
     <path d="M 341.635625 343.657187 
L 351.635625 343.657187 
L 361.635625 343.657187 
" style="fill: none; stroke: #66c2a5; stroke-width: 1.5; stroke-linecap: square"/>
     <g>
      <use xlink:href="#mdce914d60e" x="351.635625" y="343.657187" style="fill: #66c2a5; stroke: #ffffff; stroke-width: 0.75"/>
     </g>
    </g>
    <g id="text_35">
     <!-- 100.0 -->
     <g transform="translate(369.635625 347.157187) scale(0.1 -0.1)">
      <use xlink:href="#DejaVuSans-31"/>
      <use xlink:href="#DejaVuSans-30" x="63.623047"/>
      <use xlink:href="#DejaVuSans-30" x="127.246094"/>
      <use xlink:href="#DejaVuSans-2e" x="190.869141"/>
      <use xlink:href="#DejaVuSans-30" x="222.65625"/>
     </g>
    </g>
    <g id="line2d_80">
     <path d="M 341.635625 358.335312 
L 351.635625 358.335312 
L 361.635625 358.335312 
" style="fill: none; stroke: #fc8d62; stroke-width: 1.5; stroke-linecap: square"/>
     <g>
      <use xlink:href="#mda9d1d0845" x="351.635625" y="358.335312" style="fill: #fc8d62; stroke: #ffffff; stroke-width: 0.75"/>
     </g>
    </g>
    <g id="text_36">
     <!-- 110.0 -->
     <g transform="translate(369.635625 361.835312) scale(0.1 -0.1)">
      <use xlink:href="#DejaVuSans-31"/>
      <use xlink:href="#DejaVuSans-31" x="63.623047"/>
      <use xlink:href="#DejaVuSans-30" x="127.246094"/>
      <use xlink:href="#DejaVuSans-2e" x="190.869141"/>
      <use xlink:href="#DejaVuSans-30" x="222.65625"/>
     </g>
    </g>
    <g id="line2d_81">
     <path d="M 341.635625 373.013438 
L 351.635625 373.013438 
L 361.635625 373.013438 
" style="fill: none; stroke: #8da0cb; stroke-width: 1.5; stroke-linecap: square"/>
     <g>
      <use xlink:href="#mcaae43442d" x="351.635625" y="373.013438" style="fill: #8da0cb; stroke: #ffffff; stroke-width: 0.75"/>
     </g>
    </g>
    <g id="text_37">
     <!-- 120.0 -->
     <g transform="translate(369.635625 376.513438) scale(0.1 -0.1)">
      <use xlink:href="#DejaVuSans-31"/>
      <use xlink:href="#DejaVuSans-32" x="63.623047"/>
      <use xlink:href="#DejaVuSans-30" x="127.246094"/>
      <use xlink:href="#DejaVuSans-2e" x="190.869141"/>
      <use xlink:href="#DejaVuSans-30" x="222.65625"/>
     </g>
    </g>
    <g id="line2d_82">
     <path d="M 341.635625 387.691563 
L 351.635625 387.691563 
L 361.635625 387.691563 
" style="fill: none; stroke: #e78ac3; stroke-width: 1.5; stroke-linecap: square"/>
     <g>
      <use xlink:href="#ma13eeb67e5" x="351.635625" y="387.691563" style="fill: #e78ac3; stroke: #ffffff; stroke-width: 0.75"/>
     </g>
    </g>
    <g id="text_38">
     <!-- 125.0 -->
     <g transform="translate(369.635625 391.191563) scale(0.1 -0.1)">
      <use xlink:href="#DejaVuSans-31"/>
      <use xlink:href="#DejaVuSans-32" x="63.623047"/>
      <use xlink:href="#DejaVuSans-35" x="127.246094"/>
      <use xlink:href="#DejaVuSans-2e" x="190.869141"/>
      <use xlink:href="#DejaVuSans-30" x="222.65625"/>
     </g>
    </g>
   </g>
  </g>
 </g>
 <defs>
  <clipPath id="pc67133f999">
   <rect x="50.14375" y="22.318125" width="357.12" height="266.112"/>
  </clipPath>
 </defs>
</svg>
